Preview_144,100-wdth_480.00.ufo
<glyph name="exclam" format="2">
  <advance width="436"/>
  <unicode hex="0021"/>
  <outline>
    <contour>
      <point x="159.84" y="51.16" type="qcurve" smooth="yes"/>
      <point x="159.84" y="75.08"/>
      <point x="192.84" y="108.56"/>
      <point x="219.28" y="108.56" type="qcurve" smooth="yes"/>
      <point x="245.72" y="108.56"/>
      <point x="278.72" y="74.6"/>
      <point x="278.72" y="51.16" type="qcurve" smooth="yes"/>
      <point x="278.72" y="24.2"/>
      <point x="245.72" y="-9.76"/>
      <point x="219.28" y="-9.76" type="qcurve" smooth="yes"/>
      <point x="193.32" y="-9.76"/>
      <point x="159.84" y="24.2"/>
    </contour>
    <contour>
      <point x="188.76" y="1264.44" type="line" smooth="yes"/>
      <point x="181.96" y="1425.84"/>
      <point x="193.36" y="1531.56"/>
      <point x="223.72" y="1530.56" type="qcurve" smooth="yes"/>
      <point x="253.04" y="1529.56"/>
      <point x="258.0" y="1429.36"/>
      <point x="252.64" y="1266.96" type="qcurve" smooth="yes"/>
      <point x="247.76" y="1152.56" type="line"/>
      <point x="230.16" y="696.2" type="line"/>
      <point x="224.72" y="378.0" type="line"/>
      <point x="214.72" y="378.0" type="line"/>
      <point x="208.28" y="696.2" type="line"/>
      <point x="193.16" y="1153.56" type="line"/>
    </contour>
  </outline>
</glyph>
<glyph name="numbersign" format="2">
  <advance width="995"/>
  <unicode hex="0023"/>
  <outline>
    <contour>
      <point x="4.199999999999999" y="494.2" type="line"/>
      <point x="4.199999999999999" y="569.6" type="line"/>
      <point x="931.1980645161291" y="569.6" type="line"/>
      <point x="931.1980645161291" y="494.2" type="line"/>
    </contour>
    <contour>
      <point x="63.32" y="915.4" type="line"/>
      <point x="63.32" y="990.8" type="line"/>
      <point x="989.318064516129" y="990.8" type="line"/>
      <point x="989.318064516129" y="915.4" type="line"/>
    </contour>
    <contour>
      <point x="181.03" y="-69.922" type="line"/>
      <point x="358.624" y="1530.078" type="line"/>
      <point x="382.93600000000004" y="1530.922" type="line"/>
      <point x="204.29" y="-69.078" type="line"/>
    </contour>
    <contour>
      <point x="615.9441935483871" y="-69.922" type="line"/>
      <point x="794.824193548387" y="1530.078" type="line"/>
      <point x="818.084193548387" y="1530.922" type="line"/>
      <point x="639.2041935483871" y="-69.078" type="line"/>
    </contour>
  </outline>
</glyph>
<glyph name="percent" format="2">
  <advance width="1518"/>
  <unicode hex="0025"/>
  <outline>
    <contour>
      <point x="55.0" y="1108.2" type="qcurve"/>
      <point x="55.0" y="1287.84"/>
      <point x="236.48" y="1525.8"/>
      <point x="366.88" y="1525.8" type="qcurve" smooth="yes"/>
      <point x="507.76" y="1525.8"/>
      <point x="680.76" y="1291.88"/>
      <point x="680.76" y="1115.0" type="qcurve" smooth="yes"/>
      <point x="680.76" y="933.96"/>
      <point x="505.4" y="682.0"/>
      <point x="365.0" y="682.0" type="qcurve" smooth="yes"/>
      <point x="223.16" y="682.0"/>
      <point x="55.0" y="933.24"/>
    </contour>
    <contour>
      <point x="115.28" y="1110.28" type="qcurve" smooth="yes"/>
      <point x="116.75999999999999" y="939.52"/>
      <point x="236.84" y="690.92"/>
      <point x="366.88" y="690.92" type="qcurve" smooth="yes"/>
      <point x="492.12" y="690.92"/>
      <point x="620.44" y="938.96"/>
      <point x="620.44" y="1114.08" type="qcurve" smooth="yes"/>
      <point x="620.44" y="1292.84"/>
      <point x="495.03999999999996" y="1515.36"/>
      <point x="367.36" y="1515.36" type="qcurve" smooth="yes"/>
      <point x="242.56" y="1515.36"/>
      <point x="113.8" y="1280.52"/>
    </contour>
    <contour>
      <point x="307.36" y="-14.08" type="line"/>
      <point x="1167.48" y="1520.4" type="line"/>
      <point x="1181.84" y="1510.16" type="line"/>
      <point x="320.28" y="-23.88" type="line"/>
    </contour>
    <contour>
      <point x="836.9200000000001" y="418.44" type="qcurve" smooth="yes"/>
      <point x="836.9200000000001" y="595.64"/>
      <point x="1018.4" y="830.32"/>
      <point x="1148.8" y="830.32" type="qcurve" smooth="yes"/>
      <point x="1290.2" y="830.32"/>
      <point x="1462.6799999999998" y="604.48"/>
      <point x="1462.6799999999998" y="425.24" type="qcurve" smooth="yes"/>
      <point x="1462.6799999999998" y="230.92"/>
      <point x="1287.32" y="-13.48"/>
      <point x="1146.92" y="-13.48" type="qcurve" smooth="yes"/>
      <point x="1005.5999999999999" y="-13.48"/>
      <point x="836.9200000000001" y="235.0"/>
    </contour>
    <contour>
      <point x="897.72" y="419.48" type="qcurve" smooth="yes"/>
      <point x="899.2" y="237.44"/>
      <point x="1019.8" y="-5.08"/>
      <point x="1148.8" y="-5.08" type="qcurve" smooth="yes"/>
      <point x="1274.56" y="-5.08"/>
      <point x="1402.3600000000001" y="235.44"/>
      <point x="1402.3600000000001" y="423.8" type="qcurve" smooth="yes"/>
      <point x="1402.3600000000001" y="606.44"/>
      <point x="1276.96" y="820.4"/>
      <point x="1149.28" y="820.4" type="qcurve" smooth="yes"/>
      <point x="1025.0" y="820.4"/>
      <point x="896.24" y="591.64"/>
    </contour>
  </outline>
</glyph>
<glyph name="parenleft" format="2">
  <advance width="544"/>
  <unicode hex="0028"/>
  <outline>
    <contour>
      <point x="71.04" y="672.0" type="qcurve" smooth="yes"/>
      <point x="71.04" y="954.4954838709677"/>
      <point x="341.03999999999996" y="1386.72"/>
      <point x="496.96000000000004" y="1504.32" type="qcurve"/>
      <point x="500.88" y="1493.08" type="line"/>
      <point x="344.96" y="1372.92"/>
      <point x="135.04" y="971.24"/>
      <point x="134.77599999999998" y="672.952" type="qcurve" smooth="yes"/>
      <point x="134.56" y="374.76"/>
      <point x="342.96" y="-20.4"/>
      <point x="498.56" y="-146.76" type="qcurve"/>
      <point x="491.9886451612904" y="-156.352" type="line"/>
      <point x="333.3047741935484" y="-32.72748387096774"/>
      <point x="71.04" y="399.8993548387097"/>
    </contour>
  </outline>
</glyph>
<glyph name="parenright" format="2">
  <advance width="544"/>
  <unicode hex="0029"/>
  <outline>
    <contour>
      <point x="473.12" y="672.0" type="qcurve" smooth="yes"/>
      <point x="473.12" y="399.88"/>
      <point x="198.84" y="-37.88"/>
      <point x="49.08" y="-156.52" type="qcurve"/>
      <point x="43.2" y="-147.72" type="line"/>
      <point x="192.24" y="-23.96"/>
      <point x="408.6" y="375.72"/>
      <point x="408.6" y="673.0" type="qcurve" smooth="yes"/>
      <point x="408.6" y="970.28"/>
      <point x="207.6" y="1368.92"/>
      <point x="43.24" y="1493.08" type="qcurve"/>
      <point x="48.64" y="1502.88" type="line"/>
      <point x="211.96" y="1381.72"/>
      <point x="473.12" y="954.6"/>
    </contour>
  </outline>
</glyph>
<glyph name="asterisk" format="2">
  <advance width="662"/>
  <unicode hex="002A"/>
  <outline>
    <contour>
      <point x="331.12" y="876.48" type="qcurve" smooth="yes"/>
      <point x="321.44" y="876.48"/>
      <point x="306.68" y="878.04"/>
      <point x="310.2" y="954.28" type="qcurve" smooth="yes"/>
      <point x="324.42" y="1177.57" type="line"/>
      <point x="321.576" y="1180.18" type="line"/>
      <point x="141.36" y="1058.92" type="line" smooth="yes"/>
      <point x="62.8" y="1004.76"/>
      <point x="47.8" y="1017.4"/>
      <point x="43.72" y="1024.04" type="qcurve" smooth="yes"/>
      <point x="38.6" y="1032.2"/>
      <point x="38.0" y="1056.56"/>
      <point x="121.0" y="1098.72" type="qcurve" smooth="yes"/>
      <point x="313.98" y="1190.516" type="line"/>
      <point x="314.266" y="1193.022" type="line"/>
      <point x="121.52" y="1287.04" type="line" smooth="yes"/>
      <point x="37.48" y="1328.8"/>
      <point x="39.24" y="1348.52"/>
      <point x="42.28" y="1355.16" type="qcurve" smooth="yes"/>
      <point x="45.32" y="1361.8"/>
      <point x="62.8" y="1380.48"/>
      <point x="142.4" y="1325.28" type="qcurve" smooth="yes"/>
      <point x="321.394" y="1203.98" type="line"/>
      <point x="323.47200000000004" y="1207.11" type="line"/>
      <point x="310.2" y="1430.4" type="line" smooth="yes"/>
      <point x="306.68" y="1505.56"/>
      <point x="320.48" y="1520.0"/>
      <point x="331.12" y="1520.0" type="qcurve" smooth="yes"/>
      <point x="340.72" y="1520.0"/>
      <point x="356.12" y="1508.84"/>
      <point x="354.04" y="1430.4" type="qcurve" smooth="yes"/>
      <point x="339.82" y="1207.11" type="line"/>
      <point x="342.378" y="1203.98" type="line"/>
      <point x="517.36" y="1325.28" type="line" smooth="yes"/>
      <point x="593.76" y="1378.4"/>
      <point x="614.36" y="1363.84"/>
      <point x="617.96" y="1357.68" type="qcurve" smooth="yes"/>
      <point x="622.56" y="1349.0"/>
      <point x="617.48" y="1325.68"/>
      <point x="542.16" y="1287.04" type="qcurve" smooth="yes"/>
      <point x="349.74" y="1193.164" type="line"/>
      <point x="348.974" y="1189.6580000000001" type="line"/>
      <point x="543.2" y="1098.72" type="line" smooth="yes"/>
      <point x="625.16" y="1060.48"/>
      <point x="618.04" y="1036.16"/>
      <point x="613.96" y="1027.52" type="qcurve" smooth="yes"/>
      <point x="610.88" y="1021.36"/>
      <point x="592.88" y="1008.84"/>
      <point x="517.88" y="1059.96" type="qcurve" smooth="yes"/>
      <point x="342.326" y="1180.18" type="line"/>
      <point x="339.716" y="1177.57" type="line"/>
      <point x="354.04" y="954.28" type="line" smooth="yes"/>
      <point x="357.56" y="878.04"/>
      <point x="339.32" y="876.48"/>
    </contour>
  </outline>
</glyph>
<glyph name="hyphen" format="2">
  <advance width="859"/>
  <unicode hex="002D"/>
  <outline>
    <contour>
      <point x="90.36" y="606.0" type="line"/>
      <point x="90.36" y="655.0" type="line"/>
      <point x="430.15741935483874" y="653.56" type="line"/>
      <point x="770.1716129032259" y="655.0" type="line"/>
      <point x="770.1716129032259" y="606.0" type="line"/>
      <point x="430.15741935483874" y="607.44" type="line"/>
    </contour>
  </outline>
</glyph>
<glyph name="period" format="2">
  <advance width="405"/>
  <unicode hex="002E"/>
  <outline>
    <contour>
      <point x="141.36" y="54.52" type="qcurve" smooth="yes"/>
      <point x="141.36" y="77.96"/>
      <point x="175.32" y="111.92"/>
      <point x="201.76" y="111.92" type="qcurve" smooth="yes"/>
      <point x="228.2" y="111.92"/>
      <point x="262.64" y="77.96"/>
      <point x="262.64" y="54.52" type="qcurve" smooth="yes"/>
      <point x="262.64" y="28.52"/>
      <point x="228.2" y="-5.92"/>
      <point x="201.76" y="-5.92" type="qcurve" smooth="yes"/>
      <point x="175.32" y="-5.92"/>
      <point x="141.36" y="28.52"/>
    </contour>
  </outline>
</glyph>
<glyph name="slash" format="2">
  <advance width="710"/>
  <unicode hex="002F"/>
  <outline>
    <contour>
      <point x="8.456000000000003" y="-163.976" type="line"/>
      <point x="714.24" y="1533.04" type="line"/>
      <point x="695.6" y="1540.08" type="line"/>
      <point x="-10.439999999999998" y="-157.96" type="line"/>
    </contour>
  </outline>
</glyph>
<glyph name="five" format="2">
  <advance width="829"/>
  <unicode hex="0035"/>
  <outline>
    <contour>
      <point x="-12.240000000000002" y="141.56" type="qcurve"/>
      <point x="1.6400000000000006" y="153.8" type="line"/>
      <point x="47.68" y="90.8"/>
      <point x="241.24" y="-8.36"/>
      <point x="388.56" y="-8.36" type="qcurve" smooth="yes"/>
      <point x="544.0" y="-8.36"/>
      <point x="731.96" y="252.08"/>
      <point x="731.96" y="453.32" type="qcurve" smooth="yes"/>
      <point x="731.96" y="666.36"/>
      <point x="502.44" y="875.12"/>
      <point x="230.95999999999998" y="871.28" type="qcurve" smooth="yes"/>
      <point x="112.96000000000001" y="869.36" type="line"/>
      <point x="104.24" y="878.88" type="line"/>
      <point x="140.76" y="1475.0" type="line"/>
      <point x="162.48" y="1500.0" type="line"/>
      <point x="714.56" y="1500.0" type="line"/>
      <point x="703.76" y="1426.44" type="line"/>
      <point x="166.07999999999998" y="1426.44" type="line"/>
      <point x="157.2" y="1415.44" type="line"/>
      <point x="124.16" y="891.76" type="line"/>
      <point x="234.24" y="907.88" type="line"/>
      <point x="514.36" y="925.4"/>
      <point x="795.56" y="693.4"/>
      <point x="795.56" y="453.88" type="qcurve" smooth="yes"/>
      <point x="795.56" y="226.16"/>
      <point x="551.56" y="-24.4"/>
      <point x="391.68" y="-24.4" type="qcurve" smooth="yes"/>
      <point x="232.07999999999998" y="-24.4"/>
      <point x="31.279999999999998" y="78.52"/>
    </contour>
  </outline>
</glyph>
<glyph name="less" format="2">
  <advance width="812"/>
  <unicode hex="003C"/>
  <outline>
    <contour>
      <point x="85.75999999999999" y="631.88" type="qcurve"/>
      <point x="110.67999999999999" y="647.36"/>
      <point x="625.0" y="897.64"/>
      <point x="683.4" y="924.56" type="qcurve" smooth="yes"/>
      <point x="714.4" y="938.44"/>
      <point x="719.96" y="917.48"/>
      <point x="690.4" y="905.08" type="qcurve" smooth="yes"/>
      <point x="632.0799999999999" y="880.2"/>
      <point x="206.16" y="665.6"/>
      <point x="142.64" y="638.84" type="qcurve"/>
      <point x="201.8" y="609.64"/>
      <point x="622.2" y="386.0"/>
      <point x="709.96" y="344.76" type="qcurve" smooth="yes"/>
      <point x="730.64" y="334.84"/>
      <point x="723.16" y="311.96"/>
      <point x="702.88" y="321.44" type="qcurve" smooth="yes"/>
      <point x="609.2" y="366.72"/>
      <point x="112.56" y="614.4"/>
    </contour>
  </outline>
</glyph>
<glyph name="greater" format="2">
  <advance width="812"/>
  <unicode hex="003E"/>
  <outline>
    <contour>
      <point x="109.52" y="343.4" type="qcurve" smooth="yes"/>
      <point x="176.16" y="375.04"/>
      <point x="603.0799999999999" y="601.76"/>
      <point x="666.0799999999999" y="629.04" type="qcurve"/>
      <point x="606.4" y="657.72"/>
      <point x="193.84" y="871.68"/>
      <point x="114.4" y="906.16" type="qcurve" smooth="yes"/>
      <point x="90.6" y="917.12"/>
      <point x="99.12" y="940.52"/>
      <point x="121.47999999999999" y="930.0" type="qcurve" smooth="yes"/>
      <point x="205.8" y="892.52"/>
      <point x="698.8" y="652.64"/>
      <point x="726.12" y="636.2" type="qcurve"/>
      <point x="701.72" y="619.68"/>
      <point x="186.36" y="359.52"/>
      <point x="118.6" y="324.8" type="qcurve" smooth="yes"/>
      <point x="89.67999999999999" y="311.96"/>
      <point x="83.08" y="332.04"/>
    </contour>
  </outline>
</glyph>
<glyph name="B" format="2">
  <advance width="1188"/>
  <unicode hex="0042"/>
  <outline>
    <contour>
      <point x="66.12" y="0.0" type="line"/>
      <point x="66.12" y="15.92" type="line"/>
      <point x="246.24" y="49.92" type="line"/>
      <point x="248.24" y="760.0" type="line"/>
      <point x="246.24" y="1447.12" type="line"/>
      <point x="66.12" y="1481.12" type="line"/>
      <point x="66.12" y="1500.0" type="line"/>
      <point x="539.44" y="1500.0" type="line" smooth="yes"/>
      <point x="790.96" y="1500.0"/>
      <point x="1013.04" y="1332.84"/>
      <point x="1013.04" y="1188.88" type="qcurve" smooth="yes"/>
      <point x="1013.04" y="1051.6"/>
      <point x="854.3199999999999" y="874.72"/>
      <point x="740.3199999999999" y="853.0" type="qcurve"/>
      <point x="740.3199999999999" y="848.0" type="line"/>
      <point x="890.12" y="839.68"/>
      <point x="1128.4" y="640.96"/>
      <point x="1128.88" y="459.32" type="qcurve" smooth="yes"/>
      <point x="1129.3600000000001" y="249.6"/>
      <point x="851.64" y="0.0"/>
      <point x="595.76" y="0.0" type="qcurve" smooth="yes"/>
    </contour>
    <contour>
      <point x="304.6" y="36.0" type="line"/>
      <point x="321.24" y="24.36" type="line"/>
      <point x="620.76" y="22.36" type="line" smooth="yes"/>
      <point x="821.48" y="20.84"/>
      <point x="1059.48" y="217.0"/>
      <point x="1059.48" y="449.0" type="qcurve" smooth="yes"/>
      <point x="1059.48" y="652.0"/>
      <point x="829.0" y="836.0"/>
      <point x="648.96" y="836.0" type="qcurve" smooth="yes"/>
      <point x="301.52" y="836.0" type="line"/>
      <point x="300.6" y="827.0" type="line"/>
    </contour>
    <contour>
      <point x="302.12" y="866.0" type="line"/>
      <point x="301.03999999999996" y="852.0" type="line"/>
      <point x="630.04" y="852.0" type="line" smooth="yes"/>
      <point x="782.56" y="852.0"/>
      <point x="942.48" y="1040.0"/>
      <point x="942.48" y="1188.0" type="qcurve" smooth="yes"/>
      <point x="942.48" y="1338.08"/>
      <point x="762.5999999999999" y="1477.96"/>
      <point x="558.0799999999999" y="1477.96" type="qcurve" smooth="yes"/>
      <point x="330.48" y="1477.96" type="line"/>
      <point x="304.6" y="1454.52" type="line"/>
    </contour>
  </outline>
</glyph>
<glyph name="E" format="2">
  <advance width="1193"/>
  <unicode hex="0045"/>
  <outline>
    <contour>
      <point x="66.12" y="0.0" type="line"/>
      <point x="66.12" y="15.92" type="line"/>
      <point x="246.76" y="46.92" type="line"/>
      <point x="248.76" y="756.0" type="line"/>
      <point x="246.76" y="1450.12" type="line"/>
      <point x="66.12" y="1483.64" type="line"/>
      <point x="66.12" y="1500.0" type="line"/>
      <point x="1039.96" y="1500.0" type="line"/>
      <point x="1049.56" y="1148.2" type="line"/>
      <point x="1032.24" y="1148.2" type="line"/>
      <point x="948.36" y="1482.0" type="line"/>
      <point x="343.88" y="1482.0" type="line"/>
      <point x="305.6" y="1458.0" type="line"/>
      <point x="303.12" y="787.0" type="line"/>
      <point x="305.6" y="50.36" type="line"/>
      <point x="347.36" y="20.36" type="line"/>
      <point x="1005.88" y="20.36" type="line"/>
      <point x="1119.6399999999999" y="396.6" type="line"/>
      <point x="1134.96" y="396.6" type="line"/>
      <point x="1091.1599999999999" y="0.0" type="line"/>
    </contour>
    <contour>
      <point x="291.15999999999997" y="774.68" type="line"/>
      <point x="290.68" y="792.84" type="line"/>
      <point x="835.3199999999999" y="797.44" type="line"/>
      <point x="898.4" y="1006.0" type="line"/>
      <point x="909.4" y="1006.0" type="line"/>
      <point x="909.4" y="563.0" type="line"/>
      <point x="898.4" y="563.0" type="line"/>
      <point x="835.3199999999999" y="775.56" type="line"/>
    </contour>
  </outline>
</glyph>
<glyph name="F" format="2">
  <advance width="1031"/>
  <unicode hex="0046"/>
  <outline>
    <contour>
      <point x="66.12" y="0.0" type="line"/>
      <point x="66.12" y="15.92" type="line"/>
      <point x="246.76" y="48.92" type="line"/>
      <point x="248.76" y="766.88" type="line"/>
      <point x="246.76" y="1447.12" type="line"/>
      <point x="66.12" y="1480.64" type="line"/>
      <point x="66.12" y="1500.0" type="line"/>
      <point x="999.04" y="1500.0" type="line"/>
      <point x="999.04" y="1138.2" type="line"/>
      <point x="985.2" y="1138.2" type="line"/>
      <point x="906.88" y="1479.56" type="line"/>
      <point x="320.88" y="1481.0" type="line"/>
      <point x="301.08" y="1442.0" type="line"/>
      <point x="302.6" y="815.0" type="line"/>
      <point x="304.6" y="53.4" type="line"/>
      <point x="492.68" y="15.92" type="line"/>
      <point x="492.68" y="0.0" type="line"/>
    </contour>
    <contour>
      <point x="285.6" y="777.6" type="line"/>
      <point x="285.6" y="799.4" type="line"/>
      <point x="818.6800000000001" y="797.44" type="line"/>
      <point x="881.88" y="996.0" type="line"/>
      <point x="895.92" y="996.0" type="line"/>
      <point x="895.92" y="540.0" type="line"/>
      <point x="881.88" y="540.0" type="line"/>
      <point x="818.6800000000001" y="771.56" type="line"/>
    </contour>
  </outline>
</glyph>
<glyph name="H" format="2">
  <advance width="1449"/>
  <unicode hex="0048"/>
  <outline>
    <contour>
      <point x="66.12" y="0.0" type="line"/>
      <point x="66.12" y="15.92" type="line"/>
      <point x="246.24" y="50.92" type="line"/>
      <point x="248.24" y="785.0" type="line"/>
      <point x="246.24" y="1447.912" type="line"/>
      <point x="66.12" y="1483.12" type="line"/>
      <point x="66.12" y="1500.0" type="line"/>
      <point x="489.6" y="1500.0" type="line"/>
      <point x="489.6" y="1482.12" type="line"/>
      <point x="306.12" y="1447.912" type="line"/>
      <point x="304.12" y="785.0" type="line"/>
      <point x="306.12" y="50.92" type="line"/>
      <point x="489.6" y="15.92" type="line"/>
      <point x="489.6" y="0.0" type="line"/>
    </contour>
    <contour>
      <point x="280.15999999999997" y="772.04" type="line"/>
      <point x="280.15999999999997" y="801.44" type="line"/>
      <point x="709.64" y="798.44" type="line"/>
      <point x="1169.6" y="801.44" type="line"/>
      <point x="1169.6" y="771.52" type="line"/>
      <point x="709.64" y="774.04" type="line"/>
    </contour>
    <contour>
      <point x="959.4722580645162" y="0.0" type="line"/>
      <point x="959.4722580645162" y="15.92" type="line"/>
      <point x="1142.9522580645162" y="50.92" type="line"/>
      <point x="1145.12" y="789.0" type="line"/>
      <point x="1142.9522580645162" y="1447.912" type="line"/>
      <point x="959.3174193548388" y="1481.7199999999998" type="line"/>
      <point x="959.3174193548388" y="1500.0" type="line"/>
      <point x="1382.797419354839" y="1500.0" type="line"/>
      <point x="1382.797419354839" y="1481.7199999999998" type="line"/>
      <point x="1202.8322580645163" y="1447.912" type="line"/>
      <point x="1201.0" y="785.0" type="line"/>
      <point x="1202.8322580645163" y="50.92" type="line"/>
      <point x="1382.797419354839" y="15.92" type="line"/>
      <point x="1382.797419354839" y="0.0" type="line"/>
    </contour>
  </outline>
</glyph>
<glyph name="J" format="2">
  <advance width="571"/>
  <unicode hex="004A"/>
  <outline>
    <contour>
      <point x="6.199999999999999" y="8.16" type="qcurve"/>
      <point x="13.2" y="27.28" type="line"/>
      <point x="23.24" y="20.72"/>
      <point x="87.84" y="8.280000000000001"/>
      <point x="129.16" y="8.280000000000001" type="qcurve" smooth="yes"/>
      <point x="204.92" y="8.280000000000001"/>
      <point x="303.08" y="142.92"/>
      <point x="304.56" y="312.44" type="qcurve" smooth="yes"/>
      <point x="307.52" y="674.0" type="line"/>
      <point x="305.03999999999996" y="1447.12" type="line"/>
      <point x="94.32" y="1481.12" type="line"/>
      <point x="94.32" y="1500.0" type="line"/>
      <point x="567.6" y="1500.0" type="line"/>
      <point x="567.6" y="1481.12" type="line"/>
      <point x="364.36" y="1447.12" type="line"/>
      <point x="362.36" y="674.0" type="line"/>
      <point x="357.68" y="272.28" type="line" smooth="yes"/>
      <point x="356.12" y="138.8"/>
      <point x="232.51999999999998" y="-18.28"/>
      <point x="136.36" y="-18.28" type="qcurve" smooth="yes"/>
      <point x="81.88" y="-18.28"/>
      <point x="20.119999999999997" y="-0.3200000000000003"/>
    </contour>
  </outline>
</glyph>
<glyph name="K" format="2">
  <advance width="1180"/>
  <unicode hex="004B"/>
  <outline>
    <contour>
      <point x="66.12" y="0.0" type="line"/>
      <point x="66.12" y="15.92" type="line"/>
      <point x="246.24" y="50.92" type="line"/>
      <point x="248.24" y="754.0" type="line"/>
      <point x="246.24" y="1447.12" type="line"/>
      <point x="66.12" y="1481.12" type="line"/>
      <point x="66.12" y="1500.0" type="line"/>
      <point x="499.2" y="1500.0" type="line"/>
      <point x="499.2" y="1481.12" type="line"/>
      <point x="306.08" y="1447.12" type="line"/>
      <point x="302.64" y="754.0" type="line"/>
      <point x="306.08" y="50.92" type="line"/>
      <point x="489.6" y="15.92" type="line"/>
      <point x="489.6" y="0.0" type="line"/>
    </contour>
    <contour>
      <point x="279.03999999999996" y="566.28" type="line"/>
      <point x="277.56" y="593.12" type="line"/>
      <point x="996.12" y="1441.96" type="line"/>
      <point x="790.76" y="1481.12" type="line"/>
      <point x="790.76" y="1500.0" type="line"/>
      <point x="1233.56" y="1500.0" type="line"/>
      <point x="1233.56" y="1481.12" type="line"/>
      <point x="1024.76" y="1440.96" type="line"/>
      <point x="545.28" y="882.92" type="line"/>
      <point x="536.44" y="873.44" type="line"/>
    </contour>
    <contour>
      <point x="517.04" y="858.24" type="line"/>
      <point x="556.8" y="911.72" type="line"/>
      <point x="1106.92" y="49.44" type="line"/>
      <point x="1296.44" y="15.92" type="line"/>
      <point x="1296.44" y="0.0" type="line"/>
      <point x="852.64" y="0.0" type="line"/>
      <point x="852.64" y="15.92" type="line"/>
      <point x="1033.92" y="49.44" type="line"/>
    </contour>
  </outline>
</glyph>
<glyph name="L" format="2">
  <advance width="1034"/>
  <unicode hex="004C"/>
  <outline>
    <contour>
      <point x="66.12" y="0.0" type="line"/>
      <point x="66.12" y="15.92" type="line"/>
      <point x="246.76" y="53.44" type="line"/>
      <point x="248.24" y="754.0" type="line"/>
      <point x="246.24" y="1447.12" type="line"/>
      <point x="66.12" y="1480.64" type="line"/>
      <point x="66.12" y="1500.0" type="line"/>
      <point x="518.6800000000001" y="1500.0" type="line"/>
      <point x="518.6800000000001" y="1481.12" type="line"/>
      <point x="306.12" y="1447.12" type="line"/>
      <point x="304.12" y="754.0" type="line"/>
      <point x="304.12" y="46.84" type="line"/>
      <point x="345.0" y="25.36" type="line"/>
      <point x="907.48" y="25.36" type="line"/>
      <point x="1010.96" y="408.6" type="line"/>
      <point x="1029.52" y="408.6" type="line"/>
      <point x="991.8399999999999" y="0.0" type="line"/>
    </contour>
  </outline>
</glyph>
<glyph name="M" format="2">
  <advance width="1651"/>
  <unicode hex="004D"/>
  <outline>
    <contour>
      <point x="66.0" y="0.0" type="line"/>
      <point x="66.0" y="15.92" type="line"/>
      <point x="259.56" y="68.92" type="line"/>
      <point x="263.03999999999996" y="746.0" type="line"/>
      <point x="263.12" y="1442.28" type="line"/>
      <point x="64.19999999999999" y="1481.12" type="line"/>
      <point x="64.19999999999999" y="1500.0" type="line"/>
      <point x="322.64" y="1500.0" type="line"/>
      <point x="585.48" y="742.68" type="line"/>
      <point x="827.5999999999999" y="61.12" type="line"/>
      <point x="1085.32" y="770.64" type="line"/>
      <point x="1345.72" y="1499.04" type="line"/>
      <point x="1584.88" y="1500.0" type="line"/>
      <point x="1584.88" y="1480.6" type="line"/>
      <point x="1405.28" y="1442.28" type="line"/>
      <point x="1403.28" y="751.0" type="line"/>
      <point x="1405.28" y="50.92" type="line"/>
      <point x="1584.88" y="15.92" type="line"/>
      <point x="1584.88" y="0.0" type="line"/>
      <point x="1163.0" y="2.0" type="line"/>
      <point x="1163.0" y="17.92" type="line"/>
      <point x="1346.52" y="50.92" type="line"/>
      <point x="1347.48" y="750.0" type="line"/>
      <point x="1341.4" y="1394.2" type="line"/>
      <point x="1104.84" y="761.32" type="line"/>
      <point x="831.8399999999999" y="2.4" type="line"/>
      <point x="783.76" y="2.4" type="line"/>
      <point x="537.44" y="716.4" type="line"/>
      <point x="288.15999999999997" y="1409.6" type="line"/>
      <point x="284.68" y="743.0" type="line"/>
      <point x="282.68" y="68.92" type="line"/>
      <point x="470.48" y="17.92" type="line"/>
      <point x="470.48" y="2.0" type="line"/>
    </contour>
  </outline>
</glyph>
<glyph name="O" format="2">
  <advance width="1376"/>
  <unicode hex="004F"/>
  <outline>
    <contour>
      <point x="69.36" y="744.52" type="qcurve" smooth="yes"/>
      <point x="69.36" y="1077.68"/>
      <point x="421.09000000000003" y="1519.0"/>
      <point x="688.0593548387096" y="1519.0" type="qcurve" smooth="yes"/>
      <point x="959.9061290322581" y="1519.0"/>
      <point x="1306.88" y="1096.68"/>
      <point x="1306.88" y="760.88" type="qcurve" smooth="yes"/>
      <point x="1306.88" y="425.76"/>
      <point x="964.4309677419355" y="-21.32"/>
      <point x="690.7816129032258" y="-21.32" type="qcurve" smooth="yes"/>
      <point x="424.2945161290322" y="-21.32"/>
      <point x="69.36" y="409.28"/>
    </contour>
    <contour>
      <point x="138.16" y="781.92" type="qcurve" smooth="yes"/>
      <point x="138.16" y="412.28"/>
      <point x="451.48" y="-6.32"/>
      <point x="700.0167741935484" y="-6.4399999999999995" type="qcurve" smooth="yes"/>
      <point x="940.36" y="-6.32"/>
      <point x="1238.12" y="384.28"/>
      <point x="1238.12" y="753.32" type="qcurve" smooth="yes"/>
      <point x="1238.12" y="1104.72"/>
      <point x="934.8" y="1501.04"/>
      <point x="683.0167741935484" y="1501.04" type="qcurve" smooth="yes"/>
      <point x="449.52" y="1501.04"/>
      <point x="138.16" y="1149.12"/>
    </contour>
  </outline>
</glyph>
<glyph name="R" format="2">
  <advance width="1161"/>
  <unicode hex="0052"/>
  <outline>
    <contour>
      <point x="68.12" y="0.0" type="line"/>
      <point x="68.12" y="15.4" type="line"/>
      <point x="246.24" y="49.88" type="line"/>
      <point x="248.24" y="780.2" type="line"/>
      <point x="246.24" y="1449.12" type="line"/>
      <point x="66.12" y="1482.88" type="line"/>
      <point x="66.12" y="1500.0" type="line"/>
      <point x="589.48" y="1500.0" type="line" smooth="yes"/>
      <point x="776.3199999999999" y="1500.0"/>
      <point x="988.5999999999999" y="1309.28"/>
      <point x="988.5999999999999" y="1133.4" type="qcurve" smooth="yes"/>
      <point x="988.5999999999999" y="945.4"/>
      <point x="783.16" y="723.2"/>
      <point x="607.2" y="723.2" type="qcurve" smooth="yes"/>
      <point x="554.5999999999999" y="723.2"/>
      <point x="330.4" y="724.2"/>
      <point x="281.24" y="727.12" type="qcurve"/>
      <point x="281.24" y="744.56" type="line"/>
      <point x="583.2" y="744.56" type="line" smooth="yes"/>
      <point x="779.36" y="744.56"/>
      <point x="923.88" y="951.4"/>
      <point x="923.88" y="1130.4" type="qcurve" smooth="yes"/>
      <point x="923.88" y="1302.52"/>
      <point x="752.76" y="1478.04"/>
      <point x="575.84" y="1478.04" type="qcurve" smooth="yes"/>
      <point x="328.68" y="1478.04" type="line"/>
      <point x="304.12" y="1452.56" type="line"/>
      <point x="301.64" y="756.2" type="line"/>
      <point x="303.64" y="49.88" type="line"/>
      <point x="504.15999999999997" y="15.92" type="line"/>
      <point x="504.15999999999997" y="0.0" type="line"/>
    </contour>
    <contour>
      <point x="666.96" y="739.16" type="line"/>
      <point x="724.72" y="750.28" type="line"/>
      <point x="953.96" y="224.0" type="line" smooth="yes"/>
      <point x="1011.44" y="94.0"/>
      <point x="1075.2" y="30.48"/>
      <point x="1187.76" y="18.48" type="qcurve"/>
      <point x="1187.76" y="-0.52" type="line"/>
      <point x="1001.2" y="-0.52" type="line"/>
      <point x="984.28" y="17.2" type="line"/>
    </contour>
  </outline>
</glyph>
<glyph name="T" format="2">
  <advance width="1179"/>
  <unicode hex="0054"/>
  <outline>
    <contour>
      <point x="28.8" y="1174.0" type="line"/>
      <point x="28.8" y="1500.0" type="line"/>
      <point x="1150.6" y="1500.0" type="line"/>
      <point x="1150.6" y="1171.6" type="line"/>
      <point x="1136.24" y="1171.6" type="line"/>
      <point x="1058.44" y="1482.0" type="line"/>
      <point x="659.2" y="1482.0" type="line"/>
      <point x="623.92" y="1479.6" type="line"/>
      <point x="622.88" y="754.0" type="line"/>
      <point x="626.4" y="49.88" type="line"/>
      <point x="821.76" y="15.4" type="line"/>
      <point x="821.76" y="0.0" type="line"/>
      <point x="362.0" y="0.0" type="line"/>
      <point x="362.0" y="15.4" type="line"/>
      <point x="562.92" y="49.88" type="line"/>
      <point x="566.44" y="754.0" type="line"/>
      <point x="567.4" y="1477.6" type="line"/>
      <point x="527.2" y="1482.0" type="line"/>
      <point x="118.64" y="1482.0" type="line"/>
      <point x="43.239999999999995" y="1174.0" type="line"/>
    </contour>
  </outline>
</glyph>
<glyph name="V" format="2">
  <advance width="1318"/>
  <unicode hex="0056"/>
  <outline>
    <contour>
      <point x="-24.16" y="1482.68" type="line"/>
      <point x="-24.16" y="1500.0" type="line"/>
      <point x="450.2" y="1500.0" type="line"/>
      <point x="450.2" y="1482.68" type="line"/>
      <point x="240.36" y="1455.16" type="line"/>
      <point x="457.4" y="786.8" type="line"/>
      <point x="699.56" y="45.76" type="line"/>
      <point x="932.44" y="810.6" type="line"/>
      <point x="1113.36" y="1450.8" type="line"/>
      <point x="891.64" y="1482.68" type="line"/>
      <point x="891.64" y="1500.0" type="line"/>
      <point x="1353.56" y="1500.0" type="line"/>
      <point x="1354.04" y="1482.68" type="line"/>
      <point x="1145.44" y="1450.36" type="line"/>
      <point x="955.28" y="805.68" type="line"/>
      <point x="710.52" y="-5.0" type="line"/>
      <point x="654.0799999999999" y="-5.0" type="line"/>
      <point x="403.44" y="768.6" type="line"/>
      <point x="178.12" y="1453.16" type="line"/>
    </contour>
  </outline>
</glyph>
<glyph name="Y" format="2">
  <advance width="1256"/>
  <unicode hex="0059"/>
  <outline>
    <contour>
      <point x="-18.0" y="1483.12" type="line"/>
      <point x="-18.0" y="1500.0" type="line"/>
      <point x="451.6" y="1500.0" type="line"/>
      <point x="451.6" y="1483.12" type="line"/>
      <point x="246.2" y="1451.04" type="line"/>
      <point x="452.15999999999997" y="1066.12" type="line"/>
      <point x="652.68" y="668.12" type="line"/>
      <point x="857.56" y="1079.0" type="line"/>
      <point x="1044.52" y="1449.16" type="line"/>
      <point x="833.4" y="1483.12" type="line"/>
      <point x="833.4" y="1500.0" type="line"/>
      <point x="1280.76" y="1500.0" type="line"/>
      <point x="1280.76" y="1483.12" type="line"/>
      <point x="1076.36" y="1448.68" type="line"/>
      <point x="875.9200000000001" y="1067.2" type="line"/>
      <point x="668.0" y="643.64" type="line"/>
      <point x="668.0" y="50.92" type="line"/>
      <point x="865.4" y="17.92" type="line"/>
      <point x="865.4" y="0.0" type="line"/>
      <point x="411.68" y="0.0" type="line"/>
      <point x="411.68" y="17.92" type="line"/>
      <point x="609.52" y="50.92" type="line"/>
      <point x="610.56" y="634.04" type="line"/>
      <point x="405.64" y="1037.4" type="line"/>
      <point x="183.0" y="1447.12" type="line"/>
    </contour>
  </outline>
</glyph>
<glyph name="bracketleft" format="2">
  <advance width="552"/>
  <unicode hex="005B"/>
  <outline>
    <contour>
      <point x="114.0" y="709.0" type="line"/>
      <point x="140.0" y="1483.0" type="line"/>
      <point x="138.0" y="1497.0" type="line"/>
      <point x="138.0" y="1500.0" type="line"/>
      <point x="530.6" y="1500.0" type="line"/>
      <point x="530.6" y="1485.0" type="line"/>
      <point x="167.4" y="1475.2" type="line"/>
      <point x="185.4" y="709.0" type="line"/>
      <point x="167.4" y="-125.2" type="line"/>
      <point x="530.6" y="-135.0" type="line"/>
      <point x="530.6" y="-149.0" type="line"/>
      <point x="136.0" y="-149.0" type="line"/>
      <point x="136.0" y="-146.0" type="line"/>
      <point x="140.0" y="-132.0" type="line"/>
    </contour>
  </outline>
</glyph>
<glyph name="bracketright" format="2">
  <advance width="552"/>
  <unicode hex="005D"/>
  <outline>
    <contour>
      <point x="21.6" y="-150.0" type="line"/>
      <point x="21.6" y="-136.0" type="line"/>
      <point x="384.8" y="-126.2" type="line"/>
      <point x="366.8" y="709.0" type="line"/>
      <point x="384.8" y="1475.2" type="line"/>
      <point x="21.6" y="1485.0" type="line"/>
      <point x="21.6" y="1500.0" type="line"/>
      <point x="414.2" y="1500.0" type="line"/>
      <point x="414.2" y="1497.0" type="line"/>
      <point x="412.2" y="1483.0" type="line"/>
      <point x="438.2" y="709.0" type="line"/>
      <point x="412.2" y="-133.0" type="line"/>
      <point x="416.2" y="-147.0" type="line"/>
      <point x="416.2" y="-150.0" type="line"/>
    </contour>
  </outline>
</glyph>
<glyph name="underscore" format="2">
  <advance width="1135"/>
  <unicode hex="005F"/>
  <outline>
    <contour>
      <point x="-12.0" y="-553.92" type="line"/>
      <point x="-12.0" y="-511.53000000000003" type="line"/>
      <point x="570.44" y="-507.784" type="line"/>
      <point x="1147.48" y="-511.53000000000003" type="line"/>
      <point x="1147.48" y="-553.92" type="line"/>
      <point x="570.44" y="-553.76" type="line"/>
    </contour>
  </outline>
</glyph>
<glyph name="grave" format="2">
  <advance width="896"/>
  <unicode hex="0060"/>
  <outline>
    <contour>
      <point x="251.0" y="1205.0" type="qcurve" smooth="yes"/>
      <point x="251.0" y="1219.48"/>
      <point x="269.96" y="1241.88"/>
      <point x="286.88" y="1241.88" type="qcurve" smooth="yes"/>
      <point x="304.32" y="1241.88"/>
      <point x="330.84000000000003" y="1219.88"/>
      <point x="346.72" y="1204.96" type="qcurve" smooth="yes"/>
      <point x="580.76" y="990.96" type="line"/>
      <point x="573.72" y="981.92" type="line"/>
      <point x="307.76" y="1146.56" type="line" smooth="yes"/>
      <point x="288.76" y="1158.56"/>
      <point x="251.0" y="1186.56"/>
    </contour>
  </outline>
</glyph>
<glyph name="b" format="2">
  <advance width="1072"/>
  <unicode hex="0062"/>
  <outline>
    <contour>
      <point x="172.48" y="-0.96" type="line"/>
      <point x="171.44" y="478.48" type="line"/>
      <point x="174.32" y="1449.92" type="line"/>
      <point x="7.199999999999999" y="1483.0" type="line"/>
      <point x="7.199999999999999" y="1500.0" type="line"/>
      <point x="221.92" y="1502.0" type="line"/>
      <point x="230.07999999999998" y="1495.0" type="line"/>
      <point x="232.04" y="1476.24" type="line"/>
      <point x="223.72" y="762.68" type="line"/>
      <point x="267.24" y="830.16"/>
      <point x="470.56" y="941.32"/>
      <point x="601.48" y="941.32" type="qcurve" smooth="yes"/>
      <point x="773.36" y="941.32"/>
      <point x="1015.0799999999999" y="720.72"/>
      <point x="1015.0799999999999" y="485.0" type="qcurve" smooth="yes"/>
      <point x="1015.0799999999999" y="234.88"/>
      <point x="758.72" y="-15.959999999999999"/>
      <point x="554.3199999999999" y="-15.0" type="qcurve" smooth="yes"/>
      <point x="449.4" y="-14.52"/>
      <point x="279.36" y="55.76"/>
      <point x="222.04" y="114.84" type="qcurve"/>
      <point x="182.51999999999998" y="-0.96" type="line"/>
    </contour>
    <contour>
      <point x="227.32" y="391.76" type="line"/>
      <point x="228.28" y="138.28" type="line"/>
      <point x="274.48" y="82.08"/>
      <point x="455.96000000000004" y="2.92"/>
      <point x="561.28" y="2.92" type="qcurve" smooth="yes"/>
      <point x="750.12" y="2.92"/>
      <point x="955.8" y="239.52"/>
      <point x="955.8" y="473.0" type="qcurve" smooth="yes"/>
      <point x="955.8" y="694.24"/>
      <point x="762.88" y="920.12"/>
      <point x="597.88" y="920.12" type="qcurve" smooth="yes"/>
      <point x="477.52" y="920.12"/>
      <point x="272.32" y="814.68"/>
      <point x="224.28" y="742.64" type="qcurve"/>
    </contour>
  </outline>
</glyph>
<glyph name="c" format="2">
  <advance width="908"/>
  <unicode hex="0063"/>
  <outline>
    <contour>
      <point x="57.2" y="451.44" type="qcurve" smooth="yes"/>
      <point x="57.2" y="691.72"/>
      <point x="324.48" y="942.84"/>
      <point x="499.03999999999996" y="942.84" type="qcurve" smooth="yes"/>
      <point x="620.0" y="942.84"/>
      <point x="773.2" y="874.72"/>
      <point x="811.3199999999999" y="831.56" type="qcurve"/>
      <point x="854.8" y="940.12" type="line"/>
      <point x="865.12" y="940.12" type="line"/>
      <point x="865.12" y="628.44" type="line"/>
      <point x="850.88" y="628.44" type="line"/>
      <point x="823.6800000000001" y="749.04" type="line" smooth="yes"/>
      <point x="805.88" y="828.56"/>
      <point x="617.4" y="924.92"/>
      <point x="496.24" y="924.92" type="qcurve" smooth="yes"/>
      <point x="331.44" y="924.92"/>
      <point x="118.96000000000001" y="685.6"/>
      <point x="118.96000000000001" y="459.4" type="qcurve" smooth="yes"/>
      <point x="118.96000000000001" y="238.72"/>
      <point x="332.12" y="7.359999999999999"/>
      <point x="518.88" y="7.359999999999999" type="qcurve" smooth="yes"/>
      <point x="648.04" y="7.359999999999999"/>
      <point x="857.92" y="123.2"/>
      <point x="901.28" y="216.88" type="qcurve"/>
      <point x="912.72" y="210.6" type="line"/>
      <point x="875.28" y="117.12"/>
      <point x="653.72" y="-22.2"/>
      <point x="505.91999999999996" y="-22.2" type="qcurve" smooth="yes"/>
      <point x="321.96" y="-22.2"/>
      <point x="57.2" y="219.6"/>
    </contour>
  </outline>
</glyph>
<glyph name="d" format="2">
  <advance width="1060"/>
  <unicode hex="0064"/>
  <outline>
    <contour>
      <point x="57.2" y="458.2" type="qcurve" smooth="yes"/>
      <point x="57.2" y="703.16"/>
      <point x="326.92" y="941.76"/>
      <point x="522.44" y="941.76" type="qcurve" smooth="yes"/>
      <point x="615.6" y="941.76"/>
      <point x="789.8399999999999" y="869.48"/>
      <point x="826.48" y="829.64" type="qcurve"/>
      <point x="826.28" y="1450.92" type="line"/>
      <point x="631.12" y="1483.0" type="line"/>
      <point x="631.12" y="1500.0" type="line"/>
      <point x="867.4" y="1503.0" type="line"/>
      <point x="879.6800000000001" y="1497.0" type="line"/>
      <point x="884.16" y="1471.04" type="line"/>
      <point x="881.2" y="526.0" type="line"/>
      <point x="882.64" y="41.92" type="line"/>
      <point x="1034.3600000000001" y="14.92" type="line"/>
      <point x="1034.3600000000001" y="0.0" type="line"/>
      <point x="829.88" y="0.0" type="line"/>
      <point x="823.8" y="10.48" type="line"/>
      <point x="822.36" y="98.88" type="line"/>
      <point x="787.72" y="67.2"/>
      <point x="604.0" y="-15.32"/>
      <point x="489.28" y="-15.32" type="qcurve" smooth="yes"/>
      <point x="304.32" y="-15.32"/>
      <point x="57.2" y="216.2"/>
    </contour>
    <contour>
      <point x="116.92" y="456.48" type="qcurve" smooth="yes"/>
      <point x="116.92" y="226.0"/>
      <point x="314.48" y="3.2"/>
      <point x="490.96" y="3.2" type="qcurve" smooth="yes"/>
      <point x="605.6" y="3.2"/>
      <point x="784.0" y="79.48"/>
      <point x="821.88" y="116.6" type="qcurve"/>
      <point x="824.92" y="519.6" type="line"/>
      <point x="825.96" y="805.0" type="line"/>
      <point x="791.3199999999999" y="846.88"/>
      <point x="611.0" y="921.2"/>
      <point x="514.28" y="921.2" type="qcurve" smooth="yes"/>
      <point x="333.44" y="921.2"/>
      <point x="116.92" y="683.8"/>
    </contour>
  </outline>
</glyph>
<glyph name="g" format="2">
  <advance width="903"/>
  <unicode hex="0067"/>
  <outline>
    <contour>
      <point x="39.519999999999996" y="-229.84" type="qcurve" smooth="yes"/>
      <point x="39.519999999999996" y="-152.84"/>
      <point x="189.07999999999998" y="16.96"/>
      <point x="328.8" y="64.52" type="qcurve"/>
      <point x="351.84000000000003" y="57.48" type="line"/>
      <point x="200.28" y="0.6400000000000001"/>
      <point x="87.6" y="-150.84"/>
      <point x="87.6" y="-232.84" type="qcurve" smooth="yes"/>
      <point x="87.6" y="-332.64"/>
      <point x="304.68" y="-461.8"/>
      <point x="484.32" y="-461.8" type="qcurve" smooth="yes"/>
      <point x="682.76" y="-461.8"/>
      <point x="871.3199999999999" y="-307.16"/>
      <point x="871.3199999999999" y="-212.0" type="qcurve" smooth="yes"/>
      <point x="871.3199999999999" y="-128.12"/>
      <point x="708.88" y="-28.92"/>
      <point x="492.96" y="9.08" type="qcurve" smooth="yes"/>
      <point x="287.28" y="46.12"/>
      <point x="132.6" y="116.88"/>
      <point x="132.6" y="174.76" type="qcurve" smooth="yes"/>
      <point x="132.6" y="216.96"/>
      <point x="205.07999999999998" y="278.36"/>
      <point x="296.12" y="308.48" type="qcurve"/>
      <point x="310.92" y="298.04" type="line"/>
      <point x="237.12" y="271.56"/>
      <point x="183.48000000000002" y="219.96"/>
      <point x="183.48000000000002" y="186.2" type="qcurve" smooth="yes"/>
      <point x="183.48000000000002" y="148.36"/>
      <point x="303.48" y="107.68"/>
      <point x="511.48" y="66.64" type="qcurve" smooth="yes"/>
      <point x="722.48" y="25.08"/>
      <point x="907.88" y="-86.52"/>
      <point x="907.88" y="-197.84" type="qcurve" smooth="yes"/>
      <point x="907.88" y="-314.08"/>
      <point x="692.72" y="-482.0"/>
      <point x="483.48" y="-482.0" type="qcurve" smooth="yes"/>
      <point x="288.52" y="-482.0"/>
      <point x="39.519999999999996" y="-338.52"/>
    </contour>
    <contour>
      <point x="101.64" y="583.88" type="qcurve" smooth="yes"/>
      <point x="101.64" y="729.2"/>
      <point x="293.72" y="944.76"/>
      <point x="456.15999999999997" y="944.76" type="qcurve" smooth="yes"/>
      <point x="619.0799999999999" y="944.76"/>
      <point x="819.0" y="766.2"/>
      <point x="819.0" y="612.88" type="qcurve" smooth="yes"/>
      <point x="821.0" y="469.8"/>
      <point x="620.64" y="267.32"/>
      <point x="458.68" y="267.32" type="qcurve" smooth="yes"/>
      <point x="297.15999999999997" y="267.32"/>
      <point x="101.64" y="456.8"/>
    </contour>
    <contour>
      <point x="163.92000000000002" y="592.08" type="qcurve" smooth="yes"/>
      <point x="163.92000000000002" y="472.0"/>
      <point x="322.32" y="281.8"/>
      <point x="466.24" y="281.8" type="qcurve" smooth="yes"/>
      <point x="593.36" y="281.8"/>
      <point x="757.8" y="482.8"/>
      <point x="757.8" y="618.88" type="qcurve" smooth="yes"/>
      <point x="757.8" y="761.2"/>
      <point x="595.92" y="929.2"/>
      <point x="452.12" y="929.2" type="qcurve" smooth="yes"/>
      <point x="313.52" y="929.2"/>
      <point x="163.92000000000002" y="728.48"/>
    </contour>
    <contour>
      <point x="667.52" y="879.24" type="line"/>
      <point x="659.36" y="890.08" type="line"/>
      <point x="930.12" y="920.0" type="line"/>
      <point x="930.12" y="881.0" type="line"/>
    </contour>
  </outline>
</glyph>
<glyph name="i" format="2">
  <advance width="474"/>
  <unicode hex="0069"/>
  <outline>
    <contour>
      <point x="72.36" y="0.0" type="line"/>
      <point x="72.36" y="16.92" type="line"/>
      <point x="221.0" y="41.92" type="line"/>
      <point x="223.48" y="472.2" type="line"/>
      <point x="218.88" y="872.0" type="line"/>
      <point x="56.56" y="897.08" type="line"/>
      <point x="56.56" y="910.48" type="line"/>
      <point x="249.28" y="926.96" type="line"/>
      <point x="258.64" y="926.96" type="line"/>
      <point x="276.84000000000003" y="896.6" type="line"/>
      <point x="273.84000000000003" y="472.2" type="line"/>
      <point x="279.84000000000003" y="41.92" type="line"/>
      <point x="437.03999999999996" y="16.92" type="line"/>
      <point x="437.03999999999996" y="0.0" type="line"/>
    </contour>
    <contour>
      <point x="211.12" y="1235.76" type="qcurve" smooth="yes"/>
      <point x="211.12" y="1256.64"/>
      <point x="235.48" y="1284.0"/>
      <point x="253.36" y="1284.0" type="qcurve" smooth="yes"/>
      <point x="271.24" y="1284.0"/>
      <point x="296.6" y="1258.64"/>
      <point x="296.6" y="1235.76" type="qcurve" smooth="yes"/>
      <point x="296.6" y="1214.88"/>
      <point x="269.24" y="1187.0"/>
      <point x="253.36" y="1187.0" type="qcurve" smooth="yes"/>
      <point x="233.48" y="1187.0"/>
      <point x="211.12" y="1212.36"/>
    </contour>
  </outline>
</glyph>
<glyph name="k" format="2">
  <advance width="905"/>
  <unicode hex="006B"/>
  <outline>
    <contour>
      <point x="71.52" y="0.0" type="line"/>
      <point x="71.52" y="14.44" type="line"/>
      <point x="213.48" y="42.44" type="line"/>
      <point x="215.48" y="473.64" type="line"/>
      <point x="206.95999999999998" y="1448.92" type="line"/>
      <point x="57.12" y="1483.0" type="line"/>
      <point x="57.12" y="1500.0" type="line"/>
      <point x="255.28" y="1498.56" type="line"/>
      <point x="266.28" y="1492.08" type="line"/>
      <point x="270.32" y="1467.12" type="line"/>
      <point x="266.84000000000003" y="518.8" type="line"/>
      <point x="272.84000000000003" y="41.96" type="line"/>
      <point x="432.2" y="14.96" type="line"/>
      <point x="432.2" y="0.0" type="line"/>
    </contour>
    <contour>
      <point x="251.72" y="411.92" type="line"/>
      <point x="250.84" y="435.52" type="line"/>
      <point x="705.96" y="876.8" type="line"/>
      <point x="572.48" y="906.0" type="line"/>
      <point x="572.48" y="920.0" type="line"/>
      <point x="876.56" y="920.0" type="line"/>
      <point x="876.56" y="908.0" type="line"/>
      <point x="731.56" y="873.8" type="line"/>
    </contour>
    <contour>
      <point x="419.88" y="581.84" type="line"/>
      <point x="458.56" y="628.28" type="line"/>
      <point x="819.24" y="40.32" type="line"/>
      <point x="938.6800000000001" y="17.36" type="line"/>
      <point x="938.6800000000001" y="0.0" type="line"/>
      <point x="654.5999999999999" y="0.0" type="line"/>
      <point x="653.5999999999999" y="15.44" type="line"/>
      <point x="756.52" y="38.0" type="line"/>
    </contour>
  </outline>
</glyph>
<glyph name="l" format="2">
  <advance width="482"/>
  <unicode hex="006C"/>
  <outline>
    <contour>
      <point x="67.84" y="0.0" type="line"/>
      <point x="67.84" y="16.64" type="line"/>
      <point x="221.32" y="41.92" type="line"/>
      <point x="224.84" y="527.0" type="line"/>
      <point x="216.28" y="1449.96" type="line"/>
      <point x="58.76" y="1482.96" type="line"/>
      <point x="58.76" y="1500.0" type="line"/>
      <point x="264.12" y="1498.56" type="line"/>
      <point x="274.56" y="1491.6" type="line"/>
      <point x="278.64" y="1468.68" type="line"/>
      <point x="276.15999999999997" y="527.0" type="line"/>
      <point x="281.68" y="41.92" type="line"/>
      <point x="440.0" y="16.88" type="line"/>
      <point x="440.0" y="0.0" type="line"/>
    </contour>
  </outline>
</glyph>
<glyph name="o" format="2">
  <advance width="1028"/>
  <unicode hex="006F"/>
  <outline>
    <contour>
      <point x="57.2" y="460.0" type="qcurve" smooth="yes"/>
      <point x="57.2" y="693.2"/>
      <point x="333.08" y="944.76"/>
      <point x="513.92" y="944.76" type="qcurve" smooth="yes"/>
      <point x="699.24" y="944.76"/>
      <point x="970.96" y="699.56"/>
      <point x="970.96" y="466.0" type="qcurve" smooth="yes"/>
      <point x="970.96" y="225.8"/>
      <point x="693.08" y="-21.72"/>
      <point x="515.76" y="-21.72" type="qcurve" smooth="yes"/>
      <point x="339.44" y="-21.72"/>
      <point x="57.2" y="227.8"/>
    </contour>
    <contour>
      <point x="118.48" y="463.0" type="qcurve" smooth="yes"/>
      <point x="118.96000000000001" y="237.8"/>
      <point x="334.12" y="-7.24"/>
      <point x="513.36" y="-7.24" type="qcurve" smooth="yes"/>
      <point x="693.9200000000001" y="-7.24"/>
      <point x="911.16" y="232.8"/>
      <point x="911.16" y="461.0" type="qcurve" smooth="yes"/>
      <point x="911.16" y="689.2"/>
      <point x="695.5999999999999" y="926.28"/>
      <point x="514.8" y="928.28" type="qcurve" smooth="yes"/>
      <point x="332.28" y="930.28"/>
      <point x="118.48" y="688.2"/>
    </contour>
  </outline>
</glyph>
<glyph name="p" format="2">
  <advance width="1101"/>
  <unicode hex="0070"/>
  <outline>
    <contour>
      <point x="53.08" y="-460.0" type="line"/>
      <point x="53.08" y="-448.0" type="line"/>
      <point x="205.32" y="-420.0" type="line"/>
      <point x="207.8" y="389.0" type="line"/>
      <point x="204.24" y="868.52" type="line"/>
      <point x="44.56" y="894.0" type="line"/>
      <point x="44.56" y="909.0" type="line"/>
      <point x="249.44" y="923.0" type="line"/>
      <point x="258.12" y="921.52" type="line"/>
      <point x="257.15999999999997" y="779.08" type="line"/>
      <point x="300.15999999999997" y="837.84"/>
      <point x="490.12" y="939.92"/>
      <point x="630.12" y="939.92" type="qcurve" smooth="yes"/>
      <point x="798.0799999999999" y="939.92"/>
      <point x="1044.1599999999999" y="716.28"/>
      <point x="1044.1599999999999" y="483.08" type="qcurve" smooth="yes"/>
      <point x="1044.1599999999999" y="243.0"/>
      <point x="783.48" y="-10.2"/>
      <point x="574.28" y="-10.2" type="qcurve" smooth="yes"/>
      <point x="474.6" y="-10.2"/>
      <point x="307.92" y="48.64"/>
      <point x="262.72" y="82.96" type="qcurve"/>
      <point x="266.64" y="-420.0" type="line"/>
      <point x="444.96" y="-448.0" type="line"/>
      <point x="444.96" y="-460.0" type="line"/>
    </contour>
    <contour>
      <point x="262.68" y="118.16" type="line"/>
      <point x="305.96" y="70.48"/>
      <point x="487.56" y="7.720000000000001"/>
      <point x="591.28" y="7.720000000000001" type="qcurve" smooth="yes"/>
      <point x="769.2" y="7.720000000000001"/>
      <point x="982.96" y="234.28"/>
      <point x="982.96" y="474.44" type="qcurve" smooth="yes"/>
      <point x="982.96" y="705.16"/>
      <point x="781.8399999999999" y="912.92"/>
      <point x="614.6" y="912.92" type="qcurve" smooth="yes"/>
      <point x="496.52" y="912.92"/>
      <point x="304.68" y="808.92"/>
      <point x="257.15999999999997" y="758.0" type="qcurve"/>
      <point x="259.68" y="395.36" type="line"/>
    </contour>
  </outline>
</glyph>
<glyph name="r" format="2">
  <advance width="727"/>
  <unicode hex="0072"/>
  <anchor x="248.04" y="2.0" name="bottom"/>
  <outline>
    <contour>
      <point x="71.52" y="0.0" type="line"/>
      <point x="71.52" y="14.68" type="line"/>
      <point x="213.95999999999998" y="41.92" type="line"/>
      <point x="215.0" y="469.0" type="line"/>
      <point x="210.95999999999998" y="868.76" type="line"/>
      <point x="52.72" y="893.76" type="line"/>
      <point x="52.72" y="909.96" type="line"/>
      <point x="254.2" y="923.0" type="line"/>
      <point x="267.24" y="922.0" type="line"/>
      <point x="264.28" y="711.2" type="line"/>
      <point x="315.68" y="810.8"/>
      <point x="529.68" y="931.0"/>
      <point x="663.28" y="931.0" type="qcurve" smooth="yes"/>
      <point x="713.44" y="931.0" type="line"/>
      <point x="714.52" y="690.0" type="line"/>
      <point x="701.5999999999999" y="690.0" type="line"/>
      <point x="647.84" y="887.8" type="line"/>
      <point x="507.84000000000003" y="891.16"/>
      <point x="305.15999999999997" y="767.08"/>
      <point x="265.8" y="679.64" type="qcurve"/>
      <point x="266.84000000000003" y="486.68" type="line"/>
      <point x="271.8" y="41.92" type="line"/>
      <point x="434.76" y="14.92" type="line"/>
      <point x="434.76" y="0.0" type="line"/>
    </contour>
  </outline>
</glyph>
<glyph name="u" format="2">
  <advance width="1176"/>
  <unicode hex="0075"/>
  <outline>
    <contour>
      <point x="46.48" y="896.04" type="line"/>
      <point x="46.48" y="909.96" type="line"/>
      <point x="237.92000000000002" y="923.0" type="line"/>
      <point x="260.0" y="922.48" type="line"/>
      <point x="260.0" y="893.08" type="line"/>
      <point x="260.6" y="497.4" type="line"/>
      <point x="261.64" y="316.36" type="line" smooth="yes"/>
      <point x="262.15999999999997" y="151.0"/>
      <point x="421.03999999999996" y="17.880000000000003"/>
      <point x="544.16" y="17.880000000000003" type="qcurve" smooth="yes"/>
      <point x="652.52" y="17.880000000000003"/>
      <point x="864.48" y="118.4"/>
      <point x="913.0799999999999" y="189.72" type="qcurve"/>
      <point x="915.0" y="464.44" type="line"/>
      <point x="912.52" y="875.56" type="line"/>
      <point x="752.56" y="896.52" type="line"/>
      <point x="752.56" y="909.96" type="line"/>
      <point x="939.52" y="923.0" type="line"/>
      <point x="956.24" y="917.0" type="line"/>
      <point x="968.4" y="890.0" type="line"/>
      <point x="965.92" y="464.44" type="line"/>
      <point x="969.36" y="41.92" type="line"/>
      <point x="1138.68" y="21.32" type="line"/>
      <point x="1138.68" y="9.44" type="line"/>
      <point x="934.6800000000001" y="-1.92" type="line"/>
      <point x="917.48" y="16.44" type="line"/>
      <point x="914.5999999999999" y="164.08" type="line"/>
      <point x="862.96" y="94.72"/>
      <point x="654.4" y="-10.36"/>
      <point x="525.28" y="-10.36" type="qcurve" smooth="yes"/>
      <point x="386.24" y="-10.36"/>
      <point x="207.24" y="136.72"/>
      <point x="207.24" y="270.2" type="qcurve" smooth="yes"/>
      <point x="207.24" y="349.96"/>
      <point x="209.24" y="457.6"/>
      <point x="209.24" y="487.0" type="qcurve" smooth="yes"/>
      <point x="205.2" y="869.0" type="line"/>
    </contour>
  </outline>
</glyph>
<glyph name="v" format="2">
  <advance width="987"/>
  <unicode hex="0076"/>
  <outline>
    <contour>
      <point x="-25.0" y="906.0" type="line"/>
      <point x="-25.0" y="920.0" type="line"/>
      <point x="356.88" y="920.0" type="line"/>
      <point x="356.88" y="906.0" type="line"/>
      <point x="191.72" y="883.0" type="line"/>
      <point x="333.48" y="503.96" type="line"/>
      <point x="519.0" y="35.28" type="line"/>
      <point x="703.64" y="514.88" type="line"/>
      <point x="838.9200000000001" y="876.0" type="line"/>
      <point x="660.2" y="906.0" type="line"/>
      <point x="660.2" y="920.0" type="line"/>
      <point x="1022.48" y="920.0" type="line"/>
      <point x="1022.48" y="906.0" type="line"/>
      <point x="858.2" y="876.0" type="line"/>
      <point x="720.0" y="509.0" type="line"/>
      <point x="526.24" y="-5.0" type="line"/>
      <point x="473.32" y="-5.0" type="line"/>
      <point x="282.2" y="488.08" type="line"/>
      <point x="131.56" y="882.0" type="line"/>
    </contour>
  </outline>
</glyph>
<glyph name="braceright" format="2">
  <advance width="572"/>
  <unicode hex="007D"/>
  <outline>
    <contour>
      <point x="29.6" y="-111.6" type="qcurve"/>
      <point x="29.6" y="-94.6" type="line"/>
      <point x="65.05000000000001" y="-97.63000000000001"/>
      <point x="146.59" y="-99.55000000000001"/>
      <point x="181.60000000000002" y="-99.55000000000001" type="qcurve" smooth="yes"/>
      <point x="306.9" y="-99.55000000000001"/>
      <point x="395.4" y="39.6"/>
      <point x="395.4" y="122.6" type="qcurve" smooth="yes"/>
      <point x="395.4" y="264.0"/>
      <point x="215.4" y="565.6"/>
      <point x="215.4" y="650.6" type="qcurve" smooth="yes"/>
      <point x="215.4" y="710.8"/>
      <point x="271.44" y="744.16"/>
      <point x="352.92" y="746.24" type="qcurve"/>
      <point x="288.56" y="761.68"/>
      <point x="213.4" y="820.6"/>
      <point x="213.4" y="905.6" type="qcurve" smooth="yes"/>
      <point x="213.4" y="971.6"/>
      <point x="301.88" y="1158.0"/>
      <point x="301.88" y="1270.4" type="qcurve" smooth="yes"/>
      <point x="301.88" y="1375.2"/>
      <point x="213.32" y="1486.7839999999999"/>
      <point x="102.448" y="1486.7839999999999" type="qcurve" smooth="yes"/>
      <point x="84.312" y="1486.7839999999999"/>
      <point x="41.816" y="1483.344"/>
      <point x="25.6" y="1481.04" type="qcurve"/>
      <point x="25.6" y="1498.56" type="line"/>
      <point x="46.28" y="1502.52"/>
      <point x="101.8" y="1510.0"/>
      <point x="124.24" y="1510.0" type="qcurve" smooth="yes"/>
      <point x="237.2" y="1510.0"/>
      <point x="357.48" y="1371.2"/>
      <point x="357.48" y="1266.2" type="qcurve" smooth="yes"/>
      <point x="357.48" y="1170.4"/>
      <point x="244.04" y="969.12"/>
      <point x="244.04" y="889.12" type="qcurve" smooth="yes"/>
      <point x="244.04" y="819.12"/>
      <point x="351.4" y="761.4"/>
      <point x="437.4" y="763.8" type="qcurve" smooth="yes"/>
      <point x="534.0" y="762.36" type="line"/>
      <point x="534.0" y="736.2" type="line"/>
      <point x="280.0" y="721.12" type="line"/>
      <point x="253.0" y="699.6" type="line"/>
      <point x="253.0" y="564.6"/>
      <point x="449.0" y="244.8"/>
      <point x="450.0" y="141.8" type="qcurve" smooth="yes"/>
      <point x="451.0" y="14.8"/>
      <point x="299.4" y="-125.0"/>
      <point x="191.48" y="-125.0" type="qcurve"/>
      <point x="165.8" y="-125.0"/>
      <point x="61.6" y="-119.6"/>
    </contour>
  </outline>
</glyph>
<glyph name="asciitilde" format="2">
  <advance width="680"/>
  <unicode hex="007E"/>
  <outline>
    <contour>
      <point x="83.92" y="561.0" type="line"/>
      <point x="118.08" y="643.76"/>
      <point x="189.36" y="728.64"/>
      <point x="243.32" y="733.44" type="qcurve"/>
      <point x="481.44" y="645.0" type="line"/>
      <point x="524.08" y="645.0"/>
      <point x="594.6800000000001" y="694.92"/>
      <point x="636.76" y="776.16" type="qcurve"/>
      <point x="647.16" y="771.8" type="line"/>
      <point x="621.6800000000001" y="701.56"/>
      <point x="543.24" y="594.12"/>
      <point x="495.15999999999997" y="581.56" type="qcurve"/>
      <point x="258.2" y="669.08" type="line"/>
      <point x="211.76" y="669.56"/>
      <point x="134.68" y="620.2"/>
      <point x="93.2" y="554.24" type="qcurve"/>
    </contour>
  </outline>
</glyph>
<glyph name="yen" format="2">
  <advance width="1187"/>
  <unicode hex="00A5"/>
  <outline>
    <contour>
      <point x="243.12" y="639.28" type="line"/>
      <point x="242.12" y="658.8" type="line"/>
      <point x="953.52" y="658.8" type="line"/>
      <point x="951.52" y="639.28" type="line"/>
    </contour>
    <contour>
      <point x="568.8" y="613.4" type="line"/>
      <point x="377.32" y="1029.72" type="line"/>
      <point x="170.51999999999998" y="1456.72" type="line"/>
      <point x="-31.439999999999998" y="1487.92" type="line"/>
      <point x="-31.439999999999998" y="1500.0" type="line"/>
      <point x="436.72" y="1500.0" type="line"/>
      <point x="436.72" y="1487.44" type="line"/>
      <point x="237.56" y="1460.64" type="line"/>
      <point x="426.72" y="1061.32" type="line"/>
      <point x="615.24" y="647.0" type="line"/>
      <point x="802.36" y="1069.4" type="line"/>
      <point x="979.72" y="1458.76" type="line"/>
      <point x="768.5999999999999" y="1486.96" type="line"/>
      <point x="768.5999999999999" y="1500.0" type="line"/>
      <point x="1219.32" y="1500.0" type="line"/>
      <point x="1219.32" y="1487.92" type="line"/>
      <point x="997.64" y="1458.28" type="line"/>
      <point x="817.84" y="1062.4" type="line"/>
      <point x="625.76" y="627.32" type="line"/>
      <point x="625.76" y="44.68" type="line"/>
      <point x="820.76" y="15.04" type="line"/>
      <point x="820.76" y="0.0" type="line"/>
      <point x="371.84000000000003" y="0.0" type="line"/>
      <point x="371.84000000000003" y="15.04" type="line"/>
      <point x="567.76" y="44.68" type="line"/>
    </contour>
    <contour>
      <point x="276.76" y="421.2" type="line"/>
      <point x="268.76" y="440.72" type="line"/>
      <point x="930.16" y="440.72" type="line"/>
      <point x="928.16" y="421.2" type="line"/>
    </contour>
  </outline>
</glyph>
<glyph name="dieresis" format="2">
  <advance width="896"/>
  <unicode hex="00A8"/>
  <outline>
    <contour>
      <point x="570.64" y="1175.12" type="qcurve" smooth="yes"/>
      <point x="570.64" y="1195.04"/>
      <point x="597.76" y="1221.16"/>
      <point x="616.64" y="1221.16" type="qcurve" smooth="yes"/>
      <point x="636.6" y="1221.16"/>
      <point x="664.2" y="1196.16"/>
      <point x="664.2" y="1175.12" type="qcurve" smooth="yes"/>
      <point x="664.2" y="1154.68"/>
      <point x="636.0" y="1127.56"/>
      <point x="616.64" y="1127.56" type="qcurve" smooth="yes"/>
      <point x="597.72" y="1127.56"/>
      <point x="570.64" y="1154.12"/>
    </contour>
    <contour>
      <point x="231.8" y="1175.12" type="qcurve" smooth="yes"/>
      <point x="231.8" y="1195.04"/>
      <point x="259.96" y="1221.16"/>
      <point x="279.36" y="1221.16" type="qcurve" smooth="yes"/>
      <point x="298.28" y="1221.16"/>
      <point x="325.36" y="1196.16"/>
      <point x="325.36" y="1175.12" type="qcurve" smooth="yes"/>
      <point x="325.36" y="1154.68"/>
      <point x="298.72" y="1127.56"/>
      <point x="279.36" y="1127.56" type="qcurve" smooth="yes"/>
      <point x="259.4" y="1127.56"/>
      <point x="231.8" y="1154.12"/>
    </contour>
  </outline>
</glyph>
<glyph name="copyright" format="2">
  <advance width="1676"/>
  <unicode hex="00A9"/>
  <outline>
    <contour>
      <point x="434.36" y="679.8" type="qcurve" smooth="yes"/>
      <point x="434.36" y="877.8"/>
      <point x="666.76" y="1141.8"/>
      <point x="833.16" y="1141.8" type="qcurve" smooth="yes"/>
      <point x="934.2" y="1141.8"/>
      <point x="1067.68" y="1079.28"/>
      <point x="1105.96" y="1044.8" type="qcurve"/>
      <point x="1161.96" y="1147.8" type="line"/>
      <point x="1167.96" y="1147.8" type="line"/>
      <point x="1167.96" y="825.8" type="line"/>
      <point x="1154.96" y="825.8" type="line"/>
      <point x="1126.96" y="920.8" type="line" smooth="yes"/>
      <point x="1099.96" y="1013.8"/>
      <point x="946.6" y="1133.8"/>
      <point x="834.16" y="1133.8" type="qcurve" smooth="yes"/>
      <point x="678.76" y="1133.8"/>
      <point x="500.36" y="901.8"/>
      <point x="501.36" y="679.8" type="qcurve" smooth="yes"/>
      <point x="501.36" y="493.8"/>
      <point x="713.36" y="261.28"/>
      <point x="858.16" y="261.8" type="qcurve" smooth="yes"/>
      <point x="988.56" y="262.32"/>
      <point x="1152.96" y="370.8"/>
      <point x="1197.96" y="446.8" type="qcurve"/>
      <point x="1206.96" y="440.8" type="line"/>
      <point x="1170.96" y="363.8"/>
      <point x="989.6" y="229.8"/>
      <point x="841.16" y="229.8" type="qcurve" smooth="yes"/>
      <point x="692.96" y="229.8"/>
      <point x="434.36" y="486.8"/>
    </contour>
    <contour>
      <point x="88.0" y="699.0" type="qcurve" smooth="yes"/>
      <point x="88.0" y="1055.0"/>
      <point x="508.8" y="1546.0"/>
      <point x="831.84" y="1546.0" type="qcurve" smooth="yes"/>
      <point x="1161.32" y="1546.0"/>
      <point x="1588.08" y="1080.0"/>
      <point x="1588.08" y="720.0" type="qcurve" smooth="yes"/>
      <point x="1588.08" y="325.0"/>
      <point x="1159.84" y="-166.0"/>
      <point x="833.3199999999999" y="-166.0" type="qcurve" smooth="yes"/>
      <point x="513.76" y="-166.0"/>
      <point x="88.0" y="313.0"/>
    </contour>
    <contour>
      <point x="106.0" y="697.0" type="qcurve" smooth="yes"/>
      <point x="106.0" y="323.0"/>
      <point x="511.32" y="-140.0"/>
      <point x="831.3199999999999" y="-140.0" type="qcurve" smooth="yes"/>
      <point x="1145.36" y="-140.0"/>
      <point x="1569.04" y="313.0"/>
      <point x="1569.04" y="714.0" type="qcurve" smooth="yes"/>
      <point x="1569.04" y="1049.0"/>
      <point x="1160.24" y="1531.0"/>
      <point x="832.8" y="1531.0" type="qcurve" smooth="yes"/>
      <point x="528.2" y="1531.0"/>
      <point x="106.0" y="1039.0"/>
    </contour>
  </outline>
</glyph>
<glyph name="ordfeminine" format="2">
  <advance width="881"/>
  <unicode hex="00AA"/>
  <outline>
    <contour>
      <point x="153.0" y="925.0" type="qcurve" smooth="yes"/>
      <point x="153.0" y="1034.0"/>
      <point x="372.4" y="1184.0"/>
      <point x="640.12" y="1215.12" type="qcurve"/>
      <point x="642.0799999999999" y="1205.0" type="line"/>
      <point x="437.48" y="1182.0"/>
      <point x="204.32" y="1036.0"/>
      <point x="204.32" y="943.0" type="qcurve" smooth="yes"/>
      <point x="204.32" y="865.0"/>
      <point x="287.44" y="762.0"/>
      <point x="365.84" y="762.0" type="qcurve" smooth="yes"/>
      <point x="457.0" y="762.0"/>
      <point x="579.68" y="835.08"/>
      <point x="610.0" y="880.0" type="qcurve"/>
      <point x="610.0" y="1281.8" type="line" smooth="yes"/>
      <point x="610.0" y="1388.2"/>
      <point x="508.96" y="1504.0"/>
      <point x="418.24" y="1504.0" type="qcurve" smooth="yes"/>
      <point x="331.64" y="1504.0"/>
      <point x="249.88" y="1444.12"/>
      <point x="244.88" y="1417.12" type="qcurve"/>
      <point x="251.39999999999998" y="1413.64"/>
      <point x="290.88" y="1382.52"/>
      <point x="290.88" y="1359.64" type="qcurve" smooth="yes"/>
      <point x="290.88" y="1336.2"/>
      <point x="265.56" y="1308.2"/>
      <point x="246.12" y="1308.2" type="qcurve" smooth="yes"/>
      <point x="224.72" y="1308.2"/>
      <point x="197.36" y="1335.2"/>
      <point x="197.36" y="1366.2" type="qcurve" smooth="yes"/>
      <point x="197.36" y="1421.2"/>
      <point x="310.76" y="1512.0"/>
      <point x="417.2" y="1512.0" type="qcurve" smooth="yes"/>
      <point x="535.6" y="1512.0"/>
      <point x="670.64" y="1390.6"/>
      <point x="666.76" y="1234.8" type="qcurve" smooth="yes"/>
      <point x="664.28" y="787.0" type="line"/>
      <point x="785.56" y="767.0" type="line"/>
      <point x="785.56" y="754.0" type="line"/>
      <point x="626.3199999999999" y="754.0" type="line"/>
      <point x="614.0" y="777.0" type="line"/>
      <point x="611.04" y="860.8" type="line"/>
      <point x="574.84" y="814.0"/>
      <point x="453.88" y="745.0"/>
      <point x="355.64" y="745.0" type="qcurve" smooth="yes"/>
      <point x="257.15999999999997" y="745.0"/>
      <point x="153.0" y="839.0"/>
    </contour>
  </outline>
</glyph>
<glyph name="registered" format="2">
  <advance width="1485"/>
  <unicode hex="00AE"/>
  <outline>
    <contour>
      <point x="88.0" y="899.44" type="qcurve" smooth="yes"/>
      <point x="88.0" y="1157.68"/>
      <point x="446.28" y="1514.0"/>
      <point x="734.6" y="1514.0" type="qcurve" smooth="yes"/>
      <point x="1020.9200000000001" y="1514.0"/>
      <point x="1392.04" y="1175.92"/>
      <point x="1392.04" y="914.72" type="qcurve" smooth="yes"/>
      <point x="1392.04" y="627.88"/>
      <point x="1018.96" y="274.04"/>
      <point x="750.36" y="274.04" type="qcurve" smooth="yes"/>
      <point x="458.12" y="274.04"/>
      <point x="88.0" y="619.52"/>
    </contour>
    <contour>
      <point x="108.48" y="897.96" type="qcurve" smooth="yes"/>
      <point x="108.48" y="615.56"/>
      <point x="455.64" y="290.8"/>
      <point x="735.0799999999999" y="290.8" type="qcurve" smooth="yes"/>
      <point x="1008.12" y="290.8"/>
      <point x="1372.04" y="607.6800000000001"/>
      <point x="1372.04" y="911.28" type="qcurve" smooth="yes"/>
      <point x="1372.04" y="1163.6"/>
      <point x="1030.52" y="1504.64"/>
      <point x="733.6" y="1504.64" type="qcurve" smooth="yes"/>
      <point x="485.72" y="1504.64"/>
      <point x="108.48" y="1157.2"/>
    </contour>
    <contour>
      <point x="502.68" y="605.72" type="line"/>
      <point x="502.68" y="614.0799999999999" type="line"/>
      <point x="592.84" y="625.9200000000001" type="line"/>
      <point x="594.84" y="924.08" type="line"/>
      <point x="592.36" y="1183.08" type="line"/>
      <point x="525.36" y="1198.84" type="line"/>
      <point x="526.84" y="1207.96" type="line"/>
      <point x="787.3199999999999" y="1207.96" type="line" smooth="yes"/>
      <point x="879.0" y="1207.96"/>
      <point x="968.2" y="1119.24"/>
      <point x="968.2" y="1052.72" type="qcurve" smooth="yes"/>
      <point x="968.2" y="972.88"/>
      <point x="866.6800000000001" y="874.08"/>
      <point x="793.24" y="874.08" type="qcurve" smooth="yes"/>
      <point x="763.68" y="874.08"/>
      <point x="631.6" y="875.04"/>
      <point x="616.8" y="875.04" type="qcurve"/>
      <point x="616.8" y="889.08" type="line"/>
      <point x="779.0" y="889.08" type="line" smooth="yes"/>
      <point x="849.48" y="889.08"/>
      <point x="918.48" y="978.9680000000001"/>
      <point x="918.48" y="1057.232" type="qcurve" smooth="yes"/>
      <point x="918.48" y="1111.768"/>
      <point x="860.3199999999999" y="1191.76"/>
      <point x="775.56" y="1193.92" type="qcurve" smooth="yes"/>
      <point x="649.3199999999999" y="1193.92" type="line"/>
      <point x="637.0" y="1183.512" type="line"/>
      <point x="637.0" y="924.08" type="line"/>
      <point x="639.0" y="625.9200000000001" type="line"/>
      <point x="743.96" y="613.6" type="line"/>
      <point x="743.96" y="605.72" type="line"/>
    </contour>
    <contour>
      <point x="806.64" y="881.2" type="line"/>
      <point x="848.9200000000001" y="884.16" type="line"/>
      <point x="979.52" y="677.6800000000001" type="line" smooth="yes"/>
      <point x="999.24" y="647.12"/>
      <point x="1049.52" y="620.0"/>
      <point x="1084.0" y="618.04" type="qcurve"/>
      <point x="1082.52" y="605.72" type="line"/>
      <point x="981.0799999999999" y="605.72" type="line"/>
      <point x="971.72" y="613.6" type="line"/>
    </contour>
  </outline>
</glyph>
<glyph name="degree" format="2">
  <advance width="678"/>
  <unicode hex="00B0"/>
  <outline>
    <contour>
      <point x="111.04" y="1279.48" type="qcurve" smooth="yes"/>
      <point x="111.04" y="1369.88"/>
      <point x="239.2" y="1504.0"/>
      <point x="339.04" y="1504.0" type="qcurve" smooth="yes"/>
      <point x="438.4" y="1504.0"/>
      <point x="566.56" y="1369.88"/>
      <point x="566.56" y="1279.48" type="qcurve" smooth="yes"/>
      <point x="566.56" y="1191.04"/>
      <point x="438.4" y="1056.44"/>
      <point x="339.04" y="1056.44" type="qcurve" smooth="yes"/>
      <point x="239.2" y="1056.44"/>
      <point x="111.04" y="1191.04"/>
    </contour>
    <contour>
      <point x="133.4" y="1280.96" type="qcurve" smooth="yes"/>
      <point x="133.4" y="1193.52"/>
      <point x="246.16" y="1075.8"/>
      <point x="339.04" y="1075.8" type="qcurve" smooth="yes"/>
      <point x="434.92" y="1075.8"/>
      <point x="545.2" y="1193.52"/>
      <point x="545.2" y="1280.96" type="qcurve" smooth="yes"/>
      <point x="545.2" y="1367.88"/>
      <point x="434.92" y="1485.12"/>
      <point x="339.04" y="1485.12" type="qcurve" smooth="yes"/>
      <point x="246.16" y="1485.12"/>
      <point x="133.4" y="1367.88"/>
    </contour>
  </outline>
</glyph>
<glyph name="plusminus" format="2">
  <advance width="930"/>
  <unicode hex="00B1"/>
  <outline>
    <contour>
      <point x="101.0" y="661.0" type="line"/>
      <point x="101.0" y="683.0" type="line"/>
      <point x="829.2" y="683.0" type="line"/>
      <point x="829.2" y="661.0" type="line"/>
    </contour>
    <contour>
      <point x="448.6" y="248.0" type="line"/>
      <point x="448.6" y="1098.0" type="line"/>
      <point x="480.6" y="1098.0" type="line"/>
      <point x="480.6" y="248.0" type="line"/>
    </contour>
    <contour>
      <point x="101.0" y="21.0" type="line"/>
      <point x="101.0" y="50.0" type="line"/>
      <point x="829.2" y="50.0" type="line"/>
      <point x="829.2" y="21.0" type="line"/>
    </contour>
  </outline>
</glyph>
<glyph name="threesuperior" format="2">
  <advance width="541"/>
  <unicode hex="00B3"/>
  <outline>
    <contour>
      <point x="3.616774193548384" y="893.32" type="qcurve"/>
      <point x="16.32" y="903.6" type="line"/>
      <point x="49.48" y="840.76"/>
      <point x="178.68" y="768.12"/>
      <point x="264.6" y="768.12" type="qcurve" smooth="yes"/>
      <point x="363.68" y="768.12"/>
      <point x="475.8" y="887.4"/>
      <point x="475.8" y="977.92" type="qcurve" smooth="yes"/>
      <point x="475.8" y="1073.32"/>
      <point x="362.0" y="1173.56"/>
      <point x="239.51999999999998" y="1173.56" type="qcurve" smooth="yes"/>
      <point x="144.04" y="1173.56" type="line"/>
      <point x="143.0" y="1181.52" type="line"/>
      <point x="232.24" y="1184.64" type="line" smooth="yes"/>
      <point x="363.08" y="1189.32"/>
      <point x="458.55806451612904" y="1291.74"/>
      <point x="458.55806451612904" y="1355.844" type="qcurve" smooth="yes"/>
      <point x="458.55806451612904" y="1427.948"/>
      <point x="369.56" y="1511.96"/>
      <point x="284.28" y="1511.96" type="qcurve" smooth="yes"/>
      <point x="213.07999999999998" y="1511.96"/>
      <point x="95.68" y="1459.8"/>
      <point x="60.96" y="1415.12" type="qcurve"/>
      <point x="51.68645161290323" y="1425.92" type="line"/>
      <point x="90.16" y="1470.16"/>
      <point x="209.76" y="1520.0"/>
      <point x="287.28" y="1520.0" type="qcurve" smooth="yes"/>
      <point x="383.32" y="1520.0"/>
      <point x="502.68" y="1438.48"/>
      <point x="502.68" y="1364.48" type="qcurve" smooth="yes"/>
      <point x="502.68" y="1286.48"/>
      <point x="393.0" y="1196.04"/>
      <point x="307.24" y="1183.64" type="qcurve"/>
      <point x="307.24" y="1180.64" type="line"/>
      <point x="399.0" y="1174.2"/>
      <point x="526.0" y="1072.04"/>
      <point x="526.0" y="986.48" type="qcurve" smooth="yes"/>
      <point x="526.0" y="882.84"/>
      <point x="388.6" y="752.0"/>
      <point x="274.03999999999996" y="752.0" type="qcurve" smooth="yes"/>
      <point x="175.04" y="752.0"/>
      <point x="39.29677419354839" y="832.4"/>
    </contour>
  </outline>
</glyph>
<glyph name="acute" format="2">
  <advance width="896"/>
  <unicode hex="00B4"/>
  <outline>
    <contour>
      <point x="618.68" y="1185.4" type="qcurve" smooth="yes"/>
      <point x="618.68" y="1168.04"/>
      <point x="597.52" y="1142.8"/>
      <point x="579.52" y="1130.8" type="qcurve" smooth="yes"/>
      <point x="308.84000000000003" y="970.0" type="line"/>
      <point x="302.84000000000003" y="978.0" type="line"/>
      <point x="519.48" y="1170.72" type="line" smooth="yes"/>
      <point x="537.88" y="1187.2"/>
      <point x="569.48" y="1213.68"/>
      <point x="585.48" y="1213.68" type="qcurve" smooth="yes"/>
      <point x="600.48" y="1213.68"/>
      <point x="618.68" y="1197.8"/>
    </contour>
  </outline>
</glyph>
<glyph name="micro" format="2">
  <advance width="1141"/>
  <unicode hex="00B5"/>
  <outline>
    <contour>
      <point x="0.9599999999999937" y="-414.48" type="line"/>
      <point x="27.679999999999993" y="-395.92" type="line"/>
      <point x="71.0" y="-221.84"/>
      <point x="171.76" y="220.32"/>
      <point x="191.24" y="308.76" type="qcurve" smooth="yes"/>
      <point x="306.28" y="880.8" type="line"/>
      <point x="133.36" y="884.48" type="line"/>
      <point x="132.51999999999998" y="898.88" type="line"/>
      <point x="349.52" y="925.16" type="line"/>
      <point x="367.72" y="924.12" type="line"/>
      <point x="370.72" y="900.0" type="line"/>
      <point x="238.8" y="283.52" type="line" smooth="yes"/>
      <point x="208.84" y="143.6"/>
      <point x="342.79999999999995" y="19.0"/>
      <point x="445.76" y="17.96" type="qcurve" smooth="yes"/>
      <point x="570.48" y="16.4"/>
      <point x="793.6800000000001" y="125.4"/>
      <point x="850.96" y="210.64" type="qcurve"/>
      <point x="987.0799999999999" y="846.48" type="line"/>
      <point x="958.64" y="916.12" type="line"/>
      <point x="1041.72" y="939.84" type="line"/>
      <point x="1050.08" y="874.88" type="line"/>
      <point x="918.48" y="273.16" type="line"/>
      <point x="868.72" y="41.16" type="line"/>
      <point x="1042.6399999999999" y="29.04" type="line"/>
      <point x="1042.12" y="17.64" type="line"/>
      <point x="827.0" y="-7.88" type="line"/>
      <point x="808.48" y="6.640000000000001" type="line"/>
      <point x="846.52" y="185.0" type="line"/>
      <point x="790.52" y="102.72"/>
      <point x="565.8399999999999" y="-10.36"/>
      <point x="431.91999999999996" y="-9.32" type="qcurve" smooth="yes"/>
      <point x="334.08" y="-8.28"/>
      <point x="223.12" y="70.64"/>
      <point x="202.16" y="110.2" type="qcurve"/>
      <point x="93.88" y="-385.52" type="line"/>
      <point x="234.84" y="-394.76" type="line"/>
      <point x="234.4" y="-412.48" type="line"/>
      <point x="15.879999999999995" y="-425.92" type="line"/>
    </contour>
  </outline>
</glyph>
<glyph name="paragraph" format="2">
  <advance width="1002"/>
  <unicode hex="00B6"/>
  <outline>
    <contour>
      <point x="967.88" y="11.48" type="line"/>
      <point x="967.88" y="0.0" type="line"/>
      <point x="215.28" y="0.0" type="line"/>
      <point x="215.28" y="12.92" type="line"/>
      <point x="739.6" y="27.6" type="line"/>
      <point x="739.56" y="1015.0" type="line"/>
      <point x="695.64" y="1011.48"/>
      <point x="448.4" y="1005.44"/>
      <point x="382.32" y="1005.44" type="qcurve" smooth="yes"/>
      <point x="231.84" y="1005.44"/>
      <point x="88.4" y="1129.8"/>
      <point x="88.4" y="1245.88" type="qcurve" smooth="yes"/>
      <point x="88.4" y="1367.84"/>
      <point x="248.24" y="1500.0"/>
      <point x="387.04" y="1500.0" type="qcurve" smooth="yes"/>
      <point x="936.88" y="1500.0" type="line"/>
      <point x="936.88" y="1490.92" type="line"/>
      <point x="781.48" y="1471.12" type="line"/>
      <point x="769.0799999999999" y="754.0" type="line"/>
      <point x="774.72" y="27.36" type="line"/>
    </contour>
    <contour>
      <point x="417.64" y="10.36" type="line"/>
      <point x="391.64" y="10.36" type="line"/>
      <point x="412.88" y="1029.36" type="line"/>
      <point x="430.72" y="1027.8" type="line"/>
    </contour>
  </outline>
</glyph>
<glyph name="periodcentered" format="2">
  <advance width="429"/>
  <unicode hex="00B7"/>
  <outline>
    <contour>
      <point x="162.2" y="697.44" type="qcurve" smooth="yes"/>
      <point x="162.2" y="716.76"/>
      <point x="190.96" y="746.0"/>
      <point x="213.76" y="746.0" type="qcurve" smooth="yes"/>
      <point x="237.07999999999998" y="746.0"/>
      <point x="266.84" y="716.76"/>
      <point x="266.84" y="697.44" type="qcurve" smooth="yes"/>
      <point x="266.84" y="674.6"/>
      <point x="237.07999999999998" y="645.36"/>
      <point x="213.76" y="645.36" type="qcurve" smooth="yes"/>
      <point x="190.96" y="645.36"/>
      <point x="162.2" y="674.6"/>
    </contour>
  </outline>
</glyph>
<glyph name="cedilla" format="2">
  <advance width="896"/>
  <unicode hex="00B8"/>
  <outline>
    <contour>
      <point x="475.76" y="12.0" type="line"/>
      <point x="408.0" y="-145.0" type="line"/>
      <point x="436.2" y="-127.0"/>
      <point x="506.4" y="-107.0"/>
      <point x="543.0" y="-107.0" type="qcurve" smooth="yes"/>
      <point x="617.72" y="-107.0"/>
      <point x="703.12" y="-170.24"/>
      <point x="703.12" y="-228.96" type="qcurve" smooth="yes"/>
      <point x="703.12" y="-304.2"/>
      <point x="579.12" y="-381.2"/>
      <point x="497.72" y="-381.2" type="qcurve" smooth="yes"/>
      <point x="438.16" y="-381.2"/>
      <point x="324.92" y="-342.2"/>
      <point x="301.2" y="-322.2" type="qcurve"/>
      <point x="305.24" y="-312.72" type="line"/>
      <point x="328.48" y="-331.72"/>
      <point x="424.32" y="-365.2"/>
      <point x="495.04" y="-365.2" type="qcurve" smooth="yes"/>
      <point x="561.28" y="-365.2"/>
      <point x="643.12" y="-289.2"/>
      <point x="643.12" y="-229.96" type="qcurve" smooth="yes"/>
      <point x="643.12" y="-177.32"/>
      <point x="578.84" y="-121.0"/>
      <point x="529.64" y="-121.0" type="qcurve" smooth="yes"/>
      <point x="492.56" y="-121.0"/>
      <point x="422.84" y="-147.0"/>
      <point x="408.0" y="-159.0" type="qcurve"/>
      <point x="394.4" y="-147.0" type="line"/>
      <point x="465.12" y="17.0" type="line"/>
    </contour>
  </outline>
</glyph>
<glyph name="guillemetright" format="2">
  <advance width="1206"/>
  <unicode hex="00BB"/>
  <outline>
    <contour>
      <point x="1073.8" y="536.96" type="line"/>
      <point x="1058.96" y="524.96"/>
      <point x="595.4" y="142.96"/>
      <point x="592.44" y="139.96" type="qcurve" smooth="yes"/>
      <point x="588.48" y="136.96"/>
      <point x="581.56" y="151.96"/>
      <point x="585.52" y="154.96" type="qcurve" smooth="yes"/>
      <point x="613.2" y="177.96"/>
      <point x="1027.8" y="543.96"/>
      <point x="1041.8" y="554.96" type="qcurve"/>
      <point x="1029.8" y="566.96"/>
      <point x="596.4" y="907.96"/>
      <point x="553.36" y="939.96" type="qcurve" smooth="yes"/>
      <point x="544.44" y="946.96"/>
      <point x="548.4" y="968.96"/>
      <point x="560.76" y="958.96" type="qcurve" smooth="yes"/>
      <point x="607.76" y="923.96"/>
      <point x="1022.36" y="615.96"/>
      <point x="1073.8" y="567.96" type="qcurve"/>
    </contour>
    <contour>
      <point x="629.8" y="536.96" type="line"/>
      <point x="614.96" y="524.96"/>
      <point x="151.4" y="142.96"/>
      <point x="148.44" y="139.96" type="qcurve" smooth="yes"/>
      <point x="144.48" y="136.96"/>
      <point x="137.56" y="151.96"/>
      <point x="141.51999999999998" y="154.96" type="qcurve" smooth="yes"/>
      <point x="169.2" y="177.96"/>
      <point x="583.8" y="543.96"/>
      <point x="597.8" y="554.96" type="qcurve"/>
      <point x="585.8" y="566.96"/>
      <point x="152.4" y="907.96"/>
      <point x="109.36" y="939.96" type="qcurve" smooth="yes"/>
      <point x="100.44" y="946.96"/>
      <point x="104.4" y="968.96"/>
      <point x="116.75999999999999" y="958.96" type="qcurve" smooth="yes"/>
      <point x="163.76" y="923.96"/>
      <point x="578.36" y="615.96"/>
      <point x="629.8" y="567.96" type="qcurve"/>
    </contour>
  </outline>
</glyph>
<glyph name="questiondown" format="2">
  <advance width="810"/>
  <unicode hex="00BF"/>
  <outline>
    <contour>
      <point x="593.36" y="1231.84" type="qcurve" smooth="yes"/>
      <point x="593.36" y="1208.88"/>
      <point x="559.88" y="1173.96"/>
      <point x="533.92" y="1173.96" type="qcurve" smooth="yes"/>
      <point x="507.96" y="1173.96"/>
      <point x="474.96" y="1208.88"/>
      <point x="474.96" y="1231.84" type="qcurve" smooth="yes"/>
      <point x="474.96" y="1258.32"/>
      <point x="507.96" y="1293.24"/>
      <point x="533.92" y="1293.24" type="qcurve" smooth="yes"/>
      <point x="559.88" y="1293.24"/>
      <point x="593.36" y="1258.32"/>
    </contour>
    <contour>
      <point x="776.0" y="-10.600000000000001" type="qcurve" smooth="yes"/>
      <point x="776.0" y="-92.96000000000001"/>
      <point x="573.56" y="-245.68"/>
      <point x="424.8" y="-245.68" type="qcurve" smooth="yes"/>
      <point x="273.12" y="-245.68"/>
      <point x="54.24" y="-79.0"/>
      <point x="54.24" y="71.44" type="qcurve" smooth="yes"/>
      <point x="54.24" y="214.32"/>
      <point x="171.28" y="393.08"/>
      <point x="310.48" y="486.84" type="qcurve" smooth="yes"/>
      <point x="441.6" y="573.96"/>
      <point x="556.56" y="733.72"/>
      <point x="548.88" y="882.44" type="qcurve" smooth="yes"/>
      <point x="546.96" y="931.32" type="line"/>
      <point x="561.3199999999999" y="931.32" type="line"/>
      <point x="564.2" y="858.12" type="line" smooth="yes"/>
      <point x="571.36" y="694.96"/>
      <point x="456.68" y="517.2"/>
      <point x="335.28" y="433.96" type="qcurve" smooth="yes"/>
      <point x="217.28" y="352.15999999999997"/>
      <point x="106.68" y="189.36"/>
      <point x="106.68" y="69.16" type="qcurve" smooth="yes"/>
      <point x="106.68" y="-73.32"/>
      <point x="282.64" y="-231.76"/>
      <point x="429.96" y="-231.76" type="qcurve" smooth="yes"/>
      <point x="558.0" y="-231.76"/>
      <point x="736.4" y="-107.76"/>
      <point x="736.4" y="-54.56" type="qcurve" smooth="yes"/>
      <point x="729.6800000000001" y="-45.68"/>
      <point x="664.92" y="-6.280000000000001"/>
      <point x="663.4" y="19.6" type="qcurve" smooth="yes"/>
      <point x="661.88" y="43.44"/>
      <point x="689.72" y="73.88"/>
      <point x="715.56" y="73.88" type="qcurve" smooth="yes"/>
      <point x="743.24" y="73.88"/>
      <point x="776.0" y="28.839999999999996"/>
    </contour>
  </outline>
</glyph>
<glyph name="AE" format="2">
  <advance width="1815"/>
  <unicode hex="00C6"/>
  <outline>
    <contour>
      <point x="-65.0" y="0.0" type="line"/>
      <point x="-65.0" y="17.0" type="line"/>
      <point x="94.0" y="52.0" type="line"/>
      <point x="386.6" y="592.48" type="line"/>
      <point x="855.5999999999999" y="1460.0" type="line"/>
      <point x="667.8" y="1481.0" type="line"/>
      <point x="667.8" y="1500.0" type="line"/>
      <point x="1661.3600000000001" y="1500.0" type="line"/>
      <point x="1670.0" y="1148.68" type="line"/>
      <point x="1650.72" y="1148.68" type="line"/>
      <point x="1568.28" y="1482.0" type="line"/>
      <point x="971.9200000000001" y="1482.0" type="line"/>
      <point x="960.9200000000001" y="1467.0" type="line"/>
      <point x="958.9200000000001" y="785.0" type="line"/>
      <point x="959.88" y="49.88" type="line"/>
      <point x="994.88" y="19.88" type="line"/>
      <point x="1624.8" y="19.88" type="line"/>
      <point x="1742.6399999999999" y="396.6" type="line"/>
      <point x="1757.0" y="396.6" type="line"/>
      <point x="1712.6" y="0.0" type="line"/>
      <point x="729.5999999999999" y="0.0" type="line"/>
      <point x="729.5999999999999" y="15.92" type="line"/>
      <point x="899.16" y="47.44" type="line"/>
      <point x="902.2" y="784.0" type="line"/>
      <point x="900.2" y="1467.4" type="line"/>
      <point x="887.2" y="1467.4" type="line"/>
      <point x="411.15999999999997" y="584.92" type="line"/>
      <point x="127.0" y="55.0" type="line"/>
      <point x="303.6" y="17.0" type="line"/>
      <point x="303.6" y="0.0" type="line"/>
    </contour>
    <contour>
      <point x="394.8" y="576.44" type="line"/>
      <point x="402.72" y="594.0" type="line"/>
      <point x="648.2" y="592.0" type="line"/>
      <point x="648.2" y="578.44" type="line"/>
    </contour>
    <contour>
      <point x="648.2" y="592.0" type="line"/>
      <point x="929.2" y="592.0" type="line"/>
      <point x="929.2" y="574.44" type="line"/>
      <point x="648.2" y="578.44" type="line"/>
    </contour>
    <contour>
      <point x="938.0" y="775.64" type="line"/>
      <point x="938.0" y="790.44" type="line"/>
      <point x="1455.76" y="796.4" type="line"/>
      <point x="1518.3600000000001" y="1006.0" type="line"/>
      <point x="1529.8" y="1006.0" type="line"/>
      <point x="1529.8" y="562.0" type="line"/>
      <point x="1518.3600000000001" y="562.0" type="line"/>
      <point x="1455.76" y="776.6" type="line"/>
    </contour>
  </outline>
</glyph>
<glyph name="Thorn" format="2">
  <advance width="1115"/>
  <unicode hex="00DE"/>
  <outline>
    <contour>
      <point x="67.12" y="0.0" type="line"/>
      <point x="67.12" y="15.4" type="line"/>
      <point x="246.24" y="49.84" type="line"/>
      <point x="248.24" y="762.0" type="line"/>
      <point x="246.24" y="1447.12" type="line"/>
      <point x="66.12" y="1482.08" type="line"/>
      <point x="66.12" y="1500.0" type="line"/>
      <point x="486.6" y="1500.0" type="line"/>
      <point x="486.6" y="1482.56" type="line"/>
      <point x="304.03999999999996" y="1454.8" type="line"/>
      <point x="304.6" y="1299.52" type="line"/>
      <point x="611.96" y="1299.52" type="line" smooth="yes"/>
      <point x="803.12" y="1299.52"/>
      <point x="1034.44" y="1087.92"/>
      <point x="1034.44" y="888.56" type="qcurve" smooth="yes"/>
      <point x="1034.44" y="675.64"/>
      <point x="787.2" y="420.28"/>
      <point x="557.0" y="420.28" type="qcurve" smooth="yes"/>
      <point x="510.76" y="420.28"/>
      <point x="319.32" y="436.64"/>
      <point x="287.12" y="447.8" type="qcurve"/>
      <point x="289.56" y="469.76" type="line"/>
      <point x="330.72" y="453.28"/>
      <point x="527.24" y="439.32"/>
      <point x="565.84" y="439.32" type="qcurve" smooth="yes"/>
      <point x="772.44" y="439.32"/>
      <point x="968.76" y="664.04"/>
      <point x="968.76" y="889.24" type="qcurve" smooth="yes"/>
      <point x="968.76" y="1095.84"/>
      <point x="765.72" y="1272.24"/>
      <point x="592.28" y="1277.96" type="qcurve"/>
      <point x="303.08" y="1277.96" type="line"/>
      <point x="301.64" y="751.6" type="line"/>
      <point x="303.64" y="51.96" type="line"/>
      <point x="501.15999999999997" y="15.44" type="line"/>
      <point x="501.15999999999997" y="0.0" type="line"/>
    </contour>
  </outline>
</glyph>
<glyph name="eth" format="2">
  <advance width="980"/>
  <unicode hex="00F0"/>
  <outline>
    <contour>
      <point x="57.68" y="465.0" type="qcurve" smooth="yes"/>
      <point x="57.68" y="687.36"/>
      <point x="292.32" y="957.8"/>
      <point x="484.79999999999995" y="957.8" type="qcurve" smooth="yes"/>
      <point x="665.9200000000001" y="957.8"/>
      <point x="883.6800000000001" y="751.12"/>
      <point x="888.48" y="511.16" type="qcurve"/>
      <point x="862.5999999999999" y="509.08" type="line"/>
      <point x="849.96" y="775.2"/>
      <point x="625.04" y="945.84"/>
      <point x="485.2" y="945.84" type="qcurve" smooth="yes"/>
      <point x="326.64" y="945.84"/>
      <point x="120.56" y="715.4"/>
      <point x="120.56" y="479.4" type="qcurve" smooth="yes"/>
      <point x="120.56" y="230.92"/>
      <point x="325.0" y="-7.76"/>
      <point x="483.56" y="-8.719999999999999" type="qcurve" smooth="yes"/>
      <point x="643.64" y="-9.68"/>
      <point x="858.5999999999999" y="206.6"/>
      <point x="855.48" y="462.48" type="qcurve" smooth="yes"/>
      <point x="851.8399999999999" y="867.88"/>
      <point x="628.04" y="1428.0"/>
      <point x="314.76" y="1528.4" type="qcurve"/>
      <point x="321.84" y="1546.0" type="line"/>
      <point x="643.4" y="1446.8"/>
      <point x="905.04" y="847.0"/>
      <point x="905.04" y="543.88" type="qcurve" smooth="yes"/>
      <point x="905.04" y="254.84"/>
      <point x="662.6800000000001" y="-21.240000000000002"/>
      <point x="480.68" y="-21.240000000000002" type="qcurve" smooth="yes"/>
      <point x="300.08" y="-21.240000000000002"/>
      <point x="57.68" y="241.0"/>
    </contour>
    <contour>
      <point x="366.32" y="1167.6" type="line"/>
      <point x="868.0" y="1487.6" type="line"/>
      <point x="882.44" y="1469.28" type="line"/>
      <point x="381.24" y="1149.28" type="line"/>
    </contour>
  </outline>
</glyph>
<glyph name="divide" format="2">
  <advance width="843"/>
  <unicode hex="00F7"/>
  <outline>
    <contour>
      <point x="84.36" y="623.6" type="line"/>
      <point x="84.36" y="640.4" type="line"/>
      <point x="757.96" y="640.4" type="line"/>
      <point x="757.96" y="623.6" type="line"/>
    </contour>
    <contour>
      <point x="383.8" y="421.76" type="qcurve" smooth="yes"/>
      <point x="383.8" y="436.08"/>
      <point x="404.6" y="458.88"/>
      <point x="420.92" y="458.88" type="qcurve" smooth="yes"/>
      <point x="437.24" y="458.88"/>
      <point x="458.03999999999996" y="436.08"/>
      <point x="458.03999999999996" y="421.76" type="qcurve" smooth="yes"/>
      <point x="458.03999999999996" y="408.4"/>
      <point x="437.24" y="384.6"/>
      <point x="420.92" y="384.6" type="qcurve" smooth="yes"/>
      <point x="404.6" y="384.6"/>
      <point x="383.8" y="408.4"/>
    </contour>
    <contour>
      <point x="383.8" y="843.76" type="qcurve" smooth="yes"/>
      <point x="383.8" y="857.6"/>
      <point x="404.6" y="880.88"/>
      <point x="420.92" y="880.88" type="qcurve" smooth="yes"/>
      <point x="437.24" y="880.88"/>
      <point x="458.03999999999996" y="857.6"/>
      <point x="458.03999999999996" y="843.76" type="qcurve" smooth="yes"/>
      <point x="458.03999999999996" y="829.92"/>
      <point x="437.24" y="807.12"/>
      <point x="420.92" y="807.12" type="qcurve" smooth="yes"/>
      <point x="404.6" y="807.12"/>
      <point x="383.8" y="829.92"/>
    </contour>
  </outline>
</glyph>
<glyph name="kgreenlandic" format="2">
  <advance width="924"/>
  <unicode hex="0138"/>
  <outline>
    <contour>
      <point x="89.72" y="0.0" type="line"/>
      <point x="89.72" y="13.4" type="line"/>
      <point x="232.2" y="40.88" type="line"/>
      <point x="234.2" y="473.64" type="line"/>
      <point x="229.32" y="876.72" type="line"/>
      <point x="89.88" y="904.04" type="line"/>
      <point x="89.88" y="920.0" type="line"/>
      <point x="416.68" y="920.0" type="line"/>
      <point x="416.68" y="905.48" type="line"/>
      <point x="288.0" y="880.12" type="line"/>
      <point x="285.56" y="500.6" type="line"/>
      <point x="291.56" y="40.4" type="line"/>
      <point x="450.91999999999996" y="13.4" type="line"/>
      <point x="450.91999999999996" y="0.0" type="line"/>
    </contour>
    <contour>
      <point x="264.2" y="415.04" type="line"/>
      <point x="258.64" y="432.92" type="line"/>
      <point x="721.56" y="877.32" type="line"/>
      <point x="592.76" y="905.48" type="line"/>
      <point x="593.28" y="920.0" type="line"/>
      <point x="896.3199999999999" y="920.0" type="line"/>
      <point x="896.3199999999999" y="910.6" type="line"/>
      <point x="750.8" y="873.28" type="line"/>
    </contour>
    <contour>
      <point x="435.48" y="588.6" type="line"/>
      <point x="476.24" y="635.04" type="line"/>
      <point x="838.48" y="42.4" type="line"/>
      <point x="957.4" y="15.8" type="line"/>
      <point x="957.4" y="0.0" type="line"/>
      <point x="683.2" y="0.0" type="line"/>
      <point x="681.16" y="16.48" type="line"/>
      <point x="774.72" y="38.52" type="line"/>
    </contour>
  </outline>
</glyph>
<glyph name="oe" format="2">
  <advance width="1664"/>
  <unicode hex="0153"/>
  <outline>
    <contour>
      <point x="57.2" y="460.0" type="qcurve" smooth="yes"/>
      <point x="57.2" y="691.08"/>
      <point x="320.24" y="944.76"/>
      <point x="484.76" y="944.76" type="qcurve" smooth="yes"/>
      <point x="646.6800000000001" y="944.76"/>
      <point x="841.76" y="791.28"/>
      <point x="879.92" y="670.0" type="qcurve"/>
      <point x="886.92" y="670.0" type="line"/>
      <point x="921.88" y="790.28"/>
      <point x="1125.12" y="944.28"/>
      <point x="1261.4" y="944.28" type="qcurve" smooth="yes"/>
      <point x="1418.08" y="944.28"/>
      <point x="1633.08" y="715.36"/>
      <point x="1639.6799999999998" y="532.04" type="qcurve"/>
      <point x="1639.6799999999998" y="507.08" type="line"/>
      <point x="879.5999999999999" y="507.08" type="line"/>
      <point x="879.0799999999999" y="524.0" type="line"/>
      <point x="1584.72" y="524.0" type="line"/>
      <point x="1581.12" y="695.16"/>
      <point x="1401.88" y="928.32"/>
      <point x="1249.12" y="928.32" type="qcurve" smooth="yes"/>
      <point x="1132.2" y="928.32"/>
      <point x="910.8399999999999" y="728.72"/>
      <point x="910.3199999999999" y="477.04" type="qcurve" smooth="yes"/>
      <point x="909.8" y="224.52"/>
      <point x="1107.0" y="-0.11999999999999922"/>
      <point x="1280.76" y="-0.11999999999999922" type="qcurve" smooth="yes"/>
      <point x="1404.1999999999998" y="-0.11999999999999922"/>
      <point x="1592.1999999999998" y="129.84"/>
      <point x="1635.0" y="219.84" type="qcurve"/>
      <point x="1646.48" y="211.96" type="line"/>
      <point x="1604.6799999999998" y="113.88"/>
      <point x="1402.72" y="-22.28"/>
      <point x="1272.92" y="-22.28" type="qcurve" smooth="yes"/>
      <point x="1112.2" y="-22.28"/>
      <point x="916.16" y="138.28"/>
      <point x="887.44" y="246.04" type="qcurve"/>
      <point x="883.92" y="246.04" type="line"/>
      <point x="854.76" y="137.32"/>
      <point x="657.48" y="-21.72"/>
      <point x="493.52" y="-21.72" type="qcurve" smooth="yes"/>
      <point x="318.12" y="-21.72"/>
      <point x="57.2" y="230.8"/>
    </contour>
    <contour>
      <point x="119.0" y="477.92" type="qcurve" smooth="yes"/>
      <point x="119.0" y="236.84"/>
      <point x="326.4" y="-7.72"/>
      <point x="493.0" y="-7.72" type="qcurve" smooth="yes"/>
      <point x="652.8399999999999" y="-7.72"/>
      <point x="859.0" y="198.8"/>
      <point x="858.0" y="459.92" type="qcurve" smooth="yes"/>
      <point x="858.0" y="706.04"/>
      <point x="643.0" y="928.76"/>
      <point x="486.32" y="928.76" type="qcurve"/>
      <point x="323.4" y="928.76"/>
      <point x="119.0" y="685.16"/>
    </contour>
  </outline>
</glyph>
<glyph name="Schwa" format="2">
  <advance width="1339"/>
  <unicode hex="018F"/>
  <outline>
    <contour>
      <point x="96.36" y="1288.56" type="line"/>
      <point x="141.84" y="1351.12"/>
      <point x="430.56" y="1515.4"/>
      <point x="656.88" y="1515.4" type="qcurve" smooth="yes"/>
      <point x="911.5999999999999" y="1515.4"/>
      <point x="1269.1599999999999" y="1107.2"/>
      <point x="1269.1599999999999" y="709.64" type="qcurve" smooth="yes"/>
      <point x="1269.1599999999999" y="349.56"/>
      <point x="930.4" y="-23.88"/>
      <point x="653.2" y="-23.36" type="qcurve" smooth="yes"/>
      <point x="374.28" y="-22.84"/>
      <point x="32.44" y="352.88"/>
      <point x="32.44" y="672.0" type="qcurve" smooth="yes"/>
      <point x="32.44" y="709.6" type="line"/>
      <point x="1222.52" y="709.6" type="line"/>
      <point x="1222.04" y="680.6" type="line"/>
      <point x="683.72" y="685.8" type="line"/>
      <point x="86.28" y="680.6" type="line"/>
      <point x="86.28" y="659.2" type="line" smooth="yes"/>
      <point x="86.28" y="375.48"/>
      <point x="394.08" y="-2.6400000000000006"/>
      <point x="650.64" y="-2.6400000000000006" type="qcurve" smooth="yes"/>
      <point x="912.0799999999999" y="-2.6400000000000006"/>
      <point x="1207.96" y="327.32"/>
      <point x="1207.96" y="725.24" type="qcurve" smooth="yes"/>
      <point x="1207.96" y="1105.36"/>
      <point x="884.16" y="1495.4"/>
      <point x="651.8399999999999" y="1495.4" type="qcurve" smooth="yes"/>
      <point x="444.24" y="1495.4"/>
      <point x="155.32" y="1331.44"/>
      <point x="110.36" y="1272.8" type="qcurve"/>
    </contour>
  </outline>
</glyph>
<glyph name="schwa" format="2">
  <advance width="868"/>
  <unicode hex="0259"/>
  <outline>
    <contour>
      <point x="824.8399999999999" y="470.6" type="qcurve" smooth="yes"/>
      <point x="824.8399999999999" y="227.24"/>
      <point x="571.24" y="-21.72"/>
      <point x="416.0" y="-21.72" type="qcurve" smooth="yes"/>
      <point x="259.8" y="-21.72"/>
      <point x="42.84" y="208.08"/>
      <point x="37.72" y="391.56" type="qcurve"/>
      <point x="37.72" y="416.48" type="line"/>
      <point x="801.72" y="416.48" type="line"/>
      <point x="801.72" y="397.56" type="line"/>
      <point x="93.68" y="397.56" type="line"/>
      <point x="97.24" y="225.96"/>
      <point x="277.0" y="-6.76"/>
      <point x="429.28" y="-6.76" type="qcurve" smooth="yes"/>
      <point x="558.36" y="-6.76"/>
      <point x="767.04" y="224.24"/>
      <point x="767.04" y="454.36" type="qcurve" smooth="yes"/>
      <point x="767.56" y="682.56"/>
      <point x="571.48" y="922.16"/>
      <point x="395.03999999999996" y="922.16" type="qcurve" smooth="yes"/>
      <point x="273.68" y="922.16"/>
      <point x="83.16" y="792.68"/>
      <point x="42.839999999999996" y="702.72" type="qcurve"/>
      <point x="31.92" y="709.52" type="line"/>
      <point x="73.24" y="808.68"/>
      <point x="273.68" y="944.28"/>
      <point x="406.0" y="944.28" type="qcurve" smooth="yes"/>
      <point x="589.04" y="944.28"/>
      <point x="824.8399999999999" y="695.56"/>
    </contour>
  </outline>
</glyph>
<glyph name="circumflex" format="2">
  <advance width="896"/>
  <unicode hex="02C6"/>
  <outline>
    <contour>
      <point x="447.0" y="1216.4" type="qcurve" smooth="yes"/>
      <point x="465.36" y="1216.4"/>
      <point x="520.0" y="1173.08"/>
      <point x="560.44" y="1134.52" type="qcurve" smooth="yes"/>
      <point x="696.84" y="1007.12" type="line"/>
      <point x="684.4" y="996.2" type="line"/>
      <point x="447.0" y="1157.32" type="line"/>
      <point x="206.4" y="995.24" type="line"/>
      <point x="195.0" y="1006.12" type="line"/>
      <point x="333.52" y="1134.04" type="line" smooth="yes"/>
      <point x="382.96" y="1180.6"/>
      <point x="428.64" y="1216.4"/>
    </contour>
  </outline>
</glyph>
<glyph name="caron" format="2">
  <advance width="896"/>
  <unicode hex="02C7"/>
  <outline>
    <contour>
      <point x="444.84" y="993.96" type="qcurve" smooth="yes"/>
      <point x="422.84" y="993.96"/>
      <point x="373.84" y="1035.16"/>
      <point x="331.84" y="1072.16" type="qcurve" smooth="yes"/>
      <point x="206.96" y="1187.12" type="line"/>
      <point x="217.96" y="1196.12" type="line"/>
      <point x="444.84" y="1043.04" type="line"/>
      <point x="675.88" y="1194.04" type="line"/>
      <point x="684.88" y="1186.04" type="line"/>
      <point x="557.84" y="1072.16" type="line" smooth="yes"/>
      <point x="507.36" y="1026.64"/>
      <point x="466.84" y="993.96"/>
    </contour>
  </outline>
</glyph>
<glyph name="breve" format="2">
  <advance width="896"/>
  <unicode hex="02D8"/>
  <outline>
    <contour>
      <point x="654.36" y="1190.0" type="qcurve"/>
      <point x="664.32" y="1187.0" type="line"/>
      <point x="640.4" y="1124.0"/>
      <point x="531.24" y="999.0"/>
      <point x="449.0" y="999.0" type="qcurve" smooth="yes"/>
      <point x="366.76" y="999.0"/>
      <point x="258.6" y="1117.0"/>
      <point x="231.68" y="1185.0" type="qcurve"/>
      <point x="241.64" y="1190.0" type="line"/>
      <point x="271.56" y="1118.0"/>
      <point x="376.72" y="1054.0"/>
      <point x="449.0" y="1057.0" type="qcurve" smooth="yes"/>
      <point x="521.76" y="1054.0"/>
      <point x="628.44" y="1121.0"/>
    </contour>
  </outline>
</glyph>
<glyph name="dotaccent" format="2">
  <advance width="896"/>
  <unicode hex="02D9"/>
  <outline>
    <contour>
      <point x="388.28" y="1056.76" type="qcurve" smooth="yes"/>
      <point x="388.28" y="1081.16"/>
      <point x="424.16" y="1117.0"/>
      <point x="447.0" y="1117.0" type="qcurve" smooth="yes"/>
      <point x="470.36" y="1117.0"/>
      <point x="507.72" y="1079.16"/>
      <point x="507.72" y="1056.76" type="qcurve" smooth="yes"/>
      <point x="507.72" y="1032.88"/>
      <point x="471.84" y="996.52"/>
      <point x="447.0" y="996.52" type="qcurve" smooth="yes"/>
      <point x="424.64" y="996.52"/>
      <point x="388.28" y="1033.36"/>
    </contour>
  </outline>
</glyph>
<glyph name="hungarumlaut" format="2">
  <advance width="896"/>
  <unicode hex="02DD"/>
  <outline>
    <contour>
      <point x="508.8" y="1207.0" type="qcurve" smooth="yes"/>
      <point x="506.88" y="1200.48"/>
      <point x="488.2" y="1181.32"/>
      <point x="479.12" y="1175.8" type="qcurve" smooth="yes"/>
      <point x="266.04" y="1025.16" type="line"/>
      <point x="257.04" y="1036.16" type="line"/>
      <point x="440.96" y="1217.84" type="line" smooth="yes"/>
      <point x="450.52" y="1227.4"/>
      <point x="472.4" y="1241.88"/>
      <point x="485.44" y="1239.96" type="qcurve" smooth="yes"/>
      <point x="498.08" y="1238.52"/>
      <point x="512.16" y="1219.04"/>
    </contour>
    <contour>
      <point x="723.28" y="1206.44" type="qcurve" smooth="yes"/>
      <point x="721.36" y="1199.92"/>
      <point x="701.16" y="1178.2"/>
      <point x="692.6" y="1173.2" type="qcurve" smooth="yes"/>
      <point x="477.96" y="1025.16" type="line"/>
      <point x="468.96" y="1036.16" type="line"/>
      <point x="653.4" y="1219.4" type="line" smooth="yes"/>
      <point x="662.96" y="1228.96"/>
      <point x="687.4" y="1243.92"/>
      <point x="698.88" y="1242.0" type="qcurve" smooth="yes"/>
      <point x="711.0" y="1240.56"/>
      <point x="726.64" y="1219.52"/>
    </contour>
  </outline>
</glyph>
<glyph name="hookabovecomb" format="2">
  <advance width="896"/>
  <unicode hex="0309"/>
  <outline>
    <contour>
      <point x="358.36" y="925.24" type="line"/>
      <point x="357.32" y="998.6" type="line"/>
      <point x="364.68" y="1026.44" type="line"/>
      <point x="380.52" y="1021.4"/>
      <point x="460.4" y="1009.88"/>
      <point x="488.36" y="1009.88" type="qcurve" smooth="yes"/>
      <point x="554.52" y="1009.88"/>
      <point x="614.4" y="1073.32"/>
      <point x="614.4" y="1128.28" type="qcurve" smooth="yes"/>
      <point x="614.4" y="1180.32"/>
      <point x="552.24" y="1237.28"/>
      <point x="487.2" y="1237.28" type="qcurve" smooth="yes"/>
      <point x="425.84" y="1237.28"/>
      <point x="323.76" y="1197.56"/>
      <point x="298.12" y="1176.64" type="qcurve"/>
      <point x="291.68" y="1186.6" type="line"/>
      <point x="318.28" y="1209.48"/>
      <point x="427.2" y="1255.2"/>
      <point x="496.56" y="1255.2" type="qcurve" smooth="yes"/>
      <point x="572.96" y="1255.2"/>
      <point x="679.68" y="1194.84"/>
      <point x="679.68" y="1133.28" type="qcurve" smooth="yes"/>
      <point x="679.68" y="1070.48"/>
      <point x="579.64" y="992.4"/>
      <point x="489.48" y="992.4" type="qcurve"/>
      <point x="457.44" y="992.4"/>
      <point x="394.48" y="1000.36"/>
      <point x="377.0" y="1003.88" type="qcurve"/>
      <point x="377.0" y="925.24" type="line"/>
    </contour>
  </outline>
</glyph>
<glyph name="breveinvertedcomb" format="2">
  <advance width="896"/>
  <unicode hex="030F"/>
  <outline>
    <contour>
      <point x="262.84000000000003" y="1016.8" type="qcurve"/>
      <point x="251.48000000000002" y="1021.72" type="line"/>
      <point x="270.72" y="1079.0"/>
      <point x="370.48" y="1190.96"/>
      <point x="447.0" y="1190.96" type="qcurve" smooth="yes"/>
      <point x="523.52" y="1190.96"/>
      <point x="622.32" y="1079.8"/>
      <point x="643.52" y="1020.64" type="qcurve"/>
      <point x="632.64" y="1014.24" type="line"/>
      <point x="610.52" y="1067.0"/>
      <point x="514.08" y="1132.16"/>
      <point x="447.0" y="1132.64" type="qcurve" smooth="yes"/>
      <point x="380.48" y="1133.12"/>
      <point x="282.0" y="1064.48"/>
    </contour>
  </outline>
</glyph>
<glyph name="dblgravecomb" format="2">
  <advance width="896"/>
  <unicode hex="0311"/>
  <outline>
    <contour>
      <point x="180.60000000000002" y="1194.6" type="qcurve" smooth="yes"/>
      <point x="180.60000000000002" y="1211.16"/>
      <point x="199.56" y="1234.6"/>
      <point x="218.04000000000002" y="1234.6" type="qcurve" smooth="yes"/>
      <point x="235.48000000000002" y="1234.6"/>
      <point x="262.0" y="1209.48"/>
      <point x="279.44" y="1191.96" type="qcurve" smooth="yes"/>
      <point x="482.8" y="994.6" type="line"/>
      <point x="476.8" y="986.6" type="line"/>
      <point x="239.44" y="1139.8" type="line" smooth="yes"/>
      <point x="221.48000000000002" y="1151.28"/>
      <point x="180.60000000000002" y="1176.68"/>
    </contour>
    <contour>
      <point x="423.92" y="1200.84" type="qcurve" smooth="yes"/>
      <point x="423.92" y="1215.84"/>
      <point x="442.36" y="1237.72"/>
      <point x="461.36" y="1237.72" type="qcurve" smooth="yes"/>
      <point x="478.8" y="1237.72"/>
      <point x="504.28" y="1212.6"/>
      <point x="522.24" y="1194.04" type="qcurve" smooth="yes"/>
      <point x="725.6" y="994.6" type="line"/>
      <point x="719.6" y="986.6" type="line"/>
      <point x="484.32" y="1141.36" type="line" smooth="yes"/>
      <point x="465.84" y="1153.88"/>
      <point x="423.92" y="1180.84"/>
    </contour>
  </outline>
</glyph>
<glyph name="dotbelowcomb" format="2">
  <advance width="896"/>
  <unicode hex="0323"/>
  <outline>
    <contour>
      <point x="387.52" y="-181.64" type="qcurve" smooth="yes"/>
      <point x="387.52" y="-156.28"/>
      <point x="423.2" y="-122.72"/>
      <point x="447.52" y="-122.72" type="qcurve" smooth="yes"/>
      <point x="471.32" y="-122.72"/>
      <point x="505.36" y="-154.64"/>
      <point x="505.36" y="-181.64" type="qcurve" smooth="yes"/>
      <point x="505.36" y="-207.51999999999998"/>
      <point x="471.76" y="-241.6"/>
      <point x="447.52" y="-241.6" type="qcurve" smooth="yes"/>
      <point x="421.6" y="-241.6"/>
      <point x="387.52" y="-208.07999999999998"/>
    </contour>
  </outline>
</glyph>
<glyph name="dieresisbelowcomb" format="2">
  <advance width="896"/>
  <unicode hex="0324"/>
  <outline>
    <contour>
      <point x="206.84" y="-148.04" type="qcurve" smooth="yes"/>
      <point x="206.84" y="-123.16"/>
      <point x="242.04" y="-91.52"/>
      <point x="266.36" y="-91.52" type="qcurve" smooth="yes"/>
      <point x="289.2" y="-91.52"/>
      <point x="320.84" y="-122.0"/>
      <point x="320.84" y="-148.04" type="qcurve" smooth="yes"/>
      <point x="320.84" y="-173.44"/>
      <point x="289.64" y="-205.6"/>
      <point x="266.36" y="-205.6" type="qcurve" smooth="yes"/>
      <point x="239.96" y="-205.6"/>
      <point x="206.84" y="-174.48"/>
    </contour>
    <contour>
      <point x="574.68" y="-148.04" type="qcurve" smooth="yes"/>
      <point x="574.68" y="-123.16"/>
      <point x="606.84" y="-91.52"/>
      <point x="629.64" y="-91.52" type="qcurve" smooth="yes"/>
      <point x="655.56" y="-91.52"/>
      <point x="688.68" y="-122.0"/>
      <point x="688.68" y="-148.04" type="qcurve" smooth="yes"/>
      <point x="688.68" y="-173.44"/>
      <point x="654.44" y="-205.6"/>
      <point x="629.64" y="-205.6" type="qcurve" smooth="yes"/>
      <point x="606.8" y="-205.6"/>
      <point x="574.68" y="-174.48"/>
    </contour>
  </outline>
</glyph>
<glyph name="commaaccentcomb" format="2">
  <advance width="896"/>
  <unicode hex="0326"/>
  <outline>
    <contour>
      <point x="366.2" y="-363.0" type="line"/>
      <point x="395.28" y="-341.52"/>
      <point x="461.2" y="-247.2"/>
      <point x="462.2" y="-196.2" type="qcurve"/>
      <point x="420.56" y="-205.2"/>
      <point x="370.92" y="-181.64"/>
      <point x="370.92" y="-153.64" type="qcurve" smooth="yes"/>
      <point x="370.92" y="-124.64"/>
      <point x="402.4" y="-100.2"/>
      <point x="425.4" y="-100.2" type="qcurve" smooth="yes"/>
      <point x="452.4" y="-100.2"/>
      <point x="493.2" y="-142.2"/>
      <point x="493.2" y="-185.2" type="qcurve" smooth="yes"/>
      <point x="493.2" y="-239.2"/>
      <point x="408.72" y="-348.04"/>
      <point x="371.2" y="-370.0" type="qcurve"/>
    </contour>
  </outline>
</glyph>
<glyph name="brevebelowcomb" format="2">
  <advance width="896"/>
  <unicode hex="032E"/>
  <outline>
    <contour>
      <point x="645.0" y="-44.6" type="qcurve"/>
      <point x="656.0" y="-47.6" type="line"/>
      <point x="637.28" y="-111.64"/>
      <point x="530.72" y="-240.8"/>
      <point x="449.0" y="-240.8" type="qcurve" smooth="yes"/>
      <point x="367.28" y="-240.8"/>
      <point x="258.6" y="-122.8"/>
      <point x="229.6" y="-54.8" type="qcurve"/>
      <point x="240.6" y="-49.8" type="line"/>
      <point x="272.6" y="-121.8"/>
      <point x="378.28" y="-188.92"/>
      <point x="449.0" y="-188.0" type="qcurve" smooth="yes"/>
      <point x="520.2" y="-189.96"/>
      <point x="624.28" y="-114.64"/>
    </contour>
  </outline>
</glyph>
<glyph name="macronbelowcomb" format="2">
  <advance width="896"/>
  <unicode hex="0331"/>
  <outline>
    <contour>
      <point x="219.28" y="-301.96" type="line"/>
      <point x="219.28" y="-296.84" type="line"/>
      <point x="676.72" y="-296.84" type="line"/>
      <point x="676.72" y="-301.96" type="line"/>
    </contour>
  </outline>
</glyph>
<glyph name="horizontalbar" format="2">
  <advance width="890"/>
  <unicode hex="2015"/>
  <outline>
    <contour>
      <point x="390.24" y="799.6" type="line"/>
      <point x="107.12" y="799.6" type="line"/>
      <point x="111.6" y="833.68" type="line"/>
      <point x="378.6" y="833.68" type="line"/>
      <point x="715.0799999999999" y="833.68" type="line"/>
      <point x="713.0799999999999" y="799.6" type="line"/>
    </contour>
  </outline>
</glyph>
<glyph name="quoteright" format="2">
  <advance width="366"/>
  <unicode hex="2019"/>
  <outline>
    <contour>
      <point x="94.0" y="1233.6" type="line"/>
      <point x="147.0" y="1282.6"/>
      <point x="212.6" y="1422.4"/>
      <point x="215.6" y="1454.84" type="qcurve"/>
      <point x="172.2" y="1444.36"/>
      <point x="122.84" y="1477.8"/>
      <point x="122.84" y="1504.24" type="qcurve" smooth="yes"/>
      <point x="122.84" y="1529.68"/>
      <point x="159.64" y="1566.6"/>
      <point x="185.07999999999998" y="1566.6" type="qcurve" smooth="yes"/>
      <point x="211.52" y="1566.6"/>
      <point x="251.0" y="1531.68"/>
      <point x="251.0" y="1492.76" type="qcurve" smooth="yes"/>
      <point x="251.0" y="1431.88"/>
      <point x="161.0" y="1278.6"/>
      <point x="102.0" y="1228.6" type="qcurve"/>
    </contour>
  </outline>
</glyph>
<glyph name="quotedblleft" format="2">
  <advance width="617"/>
  <unicode hex="201C"/>
  <outline>
    <contour>
      <point x="235.4" y="1572.0" type="line"/>
      <point x="187.6" y="1523.0"/>
      <point x="127.2" y="1383.2"/>
      <point x="124.2" y="1350.76" type="qcurve"/>
      <point x="167.6" y="1361.24"/>
      <point x="216.96" y="1327.8"/>
      <point x="216.96" y="1301.36" type="qcurve" smooth="yes"/>
      <point x="216.96" y="1275.92"/>
      <point x="182.56" y="1239.0"/>
      <point x="157.12" y="1239.0" type="qcurve" smooth="yes"/>
      <point x="130.68" y="1239.0"/>
      <point x="88.8" y="1273.92"/>
      <point x="88.8" y="1312.84" type="qcurve" smooth="yes"/>
      <point x="88.8" y="1373.72"/>
      <point x="173.6" y="1527.0"/>
      <point x="227.4" y="1577.0" type="qcurve"/>
    </contour>
    <contour>
      <point x="507.4" y="1572.0" type="line"/>
      <point x="459.6" y="1523.0"/>
      <point x="399.2" y="1383.2"/>
      <point x="396.2" y="1350.76" type="qcurve"/>
      <point x="439.6" y="1361.24"/>
      <point x="488.96" y="1327.8"/>
      <point x="488.96" y="1301.36" type="qcurve" smooth="yes"/>
      <point x="488.96" y="1275.92"/>
      <point x="454.56" y="1239.0"/>
      <point x="429.12" y="1239.0" type="qcurve" smooth="yes"/>
      <point x="402.68" y="1239.0"/>
      <point x="360.8" y="1273.92"/>
      <point x="360.8" y="1312.84" type="qcurve" smooth="yes"/>
      <point x="360.8" y="1373.72"/>
      <point x="445.6" y="1527.0"/>
      <point x="499.4" y="1577.0" type="qcurve"/>
    </contour>
  </outline>
</glyph>
<glyph name="quotedblright" format="2">
  <advance width="617"/>
  <unicode hex="201D"/>
  <outline>
    <contour>
      <point x="89.84" y="1233.6" type="line"/>
      <point x="140.24" y="1287.8"/>
      <point x="198.04" y="1422.4"/>
      <point x="201.04" y="1454.84" type="qcurve"/>
      <point x="157.64" y="1444.36"/>
      <point x="108.28" y="1477.8"/>
      <point x="108.28" y="1504.24" type="qcurve" smooth="yes"/>
      <point x="108.28" y="1529.68"/>
      <point x="140.28" y="1566.6"/>
      <point x="165.72" y="1566.6" type="qcurve" smooth="yes"/>
      <point x="192.16" y="1566.6"/>
      <point x="236.44" y="1531.68"/>
      <point x="236.44" y="1492.76" type="qcurve" smooth="yes"/>
      <point x="236.44" y="1431.88"/>
      <point x="154.24" y="1283.8"/>
      <point x="97.84" y="1228.6" type="qcurve"/>
    </contour>
    <contour>
      <point x="361.84000000000003" y="1233.6" type="line"/>
      <point x="412.24" y="1287.8"/>
      <point x="470.03999999999996" y="1422.4"/>
      <point x="473.03999999999996" y="1454.84" type="qcurve"/>
      <point x="429.64" y="1444.36"/>
      <point x="380.28" y="1477.8"/>
      <point x="380.28" y="1504.24" type="qcurve" smooth="yes"/>
      <point x="380.28" y="1529.68"/>
      <point x="412.28" y="1566.6"/>
      <point x="437.72" y="1566.6" type="qcurve" smooth="yes"/>
      <point x="464.15999999999997" y="1566.6"/>
      <point x="508.44" y="1531.68"/>
      <point x="508.44" y="1492.76" type="qcurve" smooth="yes"/>
      <point x="508.44" y="1431.88"/>
      <point x="426.24" y="1283.8"/>
      <point x="369.84000000000003" y="1228.6" type="qcurve"/>
    </contour>
  </outline>
</glyph>
<glyph name="daggerdbl" format="2">
  <advance width="838"/>
  <unicode hex="2021"/>
  <outline>
    <contour>
      <point x="418.0" y="-480.0" type="line"/>
      <point x="402.0" y="-28.0" type="line"/>
      <point x="396.03999999999996" y="650.0" type="line"/>
      <point x="398.03999999999996" y="930.0" type="line"/>
      <point x="395.56" y="1468.0" type="line"/>
      <point x="396.56" y="1506.0" type="line"/>
      <point x="444.92" y="1506.0" type="line"/>
      <point x="447.92" y="1468.0" type="line"/>
      <point x="444.96" y="930.0" type="line"/>
      <point x="444.96" y="650.0" type="line"/>
      <point x="438.0" y="-28.0" type="line"/>
      <point x="429.0" y="-480.0" type="line"/>
    </contour>
    <contour>
      <point x="52.0" y="874.0" type="line"/>
      <point x="52.0" y="913.0" type="line"/>
      <point x="421.0" y="905.28" type="line"/>
      <point x="786.0" y="913.0" type="line"/>
      <point x="786.0" y="874.0" type="line"/>
      <point x="420.48" y="876.2" type="line"/>
    </contour>
    <contour>
      <point x="52.0" y="422.0" type="line"/>
      <point x="52.0" y="461.0" type="line"/>
      <point x="421.0" y="453.8" type="line"/>
      <point x="786.0" y="461.0" type="line"/>
      <point x="786.0" y="422.0" type="line"/>
      <point x="421.0" y="424.2" type="line"/>
    </contour>
  </outline>
</glyph>
<glyph name="perthousand" format="2">
  <advance width="2218"/>
  <unicode hex="2030"/>
  <outline>
    <contour>
      <point x="55.0" y="1108.2" type="qcurve"/>
      <point x="55.0" y="1287.84"/>
      <point x="236.48" y="1525.8"/>
      <point x="366.88" y="1525.8" type="qcurve" smooth="yes"/>
      <point x="507.76" y="1525.8"/>
      <point x="680.76" y="1291.88"/>
      <point x="680.76" y="1115.0" type="qcurve" smooth="yes"/>
      <point x="680.76" y="933.96"/>
      <point x="505.4" y="682.0"/>
      <point x="365.0" y="682.0" type="qcurve" smooth="yes"/>
      <point x="223.16" y="682.0"/>
      <point x="55.0" y="933.24"/>
    </contour>
    <contour>
      <point x="115.28" y="1110.28" type="qcurve" smooth="yes"/>
      <point x="116.75999999999999" y="939.52"/>
      <point x="236.84" y="690.92"/>
      <point x="366.88" y="690.92" type="qcurve" smooth="yes"/>
      <point x="492.12" y="690.92"/>
      <point x="620.44" y="938.96"/>
      <point x="620.44" y="1114.08" type="qcurve" smooth="yes"/>
      <point x="620.44" y="1292.84"/>
      <point x="495.03999999999996" y="1515.36"/>
      <point x="367.36" y="1515.36" type="qcurve" smooth="yes"/>
      <point x="242.56" y="1515.36"/>
      <point x="113.8" y="1280.52"/>
    </contour>
    <contour>
      <point x="308.32" y="-15.04" type="line"/>
      <point x="1168.44" y="1519.44" type="line"/>
      <point x="1180.88" y="1511.12" type="line"/>
      <point x="319.32" y="-22.92" type="line"/>
    </contour>
    <contour>
      <point x="836.9200000000001" y="418.44" type="qcurve" smooth="yes"/>
      <point x="836.9200000000001" y="595.64"/>
      <point x="1018.4" y="830.32"/>
      <point x="1148.8" y="830.32" type="qcurve" smooth="yes"/>
      <point x="1290.2" y="830.32"/>
      <point x="1462.6799999999998" y="604.48"/>
      <point x="1462.6799999999998" y="425.24" type="qcurve" smooth="yes"/>
      <point x="1462.6799999999998" y="230.92"/>
      <point x="1287.32" y="-13.48"/>
      <point x="1146.92" y="-13.48" type="qcurve" smooth="yes"/>
      <point x="1005.5999999999999" y="-13.48"/>
      <point x="836.9200000000001" y="235.0"/>
    </contour>
    <contour>
      <point x="897.72" y="419.48" type="qcurve" smooth="yes"/>
      <point x="899.2" y="237.44"/>
      <point x="1019.8" y="-5.08"/>
      <point x="1148.8" y="-5.08" type="qcurve" smooth="yes"/>
      <point x="1274.56" y="-5.08"/>
      <point x="1402.3600000000001" y="235.44"/>
      <point x="1402.3600000000001" y="423.8" type="qcurve" smooth="yes"/>
      <point x="1402.3600000000001" y="606.44"/>
      <point x="1276.96" y="820.4"/>
      <point x="1149.28" y="820.4" type="qcurve" smooth="yes"/>
      <point x="1025.0" y="820.4"/>
      <point x="896.24" y="591.64"/>
    </contour>
    <contour>
      <point x="1537.6" y="418.44" type="qcurve" smooth="yes"/>
      <point x="1537.6" y="595.64"/>
      <point x="1719.08" y="830.32"/>
      <point x="1849.48" y="830.32" type="qcurve" smooth="yes"/>
      <point x="1990.88" y="830.32"/>
      <point x="2163.36" y="604.48"/>
      <point x="2163.36" y="425.24" type="qcurve" smooth="yes"/>
      <point x="2163.36" y="230.92"/>
      <point x="1988.0" y="-13.48"/>
      <point x="1847.6" y="-13.48" type="qcurve" smooth="yes"/>
      <point x="1706.28" y="-13.48"/>
      <point x="1537.6" y="235.0"/>
    </contour>
    <contour>
      <point x="1598.4" y="419.48" type="qcurve" smooth="yes"/>
      <point x="1599.88" y="237.44"/>
      <point x="1720.48" y="-5.08"/>
      <point x="1849.48" y="-5.08" type="qcurve" smooth="yes"/>
      <point x="1975.24" y="-5.08"/>
      <point x="2103.04" y="235.44"/>
      <point x="2103.04" y="423.8" type="qcurve" smooth="yes"/>
      <point x="2103.04" y="606.44"/>
      <point x="1977.6399999999999" y="820.4"/>
      <point x="1849.96" y="820.4" type="qcurve" smooth="yes"/>
      <point x="1725.6799999999998" y="820.4"/>
      <point x="1596.92" y="591.64"/>
    </contour>
  </outline>
</glyph>
<glyph name="guilsinglleft" format="2">
  <advance width="699"/>
  <unicode hex="2039"/>
  <outline>
    <contour>
      <point x="84.6" y="616.0" type="line"/>
      <point x="116.72" y="640.48"/>
      <point x="539.48" y="995.6"/>
      <point x="565.96" y="1013.0" type="qcurve" smooth="yes"/>
      <point x="569.92" y="1016.0"/>
      <point x="576.84" y="1001.0"/>
      <point x="572.88" y="998.0" type="qcurve" smooth="yes"/>
      <point x="545.2" y="975.0"/>
      <point x="134.44" y="609.0"/>
      <point x="120.44" y="598.0" type="qcurve"/>
      <point x="132.44" y="586.0"/>
      <point x="562.0" y="245.0"/>
      <point x="605.04" y="213.0" type="qcurve" smooth="yes"/>
      <point x="613.96" y="206.0"/>
      <point x="610.0" y="184.0"/>
      <point x="597.64" y="194.0" type="qcurve" smooth="yes"/>
      <point x="550.64" y="229.0"/>
      <point x="135.56" y="539.4"/>
      <point x="84.6" y="585.0" type="qcurve"/>
    </contour>
  </outline>
</glyph>
<glyph name="guilsinglright" format="2">
  <advance width="699"/>
  <unicode hex="203A"/>
  <outline>
    <contour>
      <point x="620.2" y="582.56" type="line"/>
      <point x="546.3199999999999" y="530.24"/>
      <point x="120.68" y="184.24"/>
      <point x="110.52" y="178.36" type="qcurve" smooth="yes"/>
      <point x="97.92" y="171.52"/>
      <point x="91.96000000000001" y="190.84"/>
      <point x="103.6" y="198.16" type="qcurve" smooth="yes"/>
      <point x="154.32" y="233.16"/>
      <point x="560.28" y="579.48"/>
      <point x="576.2" y="592.4" type="qcurve"/>
      <point x="563.24" y="604.4"/>
      <point x="178.8" y="919.0"/>
      <point x="111.28" y="968.28" type="qcurve" smooth="yes"/>
      <point x="100.92" y="976.24"/>
      <point x="108.24" y="998.72"/>
      <point x="118.68" y="989.68" type="qcurve" smooth="yes"/>
      <point x="176.24" y="944.6"/>
      <point x="587.96" y="639.48"/>
      <point x="620.2" y="603.48" type="qcurve"/>
    </contour>
  </outline>
</glyph>
<glyph name="commercialMinusSign" format="2">
  <advance width="860"/>
  <unicode hex="2052"/>
  <outline>
    <contour>
      <point x="154.56" y="-28.68" type="line"/>
      <point x="769.6" y="1508.0" type="line"/>
      <point x="727.2" y="1510.24" type="line"/>
      <point x="113.6" y="-25.0" type="line"/>
    </contour>
    <contour>
      <point x="567.52" y="67.36" type="qcurve" smooth="yes"/>
      <point x="567.52" y="101.8"/>
      <point x="616.44" y="152.72"/>
      <point x="654.88" y="152.72" type="qcurve" smooth="yes"/>
      <point x="693.3199999999999" y="152.72"/>
      <point x="742.24" y="101.8"/>
      <point x="742.24" y="67.36" type="qcurve" smooth="yes"/>
      <point x="742.24" y="32.92"/>
      <point x="693.3199999999999" y="-18.0"/>
      <point x="654.88" y="-18.0" type="qcurve" smooth="yes"/>
      <point x="616.44" y="-18.0"/>
      <point x="567.52" y="32.92"/>
    </contour>
    <contour>
      <point x="151.04" y="1432.64" type="qcurve" smooth="yes"/>
      <point x="151.04" y="1467.08"/>
      <point x="199.96" y="1518.0"/>
      <point x="238.4" y="1518.0" type="qcurve" smooth="yes"/>
      <point x="276.84" y="1518.0"/>
      <point x="325.76" y="1467.08"/>
      <point x="325.76" y="1432.64" type="qcurve" smooth="yes"/>
      <point x="325.76" y="1398.2"/>
      <point x="276.84" y="1347.28"/>
      <point x="238.4" y="1347.28" type="qcurve" smooth="yes"/>
      <point x="199.96" y="1347.28"/>
      <point x="151.04" y="1398.2"/>
    </contour>
  </outline>
</glyph>
<glyph name="colonsign" format="2">
  <advance width="784"/>
  <unicode hex="20A1"/>
  <outline>
    <contour>
      <point x="62.480000000000004" y="764.0" type="qcurve" smooth="yes"/>
      <point x="62.480000000000004" y="1127.6"/>
      <point x="277.92" y="1518.0"/>
      <point x="439.76" y="1518.0" type="qcurve" smooth="yes"/>
      <point x="592.56" y="1518.0"/>
      <point x="742.9200000000001" y="1302.0"/>
      <point x="760.5999999999999" y="1093.0" type="qcurve"/>
      <point x="739.24" y="1088.0" type="line"/>
      <point x="719.56" y="1289.0"/>
      <point x="578.64" y="1494.0"/>
      <point x="436.68" y="1494.0" type="qcurve" smooth="yes"/>
      <point x="285.4" y="1494.0"/>
      <point x="122.75999999999999" y="1097.44"/>
      <point x="122.75999999999999" y="753.0" type="qcurve" smooth="yes"/>
      <point x="122.75999999999999" y="406.76"/>
      <point x="320.8" y="6.76"/>
      <point x="463.68" y="6.76" type="qcurve" smooth="yes"/>
      <point x="578.64" y="6.76"/>
      <point x="717.5999999999999" y="169.76"/>
      <point x="745.12" y="255.76" type="qcurve"/>
      <point x="760.5999999999999" y="243.76" type="line"/>
      <point x="733.5999999999999" y="152.76"/>
      <point x="594.04" y="-19.240000000000002"/>
      <point x="466.28" y="-19.240000000000002" type="qcurve" smooth="yes"/>
      <point x="312.6" y="-19.240000000000002"/>
      <point x="62.480000000000004" y="363.68"/>
    </contour>
    <contour>
      <point x="357.88" y="-133.4" type="line"/>
      <point x="384.03999999999996" y="14.600000000000001" type="line"/>
      <point x="383.56" y="14.600000000000001" type="line"/>
      <point x="518.8" y="795.6" type="line"/>
      <point x="535.64" y="777.6" type="line"/>
      <point x="403.84000000000003" y="8.600000000000001" type="line"/>
      <point x="403.84000000000003" y="8.600000000000001" type="line"/>
      <point x="382.64" y="-131.4" type="line"/>
    </contour>
    <contour>
      <point x="653.56" y="1582.6" type="line"/>
      <point x="675.8399999999999" y="1582.6" type="line"/>
      <point x="647.04" y="1423.68" type="line"/>
      <point x="647.04" y="1423.68" type="line"/>
      <point x="535.64" y="777.6" type="line"/>
      <point x="518.8" y="795.6" type="line"/>
      <point x="627.72" y="1439.68" type="line"/>
      <point x="627.72" y="1439.68" type="line"/>
    </contour>
    <contour>
      <point x="215.28" y="-79.0" type="line"/>
      <point x="253.92000000000002" y="119.2" type="line"/>
      <point x="253.92000000000002" y="119.2" type="line"/>
      <point x="367.32" y="780.0" type="line"/>
      <point x="384.68" y="762.0" type="line"/>
      <point x="272.24" y="101.2" type="line"/>
      <point x="272.24" y="101.2" type="line"/>
      <point x="240.04" y="-77.0" type="line"/>
    </contour>
    <contour>
      <point x="507.03999999999996" y="1606.0" type="line"/>
      <point x="530.8" y="1606.0" type="line"/>
      <point x="512.52" y="1499.0" type="line"/>
      <point x="512.52" y="1499.0" type="line"/>
      <point x="384.68" y="762.0" type="line"/>
      <point x="367.32" y="780.0" type="line"/>
      <point x="489.76" y="1502.0" type="line"/>
      <point x="489.76" y="1502.0" type="line"/>
    </contour>
  </outline>
</glyph>
<glyph name="franc" format="2">
  <advance width="824"/>
  <unicode hex="20A3"/>
  <outline>
    <contour>
      <point x="51.72" y="0.0" type="line"/>
      <point x="51.72" y="15.92" type="line"/>
      <point x="232.36" y="43.72" type="line"/>
      <point x="234.36" y="766.88" type="line"/>
      <point x="232.36" y="1452.32" type="line"/>
      <point x="51.72" y="1480.64" type="line"/>
      <point x="51.72" y="1500.0" type="line"/>
      <point x="767.8399999999999" y="1500.0" type="line"/>
      <point x="767.8399999999999" y="1138.2" type="line"/>
      <point x="752.96" y="1138.2" type="line"/>
      <point x="680.48" y="1479.56" type="line"/>
      <point x="306.48" y="1481.0" type="line"/>
      <point x="286.68" y="1447.2" type="line"/>
      <point x="288.2" y="815.0" type="line"/>
      <point x="290.2" y="48.2" type="line"/>
      <point x="478.28" y="15.92" type="line"/>
      <point x="478.28" y="0.0" type="line"/>
    </contour>
    <contour>
      <point x="271.2" y="775.52" type="line"/>
      <point x="271.2" y="797.84" type="line"/>
      <point x="613.0799999999999" y="797.44" type="line"/>
      <point x="666.28" y="964.8" type="line"/>
      <point x="680.3199999999999" y="964.8" type="line"/>
      <point x="680.3199999999999" y="590.8" type="line"/>
      <point x="666.28" y="590.8" type="line"/>
      <point x="613.0799999999999" y="771.56" type="line"/>
    </contour>
    <contour>
      <point x="30.0" y="411.4" type="line"/>
      <point x="31.2" y="438.2" type="line"/>
      <point x="581.4" y="438.2" type="line"/>
      <point x="579.6" y="411.4" type="line"/>
    </contour>
  </outline>
</glyph>
<glyph name="peseta" format="2">
  <advance width="2029"/>
  <unicode hex="20A7"/>
  <outline>
    <contour>
      <point x="67.12" y="0.0" type="line"/>
      <point x="67.12" y="15.4" type="line"/>
      <point x="235.84" y="49.36" type="line"/>
      <point x="237.84" y="762.0" type="line"/>
      <point x="235.84" y="1447.12" type="line"/>
      <point x="66.12" y="1482.08" type="line"/>
      <point x="66.12" y="1500.0" type="line"/>
      <point x="572.28" y="1500.0" type="line" smooth="yes"/>
      <point x="760.56" y="1500.0"/>
      <point x="972.04" y="1298.0"/>
      <point x="972.04" y="1102.0" type="qcurve" smooth="yes"/>
      <point x="972.04" y="856.6"/>
      <point x="736.4" y="639.8"/>
      <point x="561.4" y="639.8" type="qcurve" smooth="yes"/>
      <point x="474.2" y="639.8"/>
      <point x="296.44" y="658.28"/>
      <point x="260.08" y="669.88" type="qcurve"/>
      <point x="268.24" y="689.44" type="line"/>
      <point x="297.03999999999996" y="681.88"/>
      <point x="494.03999999999996" y="660.36"/>
      <point x="574.2" y="660.36" type="qcurve" smooth="yes"/>
      <point x="716.52" y="660.36"/>
      <point x="905.88" y="851.08"/>
      <point x="905.88" y="1095.0" type="qcurve" smooth="yes"/>
      <point x="905.88" y="1292.0"/>
      <point x="724.12" y="1481.12"/>
      <point x="550.6800000000001" y="1478.04" type="qcurve" smooth="yes"/>
      <point x="312.12" y="1477.0" type="line"/>
      <point x="293.64" y="1449.48" type="line"/>
      <point x="292.2" y="766.0" type="line"/>
      <point x="294.2" y="51.96" type="line"/>
      <point x="480.36" y="15.44" type="line"/>
      <point x="480.36" y="0.0" type="line"/>
    </contour>
    <contour>
      <point x="965.3199999999999" y="880.76" type="line"/>
      <point x="965.3199999999999" y="904.56" type="line"/>
      <point x="1067.32" y="912.32"/>
      <point x="1135.6399999999999" y="1031.48"/>
      <point x="1148.24" y="1228.8" type="qcurve"/>
      <point x="1156.6399999999999" y="1228.8" type="line"/>
      <point x="1163.6399999999999" y="1206.76" type="line"/>
      <point x="1156.76" y="909.28" type="line"/>
      <point x="1398.12" y="909.28" type="line"/>
      <point x="1398.12" y="880.96" type="line"/>
      <point x="1156.76" y="880.96" type="line"/>
      <point x="1158.76" y="477.0" type="line"/>
      <point x="1159.72" y="182.8" type="line" smooth="yes"/>
      <point x="1160.2" y="100.48"/>
      <point x="1207.36" y="40.52"/>
      <point x="1259.36" y="37.92" type="qcurve" smooth="yes"/>
      <point x="1367.2" y="32.2" type="line"/>
      <point x="1367.2" y="22.8" type="line"/>
      <point x="1224.6" y="-8.0" type="line"/>
      <point x="1172.44" y="-7.48"/>
      <point x="1106.96" y="63.76"/>
      <point x="1106.96" y="128.44" type="qcurve" smooth="yes"/>
      <point x="1106.96" y="477.0" type="line"/>
      <point x="1103.52" y="878.96" type="line"/>
    </contour>
    <contour>
      <point x="1375.3600000000001" y="9.36" type="line"/>
      <point x="1376.4" y="316.0" type="line"/>
      <point x="1389.1999999999998" y="316.0" type="line"/>
      <point x="1408.24" y="230.72" type="line" smooth="yes"/>
      <point x="1432.72" y="121.24"/>
      <point x="1603.52" y="-3.1999999999999993"/>
      <point x="1714.56" y="-3.7199999999999998" type="qcurve" smooth="yes"/>
      <point x="1827.84" y="-4.24"/>
      <point x="1950.52" y="122.2"/>
      <point x="1950.52" y="207.88" type="qcurve" smooth="yes"/>
      <point x="1950.52" y="294.12"/>
      <point x="1807.6399999999999" y="405.0"/>
      <point x="1675.32" y="454.72" type="qcurve" smooth="yes"/>
      <point x="1522.6799999999998" y="513.04"/>
      <point x="1387.08" y="639.72"/>
      <point x="1387.08" y="737.12" type="qcurve" smooth="yes"/>
      <point x="1387.08" y="830.12"/>
      <point x="1525.0" y="945.84"/>
      <point x="1637.8400000000001" y="945.84" type="qcurve" smooth="yes"/>
      <point x="1747.08" y="945.84"/>
      <point x="1870.96" y="876.12"/>
      <point x="1901.76" y="835.08" type="qcurve"/>
      <point x="1928.1599999999999" y="931.12" type="line"/>
      <point x="1941.08" y="931.12" type="line"/>
      <point x="1941.08" y="596.88" type="line"/>
      <point x="1929.1999999999998" y="596.88" type="line"/>
      <point x="1910.84" y="711.92" type="line" smooth="yes"/>
      <point x="1890.6" y="829.88"/>
      <point x="1743.6799999999998" y="929.84"/>
      <point x="1640.88" y="929.84" type="qcurve" smooth="yes"/>
      <point x="1528.1999999999998" y="929.84"/>
      <point x="1424.56" y="821.28"/>
      <point x="1424.56" y="747.52" type="qcurve" smooth="yes"/>
      <point x="1424.56" y="673.72"/>
      <point x="1554.32" y="581.96"/>
      <point x="1705.48" y="523.12" type="qcurve" smooth="yes"/>
      <point x="1854.4" y="466.92"/>
      <point x="1988.44" y="337.16"/>
      <point x="1988.44" y="230.16" type="qcurve" smooth="yes"/>
      <point x="1988.44" y="115.24"/>
      <point x="1836.8" y="-18.68"/>
      <point x="1713.6799999999998" y="-18.68" type="qcurve" smooth="yes"/>
      <point x="1600.12" y="-18.68"/>
      <point x="1449.32" y="70.32"/>
      <point x="1426.08" y="107.4" type="qcurve"/>
      <point x="1389.1999999999998" y="9.36" type="line"/>
    </contour>
  </outline>
</glyph>
<glyph name="dong" format="2">
  <advance width="1014"/>
  <unicode hex="20AB"/>
  <outline>
    <contour>
      <point x="53.56" y="458.2" type="qcurve" smooth="yes"/>
      <point x="53.56" y="703.16"/>
      <point x="311.84000000000003" y="941.76"/>
      <point x="503.2" y="941.76" type="qcurve" smooth="yes"/>
      <point x="593.76" y="941.76"/>
      <point x="764.36" y="869.48"/>
      <point x="800.48" y="829.64" type="qcurve"/>
      <point x="800.28" y="1450.92" type="line"/>
      <point x="605.12" y="1483.0" type="line"/>
      <point x="605.12" y="1500.0" type="line"/>
      <point x="841.4" y="1503.0" type="line"/>
      <point x="853.6800000000001" y="1497.0" type="line"/>
      <point x="858.16" y="1471.04" type="line"/>
      <point x="855.2" y="526.0" type="line"/>
      <point x="856.64" y="41.92" type="line"/>
      <point x="997.96" y="14.92" type="line"/>
      <point x="997.96" y="0.0" type="line"/>
      <point x="803.88" y="0.0" type="line"/>
      <point x="797.8" y="10.48" type="line"/>
      <point x="796.88" y="98.88" type="line"/>
      <point x="762.76" y="67.2"/>
      <point x="582.68" y="-15.32"/>
      <point x="470.56" y="-15.32" type="qcurve" smooth="yes"/>
      <point x="290.28" y="-15.32"/>
      <point x="53.56" y="216.2"/>
    </contour>
    <contour>
      <point x="116.92" y="456.48" type="qcurve" smooth="yes"/>
      <point x="116.92" y="226.0"/>
      <point x="304.08" y="3.2"/>
      <point x="474.32" y="3.2" type="qcurve" smooth="yes"/>
      <point x="585.84" y="3.2"/>
      <point x="759.56" y="79.48"/>
      <point x="796.4" y="116.6" type="qcurve"/>
      <point x="798.92" y="519.6" type="line"/>
      <point x="799.96" y="805.0" type="line"/>
      <point x="765.8399999999999" y="846.88"/>
      <point x="590.72" y="921.2"/>
      <point x="497.64" y="921.2" type="qcurve" smooth="yes"/>
      <point x="322.0" y="921.2"/>
      <point x="116.92" y="683.8"/>
    </contour>
    <contour>
      <point x="120.96000000000001" y="-147.2" type="line"/>
      <point x="120.96000000000001" y="-120.52" type="line"/>
      <point x="530.04" y="-120.52" type="line"/>
      <point x="952.96" y="-120.52" type="line"/>
      <point x="952.96" y="-147.2" type="line"/>
      <point x="530.0799999999999" y="-147.2" type="line"/>
    </contour>
    <contour>
      <point x="374.79999999999995" y="1235.56" type="line"/>
      <point x="375.79999999999995" y="1257.2" type="line"/>
      <point x="830.0" y="1257.2" type="line"/>
      <point x="984.0" y="1257.2" type="line"/>
      <point x="984.0" y="1235.56" type="line"/>
      <point x="829.0" y="1235.56" type="line"/>
    </contour>
  </outline>
</glyph>
<glyph name="guarani" format="2">
  <advance width="1035"/>
  <unicode hex="20B2"/>
  <outline>
    <contour>
      <point x="68.84" y="748.0" type="qcurve" smooth="yes"/>
      <point x="68.84" y="1110.0"/>
      <point x="356.64" y="1518.0"/>
      <point x="557.8399999999999" y="1518.0" type="qcurve" smooth="yes"/>
      <point x="704.6800000000001" y="1518.0"/>
      <point x="922.0" y="1297.0"/>
      <point x="948.92" y="1103.0" type="qcurve"/>
      <point x="933.16" y="1099.0" type="line"/>
      <point x="903.8" y="1282.0"/>
      <point x="692.36" y="1494.0"/>
      <point x="554.8399999999999" y="1494.0" type="qcurve" smooth="yes"/>
      <point x="379.64" y="1494.0"/>
      <point x="134.44" y="1137.0"/>
      <point x="134.44" y="778.0" type="qcurve" smooth="yes"/>
      <point x="134.44" y="394.04"/>
      <point x="387.32" y="-4.0"/>
      <point x="579.2" y="-4.0" type="qcurve" smooth="yes"/>
      <point x="719.16" y="-4.0"/>
      <point x="906.12" y="172.0"/>
      <point x="906.12" y="317.0" type="qcurve" smooth="yes"/>
      <point x="906.12" y="507.0" type="line" smooth="yes"/>
      <point x="906.12" y="589.0"/>
      <point x="843.6800000000001" y="649.0"/>
      <point x="737.4" y="652.0" type="qcurve"/>
      <point x="737.88" y="677.0" type="line"/>
      <point x="959.2" y="677.0" type="line"/>
      <point x="965.0799999999999" y="187.0" type="line"/>
      <point x="932.52" y="133.64"/>
      <point x="745.8" y="-26.0"/>
      <point x="580.72" y="-26.0" type="qcurve" smooth="yes"/>
      <point x="365.96" y="-26.0"/>
      <point x="68.84" y="349.64"/>
    </contour>
    <contour>
      <point x="325.48" y="-251.2" type="line"/>
      <point x="385.08" y="40.48" type="line"/>
      <point x="385.08" y="40.48" type="line"/>
      <point x="518.2" y="775.32" type="line"/>
      <point x="539.2" y="762.52" type="line"/>
      <point x="408.03999999999996" y="30.0" type="line"/>
      <point x="408.03999999999996" y="30.0" type="line"/>
      <point x="354.91999999999996" y="-244.0" type="line"/>
    </contour>
    <contour>
      <point x="682.72" y="1706.32" type="line"/>
      <point x="711.16" y="1712.04" type="line"/>
      <point x="669.3199999999999" y="1486.84" type="line"/>
      <point x="669.3199999999999" y="1486.84" type="line"/>
      <point x="539.2" y="762.52" type="line"/>
      <point x="518.2" y="775.32" type="line"/>
      <point x="643.96" y="1493.48" type="line"/>
      <point x="643.96" y="1493.48" type="line"/>
    </contour>
  </outline>
</glyph>
<glyph name="rupeeIndian" format="2">
  <advance width="940"/>
  <unicode hex="20B9"/>
  <outline>
    <contour>
      <point x="-7.0" y="1495.0" type="line"/>
      <point x="496.0" y="1495.0" type="line"/>
      <point x="939.0" y="1500.0" type="line"/>
      <point x="915.0" y="1474.2" type="line"/>
      <point x="463.0" y="1482.0" type="line"/>
      <point x="573.2" y="1462.92"/>
      <point x="727.4" y="1280.0"/>
      <point x="727.4" y="1130.0" type="qcurve" smooth="yes"/>
      <point x="727.4" y="975.0"/>
      <point x="525.44" y="778.28"/>
      <point x="346.0" y="769.84" type="qcurve"/>
      <point x="458.96" y="750.36"/>
      <point x="589.28" y="552.52"/>
      <point x="655.0799999999999" y="344.0" type="qcurve" smooth="yes"/>
      <point x="722.5999999999999" y="145.0"/>
      <point x="810.5999999999999" y="34.0"/>
      <point x="949.0" y="40.0" type="qcurve"/>
      <point x="949.0" y="20.0" type="line"/>
      <point x="799.2" y="-6.0" type="line"/>
      <point x="724.2" y="-2.0"/>
      <point x="647.48" y="133.88"/>
      <point x="595.76" y="300.96" type="qcurve" smooth="yes"/>
      <point x="542.4" y="487.44"/>
      <point x="402.24" y="769.88"/>
      <point x="240.76" y="765.28" type="qcurve" smooth="yes"/>
      <point x="81.6" y="763.84" type="line"/>
      <point x="67.2" y="787.16" type="line"/>
      <point x="364.79999999999995" y="787.16" type="line" smooth="yes"/>
      <point x="488.8" y="787.16"/>
      <point x="649.8" y="981.0"/>
      <point x="649.8" y="1131.0" type="qcurve" smooth="yes"/>
      <point x="649.8" y="1298.0"/>
      <point x="500.32" y="1480.92"/>
      <point x="303.79999999999995" y="1479.0" type="qcurve" smooth="yes"/>
      <point x="0.16000000000000014" y="1473.24" type="line"/>
    </contour>
    <contour>
      <point x="668.4" y="1102.0" type="line"/>
      <point x="668.4" y="1102.0" type="line"/>
      <point x="893.0" y="1106.0" type="line"/>
      <point x="881.0" y="1082.08" type="line"/>
      <point x="678.8" y="1084.0" type="line"/>
      <point x="678.8" y="1084.0" type="line"/>
      <point x="38.2" y="1082.56" type="line"/>
      <point x="32.2" y="1105.0" type="line"/>
    </contour>
  </outline>
</glyph>
<glyph name="manat" format="2">
  <advance width="1089"/>
  <unicode hex="20BC"/>
  <outline>
    <contour>
      <point x="1064.4" y="23.0" type="line"/>
      <point x="1064.4" y="0.0" type="line"/>
      <point x="706.0" y="0.0" type="line"/>
      <point x="706.0" y="23.0" type="line"/>
      <point x="858.8" y="52.0" type="line"/>
      <point x="863.8" y="706.0" type="line"/>
      <point x="860.8" y="1066.4" type="line" smooth="yes"/>
      <point x="859.3199999999999" y="1250.8"/>
      <point x="715.64" y="1434.48"/>
      <point x="541.8" y="1435.0" type="qcurve" smooth="yes"/>
      <point x="368.92" y="1435.52"/>
      <point x="208.32" y="1265.8"/>
      <point x="208.8" y="1075.4" type="qcurve" smooth="yes"/>
      <point x="209.24" y="706.0" type="line"/>
      <point x="208.2" y="52.0" type="line"/>
      <point x="352.6" y="23.0" type="line"/>
      <point x="352.6" y="0.0" type="line"/>
      <point x="32.0" y="0.0" type="line"/>
      <point x="32.0" y="23.0" type="line"/>
      <point x="178.84" y="52.0" type="line"/>
      <point x="183.92000000000002" y="706.0" type="line"/>
      <point x="180.8" y="1061.4" type="line" smooth="yes"/>
      <point x="179.24" y="1282.8"/>
      <point x="368.92" y="1466.04"/>
      <point x="549.8" y="1465.0" type="qcurve" smooth="yes"/>
      <point x="739.8" y="1463.96"/>
      <point x="920.48" y="1265.8"/>
      <point x="916.12" y="1070.4" type="qcurve" smooth="yes"/>
      <point x="913.6" y="706.0" type="line"/>
      <point x="915.6" y="52.0" type="line"/>
    </contour>
    <contour>
      <point x="530.8" y="280.0" type="line"/>
      <point x="533.84" y="662.0" type="line"/>
      <point x="535.84" y="1350.0" type="line"/>
      <point x="534.8" y="1580.0" type="line"/>
      <point x="556.8" y="1590.0" type="line"/>
      <point x="555.24" y="1350.0" type="line"/>
      <point x="557.24" y="742.0" type="line"/>
      <point x="569.8" y="300.0" type="line"/>
    </contour>
  </outline>
</glyph>
<glyph name="divisionslash" format="2">
  <advance width="585"/>
  <unicode hex="2215"/>
  <outline>
    <contour>
      <point x="-26.28" y="-149.44" type="line"/>
      <point x="585.76" y="1549.56" type="line"/>
      <point x="611.92" y="1541.56" type="line"/>
      <point x="0.8800000000000026" y="-159.44" type="line"/>
    </contour>
  </outline>
</glyph>
<glyph name="bulletoperator" format="2">
  <advance width="671"/>
  <unicode hex="2219"/>
  <outline>
    <contour>
      <point x="269.92" y="677.44" type="qcurve" smooth="yes"/>
      <point x="269.92" y="702.76"/>
      <point x="306.68" y="741.0"/>
      <point x="335.48" y="741.0" type="qcurve" smooth="yes"/>
      <point x="364.8" y="741.0"/>
      <point x="401.56" y="702.76"/>
      <point x="401.56" y="677.44" type="qcurve" smooth="yes"/>
      <point x="401.56" y="651.6"/>
      <point x="364.8" y="613.36"/>
      <point x="335.48" y="613.36" type="qcurve" smooth="yes"/>
      <point x="306.68" y="613.36"/>
      <point x="269.92" y="651.6"/>
    </contour>
  </outline>
</glyph>
<glyph name="notequal" format="2">
  <advance width="843"/>
  <unicode hex="2260"/>
  <outline>
    <contour>
      <point x="94.0" y="443.2" type="line"/>
      <point x="94.0" y="481.0" type="line"/>
      <point x="426.2" y="479.0" type="line"/>
      <point x="757.2" y="481.0" type="line"/>
      <point x="757.2" y="443.2" type="line"/>
      <point x="426.2" y="446.2" type="line"/>
    </contour>
    <contour>
      <point x="94.0" y="747.0" type="line"/>
      <point x="94.0" y="784.8" type="line"/>
      <point x="426.2" y="781.8" type="line"/>
      <point x="757.2" y="784.8" type="line"/>
      <point x="757.2" y="747.0" type="line"/>
      <point x="426.2" y="749.0" type="line"/>
    </contour>
    <contour>
      <point x="168.6" y="173.92" type="line"/>
      <point x="668.8" y="1058.92" type="line"/>
      <point x="688.6" y="1046.6" type="line"/>
      <point x="188.4" y="161.6" type="line"/>
    </contour>
  </outline>
</glyph>
<glyph name="leftanglebracket" format="2">
  <advance width="852"/>
  <unicode hex="27E8"/>
  <outline>
    <contour>
      <point x="793.3199999999999" y="1531.0" type="line"/>
      <point x="815.56" y="1506.32" type="line"/>
      <point x="77.12" y="713.64" type="line"/>
      <point x="821.4" y="-136.88" type="line"/>
      <point x="796.56" y="-158.08" type="line"/>
      <point x="33.760000000000005" y="700.16" type="line"/>
      <point x="34.28" y="730.52" type="line"/>
    </contour>
  </outline>
</glyph>
<glyph name="rightanglebracket" format="2">
  <advance width="852"/>
  <unicode hex="27E9"/>
  <outline>
    <contour>
      <point x="61.84" y="-158.08" type="line"/>
      <point x="39.6" y="-133.4" type="line"/>
      <point x="778.04" y="659.28" type="line"/>
      <point x="33.760000000000005" y="1509.8" type="line"/>
      <point x="58.6" y="1531.0" type="line"/>
      <point x="821.4" y="672.76" type="line"/>
      <point x="820.88" y="642.4" type="line"/>
    </contour>
  </outline>
</glyph>
<glyph name="f_f_i" format="2">
  <advance width="1698"/>
  <unicode hex="FB03"/>
  <outline>
    <contour>
      <point x="51.08" y="0.0" type="line"/>
      <point x="51.08" y="16.92" type="line"/>
      <point x="219.28" y="41.88" type="line"/>
      <point x="222.24" y="477.0" type="line"/>
      <point x="225.24" y="871.8" type="line"/>
      <point x="32.0" y="884.16" type="line"/>
      <point x="32.0" y="901.16" type="line"/>
      <point x="225.24" y="901.8" type="line"/>
      <point x="218.72" y="1104.08" type="line" smooth="yes"/>
      <point x="212.76" y="1286.28"/>
      <point x="343.88" y="1450.68"/>
      <point x="456.76" y="1450.68" type="qcurve" smooth="yes"/>
      <point x="513.36" y="1450.68"/>
      <point x="601.88" y="1408.08"/>
      <point x="633.84" y="1380.44" type="qcurve" smooth="yes"/>
      <point x="649.0799999999999" y="1367.6" type="line"/>
      <point x="631.6" y="1341.36" type="line"/>
      <point x="618.2" y="1352.8" type="line" smooth="yes"/>
      <point x="586.4" y="1379.68"/>
      <point x="493.52" y="1422.08"/>
      <point x="434.4" y="1422.08" type="qcurve" smooth="yes"/>
      <point x="357.52" y="1422.08"/>
      <point x="271.08" y="1310.36"/>
      <point x="271.56" y="1147.8" type="qcurve" smooth="yes"/>
      <point x="272.52" y="901.8" type="line"/>
      <point x="836.04" y="905.16" type="line"/>
      <point x="829.52" y="1168.12" type="line" smooth="yes"/>
      <point x="825.04" y="1350.32"/>
      <point x="954.6800000000001" y="1509.52"/>
      <point x="1067.56" y="1509.52" type="qcurve" smooth="yes"/>
      <point x="1124.1599999999999" y="1509.52"/>
      <point x="1212.68" y="1472.12"/>
      <point x="1244.6399999999999" y="1444.48" type="qcurve" smooth="yes"/>
      <point x="1259.88" y="1431.64" type="line"/>
      <point x="1242.4" y="1405.4" type="line"/>
      <point x="1229.0" y="1416.84" type="line" smooth="yes"/>
      <point x="1197.2" y="1443.72"/>
      <point x="1104.32" y="1480.92"/>
      <point x="1045.2" y="1480.92" type="qcurve" smooth="yes"/>
      <point x="968.3199999999999" y="1480.92"/>
      <point x="881.88" y="1374.4"/>
      <point x="882.36" y="1211.84" type="qcurve" smooth="yes"/>
      <point x="883.3199999999999" y="905.16" type="line"/>
      <point x="1473.1999999999998" y="919.04" type="line"/>
      <point x="1482.56" y="919.04" type="line"/>
      <point x="1500.76" y="888.68" type="line"/>
      <point x="1497.76" y="472.2" type="line"/>
      <point x="1503.76" y="41.92" type="line"/>
      <point x="1660.96" y="16.92" type="line"/>
      <point x="1660.96" y="0.0" type="line"/>
      <point x="1296.28" y="0.0" type="line"/>
      <point x="1296.28" y="16.92" type="line"/>
      <point x="1444.92" y="41.92" type="line"/>
      <point x="1447.4" y="472.2" type="line"/>
      <point x="1442.8" y="872.52" type="line"/>
      <point x="1423.8" y="887.92" type="line"/>
      <point x="883.8" y="879.16" type="line"/>
      <point x="883.88" y="476.52" type="line"/>
      <point x="888.8399999999999" y="41.88" type="line"/>
      <point x="1071.76" y="16.92" type="line"/>
      <point x="1071.76" y="0.0" type="line"/>
      <point x="661.88" y="0.0" type="line"/>
      <point x="661.88" y="16.92" type="line"/>
      <point x="830.0799999999999" y="41.88" type="line"/>
      <point x="833.04" y="477.0" type="line"/>
      <point x="836.04" y="876.12" type="line"/>
      <point x="273.0" y="875.8" type="line"/>
      <point x="273.08" y="476.52" type="line"/>
      <point x="278.03999999999996" y="41.88" type="line"/>
      <point x="460.96000000000004" y="16.92" type="line"/>
      <point x="460.96000000000004" y="0.0" type="line"/>
    </contour>
    <contour>
      <point x="1435.04" y="1235.76" type="qcurve" smooth="yes"/>
      <point x="1435.04" y="1256.64"/>
      <point x="1459.4" y="1284.0"/>
      <point x="1477.28" y="1284.0" type="qcurve" smooth="yes"/>
      <point x="1495.1599999999999" y="1284.0"/>
      <point x="1520.52" y="1258.64"/>
      <point x="1520.52" y="1235.76" type="qcurve" smooth="yes"/>
      <point x="1520.52" y="1214.88"/>
      <point x="1493.1599999999999" y="1187.0"/>
      <point x="1477.28" y="1187.0" type="qcurve" smooth="yes"/>
      <point x="1457.4" y="1187.0"/>
      <point x="1435.04" y="1212.36"/>
    </contour>
  </outline>
</glyph>
<glyph name="f_f_l" format="2">
  <advance width="1705"/>
  <unicode hex="FB04"/>
  <outline>
    <contour>
      <point x="51.08" y="0.0" type="line"/>
      <point x="51.08" y="16.92" type="line"/>
      <point x="219.28" y="41.88" type="line"/>
      <point x="222.24" y="477.0" type="line"/>
      <point x="225.24" y="871.8" type="line"/>
      <point x="32.0" y="884.16" type="line"/>
      <point x="32.0" y="901.16" type="line"/>
      <point x="225.24" y="901.8" type="line"/>
      <point x="218.72" y="1104.08" type="line" smooth="yes"/>
      <point x="212.76" y="1286.28"/>
      <point x="343.88" y="1450.68"/>
      <point x="456.76" y="1450.68" type="qcurve" smooth="yes"/>
      <point x="513.36" y="1450.68"/>
      <point x="601.88" y="1408.08"/>
      <point x="633.84" y="1380.44" type="qcurve" smooth="yes"/>
      <point x="649.0799999999999" y="1367.6" type="line"/>
      <point x="631.6" y="1341.36" type="line"/>
      <point x="618.2" y="1352.8" type="line" smooth="yes"/>
      <point x="586.4" y="1379.68"/>
      <point x="493.52" y="1422.08"/>
      <point x="434.4" y="1422.08" type="qcurve" smooth="yes"/>
      <point x="357.52" y="1422.08"/>
      <point x="271.08" y="1310.36"/>
      <point x="271.56" y="1147.8" type="qcurve" smooth="yes"/>
      <point x="272.52" y="901.8" type="line"/>
      <point x="837.56" y="900.76" type="line"/>
      <point x="831.04" y="1169.08" type="line" smooth="yes"/>
      <point x="826.56" y="1351.28"/>
      <point x="961.24" y="1510.48"/>
      <point x="1066.84" y="1510.48" type="qcurve" smooth="yes"/>
      <point x="1111.48" y="1510.48"/>
      <point x="1234.68" y="1494.88"/>
      <point x="1259.56" y="1492.92" type="qcurve" smooth="yes"/>
      <point x="1282.44" y="1491.48" type="line"/>
      <point x="1487.8" y="1498.56" type="line"/>
      <point x="1498.24" y="1491.6" type="line"/>
      <point x="1502.32" y="1468.68" type="line"/>
      <point x="1499.8400000000001" y="527.0" type="line"/>
      <point x="1505.3600000000001" y="41.92" type="line"/>
      <point x="1663.6799999999998" y="16.88" type="line"/>
      <point x="1663.6799999999998" y="0.0" type="line"/>
      <point x="1291.52" y="0.0" type="line"/>
      <point x="1291.52" y="16.88" type="line"/>
      <point x="1445.0" y="41.92" type="line"/>
      <point x="1448.52" y="527.0" type="line"/>
      <point x="1439.96" y="1449.84" type="line"/>
      <point x="1239.8" y="1466.92" type="line" smooth="yes"/>
      <point x="1208.36" y="1469.36"/>
      <point x="1099.44" y="1481.88"/>
      <point x="1049.68" y="1481.88" type="qcurve" smooth="yes"/>
      <point x="971.76" y="1481.88"/>
      <point x="883.4" y="1375.36"/>
      <point x="883.88" y="1212.8" type="qcurve" smooth="yes"/>
      <point x="884.8399999999999" y="900.76" type="line"/>
      <point x="1118.88" y="899.72" type="line"/>
      <point x="1118.88" y="875.72" type="line"/>
      <point x="885.3199999999999" y="873.72" type="line"/>
      <point x="885.4" y="476.52" type="line"/>
      <point x="890.36" y="41.88" type="line"/>
      <point x="1073.28" y="16.92" type="line"/>
      <point x="1073.28" y="0.0" type="line"/>
      <point x="664.44" y="0.0" type="line"/>
      <point x="664.44" y="16.92" type="line"/>
      <point x="831.5999999999999" y="41.88" type="line"/>
      <point x="834.56" y="477.0" type="line"/>
      <point x="837.56" y="868.8" type="line"/>
      <point x="822.0" y="879.36" type="line"/>
      <point x="273.0" y="875.8" type="line"/>
      <point x="273.08" y="476.52" type="line"/>
      <point x="278.03999999999996" y="41.88" type="line"/>
      <point x="460.96000000000004" y="16.92" type="line"/>
      <point x="460.96000000000004" y="0.0" type="line"/>
    </contour>
  </outline>
</glyph>
<glyph name="acutecomb.case" format="2">
  <advance width="896"/>
  <outline>
    <contour>
      <point x="595.44" y="1743.24" type="qcurve" smooth="yes"/>
      <point x="595.44" y="1722.24"/>
      <point x="579.44" y="1700.72"/>
      <point x="560.44" y="1691.24" type="qcurve" smooth="yes"/>
      <point x="324.4" y="1573.0" type="line"/>
      <point x="318.4" y="1581.0" type="line"/>
      <point x="488.44" y="1733.24" type="line" smooth="yes"/>
      <point x="509.44" y="1751.76"/>
      <point x="538.44" y="1777.24"/>
      <point x="554.44" y="1777.24" type="qcurve" smooth="yes"/>
      <point x="569.44" y="1777.24"/>
      <point x="595.44" y="1758.24"/>
    </contour>
  </outline>
</glyph>
<glyph name="brevecomb.case" format="2">
  <advance width="896"/>
  <outline>
    <contour>
      <point x="668.6" y="1781.92" type="qcurve"/>
      <point x="682.0" y="1777.0" type="line"/>
      <point x="656.0" y="1714.0"/>
      <point x="538.0" y="1587.56"/>
      <point x="449.0" y="1587.56" type="qcurve" smooth="yes"/>
      <point x="360.0" y="1587.56"/>
      <point x="243.0" y="1707.0"/>
      <point x="214.0" y="1775.0" type="qcurve"/>
      <point x="228.36" y="1780.48" type="line"/>
      <point x="260.36" y="1708.48"/>
      <point x="370.52" y="1646.88"/>
      <point x="449.0" y="1648.44" type="qcurve" smooth="yes"/>
      <point x="528.0" y="1646.88"/>
      <point x="640.6" y="1712.92"/>
    </contour>
  </outline>
</glyph>
<glyph name="circumflexcomb.case" format="2">
  <advance width="896"/>
  <outline>
    <contour>
      <point x="447.0" y="1770.8" type="qcurve" smooth="yes"/>
      <point x="469.0" y="1770.8"/>
      <point x="518.48" y="1730.08"/>
      <point x="560.0" y="1692.6" type="qcurve" smooth="yes"/>
      <point x="696.84" y="1560.88" type="line"/>
      <point x="684.4" y="1552.36" type="line"/>
      <point x="447.0" y="1709.72" type="line"/>
      <point x="207.36" y="1550.44" type="line"/>
      <point x="195.0" y="1559.88" type="line"/>
      <point x="334.0" y="1692.6" type="line" smooth="yes"/>
      <point x="382.96" y="1740.12"/>
      <point x="425.0" y="1770.8"/>
    </contour>
  </outline>
</glyph>
<glyph name="dblgravecomb.case" format="2">
  <advance width="896"/>
  <outline>
    <contour>
      <point x="195.72" y="1738.84" type="qcurve" smooth="yes"/>
      <point x="195.72" y="1753.84"/>
      <point x="215.72" y="1778.84"/>
      <point x="234.72" y="1778.84" type="qcurve" smooth="yes"/>
      <point x="253.72" y="1778.84"/>
      <point x="280.24" y="1757.36"/>
      <point x="298.72" y="1739.84" type="qcurve" smooth="yes"/>
      <point x="493.2" y="1555.0" type="line"/>
      <point x="487.2" y="1547.0" type="line"/>
      <point x="258.72" y="1678.84" type="line" smooth="yes"/>
      <point x="239.72" y="1689.8"/>
      <point x="195.72" y="1718.84"/>
    </contour>
    <contour>
      <point x="438.52" y="1738.84" type="qcurve" smooth="yes"/>
      <point x="438.52" y="1753.84"/>
      <point x="458.52" y="1778.84"/>
      <point x="477.52" y="1778.84" type="qcurve" smooth="yes"/>
      <point x="496.52" y="1778.84"/>
      <point x="523.04" y="1757.36"/>
      <point x="541.52" y="1739.84" type="qcurve" smooth="yes"/>
      <point x="736.0" y="1555.0" type="line"/>
      <point x="730.0" y="1547.0" type="line"/>
      <point x="501.52" y="1678.84" type="line" smooth="yes"/>
      <point x="482.52" y="1689.8"/>
      <point x="438.52" y="1718.84"/>
    </contour>
  </outline>
</glyph>
<glyph name="diagonalbarl" format="2">
  <advance width="684"/>
  <outline>
    <contour>
      <point x="325.56" y="755.36" type="line"/>
      <point x="609.3199999999999" y="930.28" type="line"/>
      <point x="622.88" y="899.08" type="line"/>
      <point x="344.08" y="730.48" type="line"/>
      <point x="84.64" y="571.84" type="line"/>
      <point x="70.56" y="604.0" type="line"/>
    </contour>
  </outline>
</glyph>
<glyph name="diagonalbaro" format="2">
  <advance width="512"/>
  <outline>
    <contour>
      <point x="-12.719999999999999" y="-111.6" type="line"/>
      <point x="38.16" y="29.44" type="line"/>
      <point x="38.16" y="29.44" type="line"/>
      <point x="225.36" y="559.0" type="line"/>
      <point x="243.72" y="544.04" type="line"/>
      <point x="55.68" y="16.04" type="line"/>
      <point x="55.68" y="15.56" type="line"/>
      <point x="8.840000000000003" y="-114.6" type="line"/>
    </contour>
    <contour>
      <point x="431.15999999999997" y="1134.6" type="line"/>
      <point x="457.15999999999997" y="1133.56" type="line"/>
      <point x="383.48" y="935.6" type="line"/>
      <point x="383.48" y="936.08" type="line"/>
      <point x="243.72" y="544.04" type="line"/>
      <point x="225.36" y="559.0" type="line"/>
      <point x="363.52" y="944.44" type="line"/>
      <point x="363.04" y="944.44" type="line"/>
    </contour>
  </outline>
</glyph>
<glyph name="eight.tab" format="2">
  <advance width="894"/>
  <outline>
    <contour>
      <point x="52.92" y="352.68" type="qcurve" smooth="yes"/>
      <point x="52.92" y="500.68"/>
      <point x="250.64" y="755.16"/>
      <point x="408.56" y="833.8" type="qcurve"/>
      <point x="420.32" y="826.32" type="line"/>
      <point x="267.88" y="748.32"/>
      <point x="97.12" y="494.32"/>
      <point x="97.12" y="346.48" type="qcurve" smooth="yes"/>
      <point x="97.12" y="196.4"/>
      <point x="289.76" y="-5.76"/>
      <point x="451.36" y="-5.76" type="qcurve" smooth="yes"/>
      <point x="612.96" y="-5.76"/>
      <point x="802.6800000000001" y="214.16"/>
      <point x="802.6800000000001" y="370.72" type="qcurve" smooth="yes"/>
      <point x="802.6800000000001" y="521.6"/>
      <point x="582.28" y="721.56"/>
      <point x="438.84000000000003" y="797.12" type="qcurve" smooth="yes"/>
      <point x="300.56" y="871.84"/>
      <point x="126.47999999999999" y="1064.68"/>
      <point x="126.47999999999999" y="1215.16" type="qcurve" smooth="yes"/>
      <point x="126.47999999999999" y="1359.28"/>
      <point x="313.36" y="1525.8"/>
      <point x="451.2" y="1525.8" type="qcurve" smooth="yes"/>
      <point x="599.24" y="1525.8"/>
      <point x="776.36" y="1362.88"/>
      <point x="776.36" y="1219.6" type="qcurve" smooth="yes"/>
      <point x="776.36" y="1082.72"/>
      <point x="611.36" y="884.6"/>
      <point x="482.32" y="819.84" type="qcurve"/>
      <point x="474.4" y="827.76" type="line"/>
      <point x="611.84" y="903.08"/>
      <point x="743.76" y="1095.28"/>
      <point x="743.76" y="1220.28" type="qcurve" smooth="yes"/>
      <point x="743.76" y="1350.48"/>
      <point x="590.92" y="1509.8"/>
      <point x="449.68" y="1509.8" type="qcurve" smooth="yes"/>
      <point x="320.72" y="1509.8"/>
      <point x="172.44" y="1351.08"/>
      <point x="172.44" y="1221.84" type="qcurve" smooth="yes"/>
      <point x="172.44" y="1094.68"/>
      <point x="343.12" y="918.4"/>
      <point x="482.32" y="844.2" type="qcurve" smooth="yes"/>
      <point x="629.0799999999999" y="764.84"/>
      <point x="855.16" y="544.68"/>
      <point x="855.16" y="375.56" type="qcurve" smooth="yes"/>
      <point x="855.16" y="205.36"/>
      <point x="625.6" y="-20.72"/>
      <point x="449.79999999999995" y="-20.72" type="qcurve" smooth="yes"/>
      <point x="277.64" y="-20.72"/>
      <point x="52.92" y="184.8"/>
    </contour>
  </outline>
</glyph>
<glyph name="engn" format="2">
  <advance width="1007"/>
  <outline>
    <contour>
      <point x="71.52" y="0.0" type="line"/>
      <point x="71.52" y="14.92" type="line"/>
      <point x="213.95999999999998" y="41.92" type="line"/>
      <point x="215.0" y="475.24" type="line"/>
      <point x="211.44" y="869.0" type="line"/>
      <point x="52.72" y="894.0" type="line"/>
      <point x="52.72" y="909.96" type="line"/>
      <point x="254.24" y="923.0" type="line"/>
      <point x="266.76" y="922.0" type="line"/>
      <point x="265.8" y="727.68" type="line"/>
      <point x="316.08" y="806.56"/>
      <point x="527.0799999999999" y="939.4"/>
      <point x="658.4" y="939.4" type="qcurve" smooth="yes"/>
      <point x="821.2" y="939.4"/>
      <point x="977.56" y="799.52"/>
      <point x="977.56" y="679.2" type="qcurve" smooth="yes"/>
      <point x="977.56" y="621.24"/>
      <point x="977.56" y="527.32"/>
      <point x="977.56" y="509.2" type="qcurve" smooth="yes"/>
      <point x="979.56" y="0.0" type="line"/>
      <point x="917.2" y="0.0" type="line"/>
      <point x="923.6800000000001" y="490.4" type="line"/>
      <point x="923.6800000000001" y="646.44" type="line" smooth="yes"/>
      <point x="923.6800000000001" y="785.64"/>
      <point x="794.0" y="902.44"/>
      <point x="651.28" y="902.44" type="qcurve" smooth="yes"/>
      <point x="526.0799999999999" y="902.44"/>
      <point x="316.6" y="782.4"/>
      <point x="265.8" y="709.36" type="qcurve"/>
      <point x="266.84000000000003" y="476.8" type="line"/>
      <point x="272.32" y="41.92" type="line"/>
      <point x="432.12" y="14.92" type="line"/>
      <point x="432.12" y="0.0" type="line"/>
    </contour>
  </outline>
</glyph>
<glyph name="engtail" format="2">
  <advance width="629"/>
  <outline>
    <contour>
      <point x="470.72" y="76.6" type="line"/>
      <point x="523.0" y="76.6" type="line"/>
      <point x="523.0" y="-160.0" type="line" smooth="yes"/>
      <point x="523.0" y="-266.88"/>
      <point x="420.56" y="-365.8"/>
      <point x="343.16" y="-365.8" type="qcurve" smooth="yes"/>
      <point x="273.72" y="-365.8"/>
      <point x="171.24" y="-303.4"/>
      <point x="153.0" y="-277.56" type="qcurve"/>
      <point x="161.52" y="-265.2" type="line"/>
      <point x="179.88" y="-288.6"/>
      <point x="273.2" y="-345.44"/>
      <point x="332.72" y="-345.44" type="qcurve" smooth="yes"/>
      <point x="390.2" y="-345.44"/>
      <point x="461.12" y="-271.64"/>
      <point x="461.12" y="-192.64" type="qcurve" smooth="yes"/>
      <point x="461.12" y="-130.8"/>
      <point x="461.12" y="42.6"/>
      <point x="461.12" y="42.6" type="qcurve"/>
    </contour>
  </outline>
</glyph>
<glyph name="gravecombstack.case" format="2">
  <advance width="1024"/>
  <outline>
    <contour>
      <point x="380.28" y="1707.96" type="qcurve" smooth="yes"/>
      <point x="376.8" y="1721.96"/>
      <point x="394.72" y="1745.92"/>
      <point x="409.72" y="1748.36" type="qcurve" smooth="yes"/>
      <point x="424.72" y="1750.8"/>
      <point x="458.68" y="1733.84"/>
      <point x="483.68" y="1720.8" type="qcurve" smooth="yes"/>
      <point x="672.48" y="1623.0" type="line"/>
      <point x="668.48" y="1614.0" type="line"/>
      <point x="424.68" y="1672.2" type="line" smooth="yes"/>
      <point x="403.68" y="1677.2"/>
      <point x="384.24" y="1690.08"/>
    </contour>
  </outline>
</glyph>
<glyph name="hookabovecomb.case" format="2">
  <advance width="896"/>
  <outline>
    <contour>
      <point x="356.8" y="1568.0" type="line"/>
      <point x="356.8" y="1706.6" type="line"/>
      <point x="367.68" y="1706.6" type="line"/>
      <point x="385.48" y="1694.72"/>
      <point x="452.24" y="1675.92"/>
      <point x="502.68" y="1675.92" type="qcurve" smooth="yes"/>
      <point x="575.12" y="1675.92"/>
      <point x="656.48" y="1746.2"/>
      <point x="656.48" y="1804.12" type="qcurve" smooth="yes"/>
      <point x="656.48" y="1849.16"/>
      <point x="577.6" y="1912.44"/>
      <point x="503.68" y="1912.44" type="qcurve" smooth="yes"/>
      <point x="436.92" y="1912.44"/>
      <point x="308.96" y="1849.04"/>
      <point x="281.76" y="1819.32" type="qcurve"/>
      <point x="269.76" y="1834.8" type="line"/>
      <point x="305.36" y="1868.96"/>
      <point x="446.32" y="1931.32"/>
      <point x="524.44" y="1931.32" type="qcurve" smooth="yes"/>
      <point x="609.76" y="1931.32"/>
      <point x="725.48" y="1863.52"/>
      <point x="725.48" y="1796.68" type="qcurve" smooth="yes"/>
      <point x="725.48" y="1725.4"/>
      <point x="604.32" y="1652.64"/>
      <point x="513.56" y="1652.64" type="qcurve" smooth="yes"/>
      <point x="467.08" y="1652.64"/>
      <point x="402.12" y="1670.24"/>
      <point x="376.8" y="1683.6" type="qcurve"/>
      <point x="376.8" y="1568.0" type="line"/>
    </contour>
  </outline>
</glyph>
<glyph name="horizontalbarlc" format="2">
  <advance width="741"/>
  <outline>
    <contour>
      <point x="352.72" y="781.16" type="line"/>
      <point x="99.16" y="781.16" type="line"/>
      <point x="103.64" y="808.04" type="line"/>
      <point x="369.6" y="808.04" type="line"/>
      <point x="651.88" y="808.04" type="line"/>
      <point x="650.04" y="781.16" type="line"/>
    </contour>
  </outline>
</glyph>
<glyph name="hornU" format="2">
  <advance width="1180"/>
  <outline>
    <contour>
      <point x="59.879999999999995" y="1482.12" type="line"/>
      <point x="59.879999999999995" y="1500.0" type="line"/>
      <point x="483.08" y="1500.0" type="line"/>
      <point x="483.08" y="1482.12" type="line"/>
      <point x="303.15999999999997" y="1448.12" type="line"/>
      <point x="302.12" y="833.6" type="line"/>
      <point x="302.12" y="493.03999999999996" type="line" smooth="yes"/>
      <point x="302.12" y="255.0"/>
      <point x="489.96" y="-1.3200000000000003"/>
      <point x="728.16" y="-1.3200000000000003" type="qcurve" smooth="yes"/>
      <point x="943.44" y="-1.3200000000000003"/>
      <point x="1158.04" y="233.76"/>
      <point x="1157.12" y="493.92" type="qcurve" smooth="yes"/>
      <point x="1157.2" y="827.6" type="line"/>
      <point x="1154.8" y="1436.36" type="line"/>
      <point x="939.4" y="1483.12" type="line"/>
      <point x="939.4" y="1500.0" type="line"/>
      <point x="1179.36" y="1500.0" type="line"/>
      <point x="1179.36" y="827.6" type="line"/>
      <point x="1180.4" y="470.64" type="line" smooth="yes"/>
      <point x="1180.92" y="225.24"/>
      <point x="951.72" y="-19.8"/>
      <point x="722.04" y="-19.8" type="qcurve" smooth="yes"/>
      <point x="477.2" y="-19.8"/>
      <point x="238.28" y="221.48"/>
      <point x="240.72" y="463.03999999999996" type="qcurve" smooth="yes"/>
      <point x="244.2" y="832.6" type="line"/>
      <point x="242.76" y="1448.12" type="line"/>
    </contour>
  </outline>
</glyph>
<glyph name="hungarumlautcomb.case" format="2">
  <advance width="896"/>
  <outline>
    <contour>
      <point x="511.72" y="1791.76" type="qcurve" smooth="yes"/>
      <point x="507.72" y="1785.76"/>
      <point x="492.72" y="1769.76"/>
      <point x="485.72" y="1764.76" type="qcurve" smooth="yes"/>
      <point x="281.0" y="1608.0" type="line"/>
      <point x="272.0" y="1619.0" type="line"/>
      <point x="441.72" y="1815.76" type="line" smooth="yes"/>
      <point x="451.72" y="1826.76"/>
      <point x="483.72" y="1839.76"/>
      <point x="496.72" y="1835.76" type="qcurve" smooth="yes"/>
      <point x="510.72" y="1831.76"/>
      <point x="518.72" y="1802.76"/>
    </contour>
    <contour>
      <point x="709.72" y="1791.76" type="qcurve" smooth="yes"/>
      <point x="705.72" y="1785.76"/>
      <point x="690.72" y="1769.76"/>
      <point x="683.72" y="1764.76" type="qcurve" smooth="yes"/>
      <point x="479.0" y="1608.0" type="line"/>
      <point x="470.0" y="1619.0" type="line"/>
      <point x="639.72" y="1815.76" type="line" smooth="yes"/>
      <point x="649.72" y="1826.76"/>
      <point x="681.72" y="1839.76"/>
      <point x="694.72" y="1835.76" type="qcurve" smooth="yes"/>
      <point x="708.72" y="1831.76"/>
      <point x="716.72" y="1802.76"/>
    </contour>
  </outline>
</glyph>
<glyph name="macroncomb.case" format="2">
  <advance width="896"/>
  <outline>
    <contour>
      <point x="173.0" y="1628.0" type="line"/>
      <point x="173.0" y="1667.8" type="line"/>
      <point x="723.0" y="1667.8" type="line"/>
      <point x="723.0" y="1628.0" type="line"/>
    </contour>
  </outline>
</glyph>
<glyph name="ringcomb.case" format="2">
  <advance width="896"/>
  <outline>
    <contour>
      <point x="253.84" y="1695.8" type="qcurve" smooth="yes"/>
      <point x="253.84" y="1753.8"/>
      <point x="357.52" y="1851.96"/>
      <point x="432.4" y="1851.96" type="qcurve" smooth="yes"/>
      <point x="507.28" y="1851.96"/>
      <point x="610.96" y="1753.8"/>
      <point x="610.96" y="1695.8" type="qcurve" smooth="yes"/>
      <point x="610.96" y="1637.8"/>
      <point x="507.28" y="1539.64"/>
      <point x="432.4" y="1539.64" type="qcurve" smooth="yes"/>
      <point x="357.52" y="1539.64"/>
      <point x="253.84" y="1637.8"/>
    </contour>
    <contour>
      <point x="295.68" y="1695.8" type="qcurve" smooth="yes"/>
      <point x="295.68" y="1638.28"/>
      <point x="369.64" y="1551.76"/>
      <point x="432.4" y="1551.76" type="qcurve" smooth="yes"/>
      <point x="497.64" y="1551.76"/>
      <point x="569.12" y="1634.32"/>
      <point x="569.12" y="1695.8" type="qcurve" smooth="yes"/>
      <point x="569.12" y="1753.32"/>
      <point x="495.15999999999997" y="1839.84"/>
      <point x="432.4" y="1839.84" type="qcurve" smooth="yes"/>
      <point x="367.16" y="1839.84"/>
      <point x="295.68" y="1757.28"/>
    </contour>
  </outline>
</glyph>
<glyph name="seven.tab" format="2">
  <advance width="763"/>
  <outline>
    <contour>
      <point x="19.72" y="1227.36" type="line"/>
      <point x="32.64" y="1500.0" type="line"/>
      <point x="790.24" y="1500.0" type="line"/>
      <point x="790.24" y="1446.84" type="line"/>
      <point x="490.52" y="723.88" type="line"/>
      <point x="192.88" y="-23.8" type="line"/>
      <point x="162.04" y="-23.8" type="line"/>
      <point x="162.04" y="-12.8" type="line"/>
      <point x="472.68" y="733.76" type="line"/>
      <point x="751.76" y="1421.08" type="line"/>
      <point x="748.16" y="1429.56" type="line"/>
      <point x="79.6" y="1429.56" type="line"/>
      <point x="31.119999999999997" y="1227.36" type="line"/>
    </contour>
  </outline>
</glyph>
<glyph name="six.lf" format="2">
  <advance width="908"/>
  <outline>
    <contour>
      <point x="63.4" y="620.52" type="qcurve" smooth="yes"/>
      <point x="63.4" y="977.52"/>
      <point x="422.08" y="1470.76"/>
      <point x="650.44" y="1528.76" type="qcurve"/>
      <point x="653.56" y="1516.32" type="line"/>
      <point x="437.28" y="1462.2"/>
      <point x="123.16" y="963.76"/>
      <point x="123.16" y="609.36" type="qcurve" smooth="yes"/>
      <point x="123.16" y="279.36"/>
      <point x="319.24" y="-6.24"/>
      <point x="481.44" y="-6.24" type="qcurve" smooth="yes"/>
      <point x="635.0799999999999" y="-6.24"/>
      <point x="815.24" y="216.96"/>
      <point x="815.24" y="449.16" type="qcurve" smooth="yes"/>
      <point x="815.24" y="676.96"/>
      <point x="675.8399999999999" y="880.76"/>
      <point x="553.5999999999999" y="880.76" type="qcurve" smooth="yes"/>
      <point x="469.15999999999997" y="880.76"/>
      <point x="341.52" y="822.08"/>
      <point x="308.56" y="783.24" type="qcurve"/>
      <point x="300.08" y="793.2" type="line"/>
      <point x="329.68" y="831.4"/>
      <point x="464.96" y="894.88"/>
      <point x="558.6800000000001" y="894.88" type="qcurve" smooth="yes"/>
      <point x="693.8" y="894.88"/>
      <point x="875.88" y="690.6"/>
      <point x="875.88" y="452.0" type="qcurve" smooth="yes"/>
      <point x="875.88" y="223.36"/>
      <point x="642.0" y="-20.240000000000002"/>
      <point x="482.4" y="-20.240000000000002" type="qcurve" smooth="yes"/>
      <point x="312.96" y="-20.240000000000002"/>
      <point x="63.4" y="282.72"/>
    </contour>
  </outline>
</glyph>
<glyph name="tildecomb.case" format="2">
  <advance width="896"/>
  <outline>
    <contour>
      <point x="195.0" y="1662.0" type="line"/>
      <point x="212.0" y="1687.0"/>
      <point x="291.0" y="1747.4"/>
      <point x="333.0" y="1747.4" type="qcurve" smooth="yes"/>
      <point x="378.0" y="1747.4"/>
      <point x="430.0" y="1722.0"/>
      <point x="456.0" y="1705.0" type="qcurve" smooth="yes"/>
      <point x="479.0" y="1690.0"/>
      <point x="538.0" y="1658.0"/>
      <point x="564.0" y="1658.0" type="qcurve" smooth="yes"/>
      <point x="596.0" y="1658.0"/>
      <point x="652.76" y="1696.76"/>
      <point x="665.76" y="1715.28" type="qcurve"/>
      <point x="676.72" y="1705.4" type="line"/>
      <point x="656.84" y="1668.0"/>
      <point x="594.0" y="1610.6"/>
      <point x="551.0" y="1610.6" type="qcurve" smooth="yes"/>
      <point x="513.0" y="1610.6"/>
      <point x="442.0" y="1644.0"/>
      <point x="418.0" y="1657.0" type="qcurve" smooth="yes"/>
      <point x="394.0" y="1670.0"/>
      <point x="325.0" y="1707.08"/>
      <point x="299.12" y="1707.08" type="qcurve" smooth="yes"/>
      <point x="269.0" y="1707.08"/>
      <point x="219.96" y="1669.6"/>
      <point x="208.44" y="1653.12" type="qcurve"/>
    </contour>
  </outline>
</glyph>
<glyph name="zero.lf" format="2">
  <advance width="993"/>
  <outline>
    <contour>
      <point x="65.36" y="743.0" type="qcurve" smooth="yes"/>
      <point x="65.36" y="1106.0"/>
      <point x="318.12" y="1520.0"/>
      <point x="497.76" y="1520.0" type="qcurve" smooth="yes"/>
      <point x="678.36" y="1520.0"/>
      <point x="927.2" y="1108.0"/>
      <point x="927.2" y="743.0" type="qcurve" smooth="yes"/>
      <point x="927.2" y="381.68"/>
      <point x="676.8399999999999" y="-21.2"/>
      <point x="496.24" y="-21.2" type="qcurve" smooth="yes"/>
      <point x="316.15999999999997" y="-21.2"/>
      <point x="65.36" y="380.0"/>
    </contour>
    <contour>
      <point x="127.03999999999999" y="743.0" type="qcurve" smooth="yes"/>
      <point x="127.03999999999999" y="391.6"/>
      <point x="324.52" y="-6.24"/>
      <point x="498.28" y="-6.24" type="qcurve" smooth="yes"/>
      <point x="669.96" y="-6.24"/>
      <point x="864.56" y="397.2"/>
      <point x="866.56" y="739.0" type="qcurve" smooth="yes"/>
      <point x="869.0799999999999" y="1080.8"/>
      <point x="672.0" y="1504.08"/>
      <point x="498.76" y="1504.08" type="qcurve" smooth="yes"/>
      <point x="326.6" y="1504.08"/>
      <point x="127.03999999999999" y="1084.8"/>
    </contour>
  </outline>
</glyph>
